<?xml version="1.0" encoding="UTF-8"?>
<svg width="5175px" height="786px" viewBox="0 0 5175 786" version="1.1" xmlns="http://www.w3.org/2000/svg" xmlns:xlink="http://www.w3.org/1999/xlink">
    <!-- Generator: Sketch 48.2 (47327) - http://www.bohemiancoding.com/sketch -->
    <title>bottom-bgc-dots</title>
    <desc>Created with Sketch.</desc>
    <defs>
        <path d="M4685.08364,286.877812 C4659.4497,322.102916 4617.8988,345 4571,345 C4550.80765,345 4531.60667,340.755463 4514.2406,333.109941 C4491.58114,429.911522 4404.70915,502 4301,502 C4204.02996,502 4121.77999,438.975875 4092.97711,351.654635 C4063.92103,384.957447 4021.16789,406 3973.5,406 C3892.41287,406 3825.5475,345.109379 3816.13405,266.55829 C3799.00787,276.382828 3779.15991,282 3758,282 C3731.38157,282 3706.83928,273.110961 3687.17965,258.139382 C3668.82508,294.601407 3634.94646,321.907048 3594.22291,331.377173 C3584.09175,460.432051 3476.15711,562 3344.5,562 C3226.11105,562 3126.90408,479.872159 3100.74421,369.481584 C3069.68282,404.749025 3024.18991,427 2973.5,427 C2958.87728,427 2944.68704,425.148335 2931.15096,421.666689 C2888.47263,536.324414 2778.02449,618 2648.5,618 C2481.98615,618 2347,483.013852 2347,316.5 C2347,306.96797 2347.44234,297.539255 2348.30762,288.233262 C2336.02242,292.614353 2322.78981,295 2309,295 C2272.65523,295 2240.18105,278.428047 2218.72149,252.428174 C2219.56588,259.668139 2220,267.033372 2220,274.5 C2220,378.605675 2135.60568,463 2031.5,463 C1948.4767,463 1877.98964,409.32594 1852.84586,334.784841 C1826.08602,459.502632 1715.21175,553 1582.5,553 C1451.51992,553 1341.81115,461.926685 1313.24448,339.650839 C1279.68002,411.341006 1206.88925,461 1122.5,461 C1096.9062,461 1072.37924,456.432346 1049.68981,448.067746 C1003.37794,564.0504 890.009145,646 757.5,646 C623.436666,646 508.965311,562.116766 463.708387,443.97275 C426.68792,486.544082 376.485323,507.651338 321.5,478 C208.682972,417.162388 210.663224,242.900359 79.2160091,242.900359 C79.2160091,129.405843 208.005484,67 321.5,67 C393.574886,67 456.983445,104.104953 493.66568,160.25486 C549.75084,74.0222921 646.966285,17 757.5,17 C840.86501,17 916.654265,49.4356606 972.936141,102.375357 C1011.08449,63.8586746 1064.006,40 1122.5,40 C1215.28737,40 1294.05291,100.034568 1322.07247,183.379547 C1360.29805,76.4861652 1462.46687,0 1582.5,0 C1714.35554,0 1824.65447,92.2948448 1852.31744,215.805187 C1876.98989,140.438532 1947.88754,86 2031.5,86 C2099.34889,86 2158.82532,121.846761 2192.02344,175.634431 C2193.28328,112.109067 2245.17306,61 2309,61 C2355.22922,61 2395.19625,87.8116165 2414.19939,126.733156 C2469.47664,58.5679427 2553.9004,15 2648.5,15 C2739.35676,15 2820.82697,55.1886079 2876.10376,118.758964 C2903.66025,99.3786491 2937.25131,88 2973.5,88 C3041.72665,88 3100.53837,128.310129 3127.41806,186.413298 C3170.7074,111.448632 3251.71224,61 3344.5,61 C3389.23409,61 3431.22945,72.7258735 3467.58013,93.2716599 C3492.47777,70.1433642 3525.8372,56 3562.5,56 C3601.53957,56 3636.8336,72.0365778 3662.15398,97.881624 C3683.31597,67.7178709 3718.35531,48 3758,48 C3809.77283,48 3853.69155,81.6274306 3869.106,128.232133 C3896.99082,103.805018 3933.51646,89 3973.5,89 C4033.4437,89 4085.61533,122.276194 4112.55017,171.363862 C4150.71093,107.084427 4220.82401,64 4301,64 C4360.32796,64 4414.14589,87.591224 4453.5847,125.904574 C4478.85714,87.9835728 4522.01096,63 4571,63 C4618.9469,63 4661.30419,86.9319263 4686.77828,123.502171 C4706.98135,104.583413 4734.13795,93 4764,93 C4809.20782,93 4848.21512,119.547546 4866.28274,157.903463 C4890.93893,136.768183 4922.97838,124 4958,124 C5035.87215,124 5118.64224,166.751454 5118.64224,244.623604 C5014.85009,244.623604 4975.5011,359.574941 4929.07283,371.662499 C4890.82054,381.621447 4839.524,355.626778 4822.64367,302.610782 C4805.54776,313.010412 4785.47335,319 4764,319 C4733.29477,319 4705.44993,306.753215 4685.08364,286.877812 Z" id="path-1"></path>
        <filter x="-3.1%" y="-11.3%" width="105.7%" height="144.3%" filterUnits="objectBoundingBox" id="filter-2">
            <feOffset dx="-11" dy="70" in="SourceAlpha" result="shadowOffsetOuter1"></feOffset>
            <feGaussianBlur stdDeviation="36" in="shadowOffsetOuter1" result="shadowBlurOuter1"></feGaussianBlur>
            <feColorMatrix values="0 0 0 0 0   0 0 0 0 0   0 0 0 0 0  0 0 0 0.228345788 0" type="matrix" in="shadowBlurOuter1"></feColorMatrix>
        </filter>
    </defs>
    <g id="Page-1" stroke="none" stroke-width="1" fill="none" fill-rule="evenodd">
        <g id="bottom-bgc-dots">
            <use fill="black" fill-opacity="1" filter="url(#filter-2)" xlink:href="#path-1"></use>
            <use fill="#1D3D69" fill-rule="evenodd" xlink:href="#path-1"></use>
        </g>
    </g>
</svg>