<?xml version="1.0" encoding="UTF-8"?>
<svg width="1087px" height="2196px" viewBox="0 0 1087 2196" version="1.1" xmlns="http://www.w3.org/2000/svg" xmlns:xlink="http://www.w3.org/1999/xlink">
    <!-- Generator: Sketch 48.2 (47327) - http://www.bohemiancoding.com/sketch -->
    <title>dots-accen-3</title>
    <desc>Created with Sketch.</desc>
    <defs>
        <path d="M342.546473,557.423288 C383.796832,487.166657 460.140234,440 547.5,440 C666.908009,440 765.734271,528.120932 782.494716,642.878727 C813.304236,617.34681 852.859898,602 896,602 C994.306685,602 1074,681.693315 1074,780 C1074,803.509852 1069.4422,825.955171 1061.162,846.50055 C1178.9086,854.300233 1272,952.278785 1272,1072 C1272,1196.81635 1170.81635,1298 1046,1298 C1039.71393,1298 1033.4878,1297.74336 1027.33152,1297.23998 C1040.06753,1333.12154 1047,1371.75119 1047,1412 C1047,1601.43367 893.433669,1755 704,1755 C514.566331,1755 361,1601.43367 361,1412 C361,1260.24893 459.547402,1131.51484 596.136476,1086.30346 C559.295294,1054.30953 536,1007.12522 536,954.5 C536,940.878867 537.560655,927.622245 540.512905,914.899192 C436.255202,911.887068 348.838279,841.684158 320.051515,746.079841 C295.461517,767.221933 263.472997,780 228.5,780 C150.903993,780 88,717.096007 88,639.5 C88,561.903993 150.903993,499 228.5,499 C275.457216,499 317.034122,522.035844 342.546473,557.423288 Z M716.5,387 C664.861376,387 623,345.138624 623,293.5 C623,241.861376 664.861376,200 716.5,200 C768.138624,200 810,241.861376 810,293.5 C810,345.138624 768.138624,387 716.5,387 Z M610,2084 C529.366427,2084 464,2018.63357 464,1938 C464,1857.36643 529.366427,1792 610,1792 C690.633573,1792 756,1857.36643 756,1938 C756,2018.63357 690.633573,2084 610,2084 Z M59,483 C26.4151998,483 0,456.5848 0,424 C0,391.4152 26.4151998,365 59,365 C91.5848002,365 118,391.4152 118,424 C118,456.5848 91.5848002,483 59,483 Z" id="path-1"></path>
        <filter x="-10.6%" y="-4.0%" width="116.5%" height="111.1%" filterUnits="objectBoundingBox" id="filter-2">
            <feOffset dx="-30" dy="30" in="SourceAlpha" result="shadowOffsetOuter1"></feOffset>
            <feGaussianBlur stdDeviation="30" in="shadowOffsetOuter1" result="shadowBlurOuter1"></feGaussianBlur>
            <feColorMatrix values="0 0 0 0 0   0 0 0 0 0   0 0 0 0 0  0 0 0 0.5 0" type="matrix" in="shadowBlurOuter1"></feColorMatrix>
        </filter>
        <path d="M423.093082,697.630002 C400.958113,716.661992 372.163294,728.164729 340.681965,728.164729 C270.833063,728.164729 214.20934,671.538945 214.20934,601.6875 C214.20934,531.836055 270.833063,475.210271 340.681965,475.210271 C382.95102,475.210271 420.376931,495.946996 443.342155,527.802553 C480.47412,464.557969 549.195477,422.098837 627.833333,422.098837 C735.31977,422.098837 824.27932,501.424754 839.366419,604.729009 C867.099949,581.745335 902.706414,567.930233 941.539452,567.930233 C1030.0313,567.930233 1101.76812,639.66966 1101.76812,728.164729 C1101.76812,749.328151 1097.66536,769.533289 1090.21185,788.028112 C1196.20275,795.049338 1280,883.249023 1280,991.021318 C1280,1103.38023 1188.91842,1194.46512 1076.56361,1194.46512 C1070.90513,1194.46512 1065.30061,1194.23409 1059.75897,1193.78095 C1071.22343,1226.0813 1077.46377,1260.85548 1077.46377,1297.08721 C1077.46377,1428.12966 995.833011,1540.10552 880.649826,1584.93473 C912.183334,1608.94227 932.537842,1646.87988 932.537842,1689.57171 C932.537842,1762.15755 873.697532,1821 801.114332,1821 C728.531131,1821 669.690821,1762.15755 669.690821,1689.57171 C669.690821,1654.65461 683.306749,1622.91781 705.51853,1599.38154 C565.305346,1570.2196 459.953301,1445.957 459.953301,1297.08721 C459.953301,1160.48184 548.661832,1044.59621 671.613994,1003.89721 C638.450997,975.096467 617.481481,932.621442 617.481481,885.248547 C617.481481,872.986887 618.886322,861.053358 621.543823,849.600145 C527.695102,846.888649 449.005794,783.692425 423.093071,697.630012 Z M406.933172,320.33624 C360.450095,320.33624 322.768116,280.638171 322.768116,231.66812 C322.768116,182.69807 360.450095,143 406.933172,143 C453.416249,143 491.098229,182.69807 491.098229,231.66812 C491.098229,280.638171 453.416249,320.33624 406.933172,320.33624 Z M325.109501,106.776163 C295.777933,106.776163 272,82.9973638 272,53.6647287 C272,24.3320936 295.777933,0.553294574 325.109501,0.553294574 C354.441068,0.553294574 378.219002,24.3320936 378.219002,53.6647287 C378.219002,82.9973638 354.441068,106.776163 325.109501,106.776163 Z" id="path-3"></path>
        <filter x="-11.4%" y="-3.7%" width="117.7%" height="110.4%" filterUnits="objectBoundingBox" id="filter-4">
            <feOffset dx="-27" dy="27" in="SourceAlpha" result="shadowOffsetOuter1"></feOffset>
            <feGaussianBlur stdDeviation="27" in="shadowOffsetOuter1" result="shadowBlurOuter1"></feGaussianBlur>
            <feColorMatrix values="0 0 0 0 0   0 0 0 0 0   0 0 0 0 0  0 0 0 0.5 0" type="matrix" in="shadowBlurOuter1"></feColorMatrix>
        </filter>
        <path d="M568.973065,460.720449 C598.665352,410.138397 653.61785,376.180233 716.5,376.180233 C802.450692,376.180233 873.586504,439.623888 885.650786,522.245052 C907.827687,503.863062 936.30012,492.813953 967.352657,492.813953 C1038.11447,492.813953 1095.47826,550.190051 1095.47826,620.967054 C1095.47826,637.893236 1092.19752,654.052996 1086.23738,668.844873 C1170.99218,674.460342 1238,745.001102 1238,831.195736 C1238,921.058673 1165.16733,993.906977 1075.32367,993.906977 C1070.79891,993.906977 1066.3173,993.722205 1061.88597,993.359794 C1071.05344,1019.19312 1076.04348,1047.00497 1076.04348,1075.98256 C1076.04348,1212.36746 965.505395,1322.92926 829.149758,1322.92926 C692.794122,1322.92926 582.256039,1212.36746 582.256039,1075.98256 C582.256039,966.727671 653.191125,874.044116 751.508865,841.493674 C724.990332,818.459284 708.222222,784.488409 708.222222,746.600291 C708.222222,736.793603 709.345592,727.249349 711.470642,718.089244 C636.425242,715.920631 573.50195,665.377257 552.781042,596.545854 C535.080995,611.767341 512.055442,620.967054 486.881643,620.967054 C431.027512,620.967054 385.748792,575.678618 385.748792,519.8125 C385.748792,463.946382 431.027512,418.657946 486.881643,418.657946 C520.681764,418.657946 550.609102,435.242861 568.973065,460.720449 Z M645.062802,1495 C587.02221,1495 539.971014,1447.93871 539.971014,1389.88566 C539.971014,1331.83261 587.02221,1284.77132 645.062802,1284.77132 C703.103393,1284.77132 750.154589,1331.83261 750.154589,1389.88566 C750.154589,1447.93871 703.103393,1495 645.062802,1495 Z M386.468599,1001.94477 C363.013839,1001.94477 344,982.926847 344,959.467054 C344,936.007261 363.013839,916.989341 386.468599,916.989341 C409.923359,916.989341 428.937198,936.007261 428.937198,959.467054 C428.937198,982.926847 409.923359,1001.94477 386.468599,1001.94477 Z" id="path-5"></path>
        <filter x="-10.9%" y="-4.8%" width="116.9%" height="113.5%" filterUnits="objectBoundingBox" id="filter-6">
            <feOffset dx="-22" dy="22" in="SourceAlpha" result="shadowOffsetOuter1"></feOffset>
            <feGaussianBlur stdDeviation="21.5" in="shadowOffsetOuter1" result="shadowBlurOuter1"></feGaussianBlur>
            <feColorMatrix values="0 0 0 0 0   0 0 0 0 0   0 0 0 0 0  0 0 0 0.5 0" type="matrix" in="shadowBlurOuter1"></feColorMatrix>
        </filter>
    </defs>
    <g id="Page-1" stroke="none" stroke-width="1" fill="none" fill-rule="evenodd">
        <g id="background" transform="translate(-3799.000000, -3051.000000)">
            <g id="Combined-Shape-+-Combined-Shape-+-Combined-Shape-Mask">
                <g id="dots-accen-3" transform="translate(3886.000000, 3075.000000)">
                    <g id="Combined-Shape">
                        <use fill="black" fill-opacity="1" filter="url(#filter-2)" xlink:href="#path-1"></use>
                        <use fill="#470026" fill-rule="evenodd" xlink:href="#path-1"></use>
                    </g>
                    <g id="Combined-Shape">
                        <use fill="black" fill-opacity="1" filter="url(#filter-4)" xlink:href="#path-3"></use>
                        <use fill="#624805" fill-rule="evenodd" xlink:href="#path-3"></use>
                    </g>
                    <g id="Combined-Shape">
                        <use fill="black" fill-opacity="1" filter="url(#filter-6)" xlink:href="#path-5"></use>
                        <use fill="#960250" fill-rule="evenodd" xlink:href="#path-5"></use>
                    </g>
                </g>
            </g>
        </g>
    </g>
</svg>