<?xml version="1.0" encoding="UTF-8"?>
<svg width="1019px" height="746px" viewBox="0 0 1019 746" version="1.1" xmlns="http://www.w3.org/2000/svg" xmlns:xlink="http://www.w3.org/1999/xlink">
    <!-- Generator: Sketch 48.2 (47327) - http://www.bohemiancoding.com/sketch -->
    <title>logo-color-flat</title>
    <desc>Created with Sketch.</desc>
    <defs></defs>
    <g id="Page-1" stroke="none" stroke-width="1" fill="none" fill-rule="evenodd">
        <g id="logo-color-flat" fill-rule="nonzero">
            <path d="M190.4,247.803013 C156.3,244.303013 126.8,227.703013 105.5,200.303013 C87.5,177.103013 80,154.603013 80,124.303013 C80,85.3030128 95.1,53.6030128 125.9,28.0030128 C157.3,1.80301284 203.7,-6.19698716 244,7.50301284 C256.7,11.8030128 272.4,20.7030128 283,29.7030128 L286.5,32.6030128 L284,35.3030128 C282.6,36.8030128 280.3,38.9030128 278.8,39.9030128 L276.1,41.9030128 L267.9,35.8030128 C247.7,20.8030128 224.9,14.0030128 198.5,15.1030128 C169.8,16.3030128 146.1,26.8030128 125.4,47.5030128 C111.6,61.3030128 102,77.8030128 97,96.3030128 C94.2,106.503013 93.1,131.103013 95,142.603013 C99.4,170.403013 114.6,195.003013 138.4,213.003013 C157.5,227.403013 177.6,233.803013 203.5,233.803013 C229.7,233.803013 249,227.503013 269.1,212.303013 L276.3,206.903013 L281.1,211.103013 C283.8,213.403013 286,215.603013 286,215.903013 C286,218.103013 270.4,229.403013 259.3,235.003013 C238.8,245.603013 213.8,250.203013 190.4,247.803013 Z" id="Shape" fill="#7C0042"></path>
            <path d="M314,124 L314,3 L321,3 L328,3 L328,62.3 L328,121.6 L330.8,126.1 C334.7,132.2 342,138.4 349.9,142.3 C356.2,145.4 356.9,145.5 369,145.5 C381.2,145.5 381.7,145.4 388.2,142.2 C396.4,138.2 404.4,131 408.7,123.9 C414.9,113.6 415,112 415,54.8 L415,3 L422,3 L429,3 L429,54.3 C428.9,94 428.6,107.3 427.5,113.5 C423.6,135.5 406.7,153.3 384.9,158.5 C377.4,160.2 363.3,160.5 355.8,158.9 C348.7,157.4 337.5,152 332.3,147.5 L328,143.8 L328,194.4 L328,245 L321,245 L314,245 L314,124 Z" id="Shape" fill="#7C0042" transform="translate(371.500000, 124.000000) scale(1, -1) translate(-371.500000, -124.000000) "></path>
            <path d="M523.7,247.68833 C497.4,244.08833 472.8,225.88833 461.1,201.48833 C455.9,190.58833 454.1,183.48833 453.3,170.58833 C452.6,157.48833 454,147.38833 458.4,135.78833 C462.6,124.48833 467.6,117.08833 477.9,106.78833 C495.8,88.8883301 513.8,81.9883301 539.9,82.9883301 C550.7,83.3883301 553.9,83.9883301 562,86.6883301 C567.2,88.4883301 574.9,91.9883301 579,94.5883301 C586.1,98.9883301 605,116.48833 605,118.68833 C605,119.18833 601.9,120.68833 598,121.88833 L591,124.18833 L583.8,117.18833 C571.4,105.28833 560.6,99.8883301 544.9,97.7883301 C531,95.8883301 519.3,97.6883301 506.5,103.88833 C483.9,114.68833 470.1,134.58833 467.5,159.88833 C467.1,163.58833 467.1,167.98833 467.5,169.68833 L468.2,172.78833 L542.1,172.78833 L616,172.78833 L616,176.28833 C616,183.68833 612.9,195.48833 608.6,204.28833 C598.9,223.98833 579.2,239.98833 557.7,245.68833 C548.5,248.08833 533.1,248.98833 523.7,247.68833 Z M557.8,230.48833 C568.5,226.78833 575.5,222.28833 584.1,213.58833 C589.8,207.88833 592.8,203.88833 595.9,197.78833 C598.2,193.28833 600,188.88833 600,188.18833 C600,186.98833 589.8,186.78833 535.5,186.78833 C484.6,186.78833 471,187.08833 471,188.08833 C471.1,190.18833 474.7,197.48833 478.9,203.58833 C487.8,216.78833 503.1,227.78833 518.2,231.78833 C528.9,234.68833 547.6,234.08833 557.8,230.48833 Z" id="Shape" fill="#7C0042" transform="translate(534.564479, 165.589046) scale(1, -1) translate(-534.564479, -165.589046) "></path>
            <path d="M675.1,240.4 C666.6,235.5 656,225.4 652.2,218.3 L649.1,212.5 L649,227.8 L649,243 L642,243 L635,243 L635,169 L635,95 L642,95 L649,95 L649,140.4 C649,182.7 649.1,186.2 651,192.1 C655.8,207.7 671.8,225.2 685.3,229.6 C688.1,230.5 690.7,231.4 690.8,231.6 C691.7,232.3 684.3,244 683,244 C682.2,244 678.6,242.3 675.1,240.4 Z" id="Shape" fill="#7C0042" transform="translate(662.937833, 169.500000) scale(1, -1) translate(-662.937833, -169.500000) "></path>
            <path d="M745.1,240.4 C736.6,235.5 726,225.4 722.2,218.3 L719.1,212.5 L719,227.8 L719,243 L712,243 L705,243 L705,169 L705,95 L712,95 L719,95 L719,140.4 C719,182.7 719.1,186.2 721,192.1 C725.8,207.7 741.8,225.2 755.3,229.6 C758.1,230.5 760.7,231.4 760.8,231.6 C761.7,232.3 754.3,244 753,244 C752.2,244 748.6,242.3 745.1,240.4 Z" id="Shape" fill="#7C0042" transform="translate(732.937833, 169.500000) scale(1, -1) translate(-732.937833, -169.500000) "></path>
            <path d="M785.3,298.52732 C785.6,297.82732 797.6,272.02732 812,241.22732 C826.4,210.42732 838.8,183.82732 839.5,182.12732 C840.8,179.22732 840.3,177.82732 821.5,137.62732 L802.2,96.2273199 L809.3,95.9273199 C813.1,95.7273199 816.7,96.0273199 817.1,96.4273199 C818,97.3273199 912,298.32732 912,299.32732 C912,299.62732 908.6,299.72732 904.4,299.52732 L896.9,299.22732 L872.7,248.02732 C859.5,219.82732 848.5,196.92732 848.4,197.02732 C848.3,197.12732 837.4,220.22732 824.2,248.22732 L800.3,299.22732 L792.5,299.52732 C786.5,299.72732 784.9,299.52732 785.3,298.52732 Z" id="Shape" fill="#7C0042" transform="translate(848.621103, 197.747516) scale(1, -1) translate(-848.621103, -197.747516) "></path>
            <path d="M977.5,741.3 C957.9,736.4 930.9,726.4 912.8,717.4 C903.3,712.6 901,711.9 892.8,711 C846.9,706.2 679.8,703.8 599.1,706.8 C581.3,707.5 566.5,707.8 566.3,707.6 C566,707.3 568.7,705.7 572.1,703.9 C587.1,696.4 604.4,684.5 618.7,672.1 L625.8,665.9 L652.4,666 L679,666.1 L679,625.7 L679,585.3 L682.5,574.5 C696.9,530.6 696.5,477.3 681.4,433.8 L678,424.1 L678,396.3 C678,364.2 676.3,295.4 675.4,292.8 C674.9,291.1 676.6,291 707.6,291 L740.3,291 L739.6,304.3 C735.6,386.5 733,502.6 733,602.9 L733,666.3 L779.8,665.6 C805.5,665.3 829.3,664.7 832.6,664.4 L838.8,663.7 L833.4,657.1 C811.2,629.6 805,597.8 817,572.2 C827.3,550.1 848.9,532 896.2,505.7 C938.2,482.3 951.4,470.6 957.2,451.7 C958.9,446 959.2,443 958.8,434.4 C958.4,424.6 958.1,423.5 954,415.3 C944.1,395.2 919.5,377 882.6,362.5 C870.2,357.7 845.1,350.1 834.4,348 C831,347.3 827.8,346.5 827.1,346.1 C826.3,345.6 828.3,338.8 833.6,323.4 C837.8,311.4 841.4,301.4 841.5,301.2 C842,300.6 862.5,306.2 874.7,310.1 C948.8,334.2 1000.7,377 1015.7,426.5 C1018.1,434.6 1018.4,437 1018.4,451 C1018.4,465.2 1018.2,467.2 1015.7,474.5 C1010.4,490.5 1000.1,503.6 982.3,516.9 C972.9,524 959.7,532.1 913.7,559.2 C891.8,572.1 880.4,582.1 874,594.2 C863,614.7 873.1,639.3 900.7,658.9 C919.1,672.1 955.4,687.3 982,693.1 C987.8,694.3 992.9,695.7 993.4,696.1 C994.1,696.8 990.1,713 983.4,736.8 C981.9,741.9 981.5,742.3 977.5,741.3 Z" id="Shape" fill="#1D3D69" transform="translate(792.338602, 516.369435) scale(1, -1) translate(-792.338602, -516.369435) "></path>
            <path d="M2.4,738.9 C3.9,722.2 5.2,591.2 4.6,506.6 C4,415.8 2.6,334.9 1.4,326.7 L0.8,322.3 L17.7,322.9 C108.3,326.4 209.3,359.4 275.3,407.2 L287.1,415.8 L285.3,418.4 C280.7,425.4 270.9,443.5 267.5,451.6 L263.6,460.5 L256.2,453.5 C220.1,419.8 163.5,393.3 102.5,381.6 C93.3,379.9 63.2,375.6 60,375.6 C59.4,375.6 59,434.7 59,538.1 L59,700.6 L71.4,700.6 C103.4,700.6 147.3,696.9 173.9,692 C217.6,683.9 247.9,672 275.5,652.1 C277.5,650.7 277.9,651.2 285.7,662.9 C290.1,669.6 297,678.9 300.9,683.6 C304.8,688.3 308,692.4 308,692.7 C308,694.9 277.7,709.5 259.6,716.1 C202.5,736.7 135.4,745.6 36.1,745.6 L1.7,745.6 L2.4,738.9 Z" id="Shape" fill="#1D3D69" transform="translate(154.400000, 533.950000) scale(1, -1) translate(-154.400000, -533.950000) "></path>
            <path d="M443.5,695.3 C367,683.3 307.2,625.9 291.8,549.6 C289.8,539.8 289.5,535.4 289.5,515.3 C289.6,490.9 290.2,485.3 295.5,466.2 C308.8,418 343.6,375.8 388.5,353.3 C404.2,345.5 418.1,340.6 434.9,337.1 C446.5,334.6 449.4,334.4 470.5,334.4 C491.6,334.4 494.5,334.6 506.1,337.1 C576,352 630,403.5 646.8,471.3 C651,488.2 651.5,492.9 651.5,515.8 C651.5,535.2 651.2,539.9 649.2,549.6 C633.7,626.3 573.8,683.6 496.5,695.4 C485.4,697.1 454.6,697 443.5,695.3 Z" id="Shape" fill="#7C0042" style="mix-blend-mode: multiply;" transform="translate(470.500000, 515.513051) scale(1, -1) translate(-470.500000, -515.513051) "></path>
        </g>
    </g>
</svg>