<?xml version="1.0" standalone="no"?>
<!DOCTYPE svg PUBLIC "-//W3C//DTD SVG 20010904//EN"
 "http://www.w3.org/TR/2001/REC-SVG-20010904/DTD/svg10.dtd">
<svg version="1.0" xmlns="http://www.w3.org/2000/svg"
 width="216.000000pt" height="216.000000pt" viewBox="0 0 216.000000 216.000000"
 preserveAspectRatio="xMidYMid meet">
<metadata>
Created by potrace 1.11, written by Peter Selinger 2001-2013
</metadata>
<g transform="translate(0.000000,216.000000) scale(0.100000,-0.100000)"
fill="#000000" stroke="none">
<path d="M1045 2143 c-101 -18 -144 -32 -234 -76 -85 -41 -117 -63 -181 -126
-68 -68 -170 -214 -170 -246 0 -5 -25 -26 -56 -45 -69 -43 -178 -146 -232
-220 -70 -96 -130 -234 -157 -365 -15 -71 -12 -261 5 -346 57 -277 231 -507
473 -623 137 -66 230 -88 382 -88 112 0 237 29 342 77 l77 35 65 -22 c88 -31
268 -32 351 -4 200 68 337 200 406 390 53 148 49 322 -13 471 -43 102 -151
233 -233 281 -27 17 -30 22 -25 54 18 109 1 267 -41 379 -105 278 -365 468
-654 476 -47 1 -94 0 -105 -2z"/>
</g>
</svg>
