<?xml version="1.0" encoding="UTF-8"?>
<svg width="163px" height="188px" viewBox="0 0 163 188" version="1.1" xmlns="http://www.w3.org/2000/svg" xmlns:xlink="http://www.w3.org/1999/xlink">
    <!-- Generator: Sketch 55.2 (78181) - https://sketchapp.com -->
    <title>Fill-7 Copy</title>
    <desc>Created with Sketch.</desc>
    <g id="Page-1" stroke="none" stroke-width="1" fill="none" fill-rule="evenodd">
        <path d="M162.264,94.05 L68.313,188 L68.393,158.87 L68.413,147.24 L68.423,144.05 L68.423,142.76 L68.443,137.2 L68.443,136.45 L68.423,136.45 L68.423,129.67 C68.433,129.66 68.443,129.66 68.453,129.65 L68.473,124.42 C68.453,124.42 68.443,124.43 68.423,124.44 L68.423,116.8 C68.443,116.78 68.473,116.76 68.483,116.75 L68.503,111.09 C68.473,111.12 68.453,111.15 68.423,111.18 L68.423,96.08 C69.013,90 66.973,83.71 62.323,79.05 C54.053,70.79 40.593,70.79 32.323,79.05 C24.053,87.33 24.063,100.78 32.323,109.05 C39.053,115.78 49.183,117.03 57.183,112.83 C59.033,111.86 60.773,110.6 62.323,109.05 C62.343,109.02 62.363,109 62.393,108.98 L62.393,138.94 C56.053,141.05 49.283,141.84 42.563,141.16 C31.743,140.08 21.543,135.24 13.843,127.53 C2.593,116.28 -1.797,100.74 0.663,86.13 L0.693,85.91 C4.733,63.74 24.153,46.92 47.483,46.92 C58.983,46.92 69.523,51 77.743,57.78 C78.139,58.107 78.543,58.46 78.543,58.46 C81.613,61.126 83.663,63.57 84.513,64.62 C86.718,67.347 88.193,69.79 89.043,71.31 C90.17,73.328 91.701,76.42 92.931,80.394 C94.324,84.894 94.851,88.981 95.004,92.28 L95.004,126.01 L126.964,94.05 L95.004,62.1 L95.004,71.33 C93.609,68.466 91.691,65.164 89.044,61.77 C83.987,55.288 78.381,51.178 74.294,48.7 C73.387,48.156 72.412,47.606 71.368,47.064 C70.316,46.517 69.298,46.031 68.324,45.6 L68.324,40.81 L68.334,0.12 L162.264,94.05" id="Fill-7-Copy" fill="#eff4fb" fill-rule="nonzero"></path>
    </g>
</svg>
