<?xml version="1.0" encoding="UTF-8"?>
<svg width="1147px" height="495px" viewBox="0 0 1147 495" version="1.1" xmlns="http://www.w3.org/2000/svg" xmlns:xlink="http://www.w3.org/1999/xlink">
    <!-- Generator: Sketch 43.2 (39069) - http://www.bohemiancoding.com/sketch -->
    <title>dot-gr-big</title>
    <desc>Created with Sketch.</desc>
    <defs>
        <path d="M1097,495 C1069.38576,495 1047,472.614237 1047,445 C1047,417.385763 1069.38576,395 1097,395 C1124.61424,395 1147,417.385763 1147,445 C1147,472.614237 1124.61424,495 1097,495 Z M987,495 C959.385763,495 937,472.614237 937,445 C937,417.385763 959.385763,395 987,395 C1014.61424,395 1037,417.385763 1037,445 C1037,472.614237 1014.61424,495 987,495 Z M877,495 C849.385763,495 827,472.614237 827,445 C827,417.385763 849.385763,395 877,395 C904.614237,395 927,417.385763 927,445 C927,472.614237 904.614237,495 877,495 Z M547,495 C519.385763,495 497,472.614237 497,445 C497,417.385763 519.385763,395 547,395 C574.614237,395 597,417.385763 597,445 C597,472.614237 574.614237,495 547,495 Z M437,495 C409.385763,495 387,472.614237 387,445 C387,417.385763 409.385763,395 437,395 C464.614237,395 487,417.385763 487,445 C487,472.614237 464.614237,495 437,495 Z M327,495 C299.385763,495 277,472.614237 277,445 C277,417.385763 299.385763,395 327,395 C354.614237,395 377,417.385763 377,445 C377,472.614237 354.614237,495 327,495 Z M217,495 C189.385763,495 167,472.614237 167,445 C167,417.385763 189.385763,395 217,395 C244.614237,395 267,417.385763 267,445 C267,472.614237 244.614237,495 217,495 Z M930,396 C902.385763,396 880,373.614237 880,346 C880,318.385763 902.385763,296 930,296 C957.614237,296 980,318.385763 980,346 C980,373.614237 957.614237,396 930,396 Z M820,396 C792.385763,396 770,373.614237 770,346 C770,318.385763 792.385763,296 820,296 C847.614237,296 870,318.385763 870,346 C870,373.614237 847.614237,396 820,396 Z M710,396 C682.385763,396 660,373.614237 660,346 C660,318.385763 682.385763,296 710,296 C737.614237,296 760,318.385763 760,346 C760,373.614237 737.614237,396 710,396 Z M600,396 C572.385763,396 550,373.614237 550,346 C550,318.385763 572.385763,296 600,296 C627.614237,296 650,318.385763 650,346 C650,373.614237 627.614237,396 600,396 Z M490,396 C462.385763,396 440,373.614237 440,346 C440,318.385763 462.385763,296 490,296 C517.614237,296 540,318.385763 540,346 C540,373.614237 517.614237,396 490,396 Z M380,396 C352.385763,396 330,373.614237 330,346 C330,318.385763 352.385763,296 380,296 C407.614237,296 430,318.385763 430,346 C430,373.614237 407.614237,396 380,396 Z M270,396 C242.385763,396 220,373.614237 220,346 C220,318.385763 242.385763,296 270,296 C297.614237,296 320,318.385763 320,346 C320,373.614237 297.614237,396 270,396 Z M160,396 C132.385763,396 110,373.614237 110,346 C110,318.385763 132.385763,296 160,296 C187.614237,296 210,318.385763 210,346 C210,373.614237 187.614237,396 160,396 Z M50,396 C22.3857625,396 0,373.614237 0,346 C0,318.385763 22.3857625,296 50,296 C77.6142375,296 100,318.385763 100,346 C100,373.614237 77.6142375,396 50,396 Z M1095,298 C1067.38576,298 1045,275.614237 1045,248 C1045,220.385763 1067.38576,198 1095,198 C1122.61424,198 1145,220.385763 1145,248 C1145,275.614237 1122.61424,298 1095,298 Z M985,298 C957.385763,298 935,275.614237 935,248 C935,220.385763 957.385763,198 985,198 C1012.61424,198 1035,220.385763 1035,248 C1035,275.614237 1012.61424,298 985,298 Z M875,298 C847.385763,298 825,275.614237 825,248 C825,220.385763 847.385763,198 875,198 C902.614237,198 925,220.385763 925,248 C925,275.614237 902.614237,298 875,298 Z M765,298 C737.385763,298 715,275.614237 715,248 C715,220.385763 737.385763,198 765,198 C792.614237,198 815,220.385763 815,248 C815,275.614237 792.614237,298 765,298 Z M655,298 C627.385763,298 605,275.614237 605,248 C605,220.385763 627.385763,198 655,198 C682.614237,198 705,220.385763 705,248 C705,275.614237 682.614237,298 655,298 Z M545,298 C517.385763,298 495,275.614237 495,248 C495,220.385763 517.385763,198 545,198 C572.614237,198 595,220.385763 595,248 C595,275.614237 572.614237,298 545,298 Z M435,298 C407.385763,298 385,275.614237 385,248 C385,220.385763 407.385763,198 435,198 C462.614237,198 485,220.385763 485,248 C485,275.614237 462.614237,298 435,298 Z M325,298 C297.385763,298 275,275.614237 275,248 C275,220.385763 297.385763,198 325,198 C352.614237,198 375,220.385763 375,248 C375,275.614237 352.614237,298 325,298 Z M215,298 C187.385763,298 165,275.614237 165,248 C165,220.385763 187.385763,198 215,198 C242.614237,198 265,220.385763 265,248 C265,275.614237 242.614237,298 215,298 Z M1040,199 C1012.38576,199 990,176.614237 990,149 C990,121.385763 1012.38576,99 1040,99 C1067.61424,99 1090,121.385763 1090,149 C1090,176.614237 1067.61424,199 1040,199 Z M930,199 C902.385763,199 880,176.614237 880,149 C880,121.385763 902.385763,99 930,99 C957.614237,99 980,121.385763 980,149 C980,176.614237 957.614237,199 930,199 Z M820,199 C792.385763,199 770,176.614237 770,149 C770,121.385763 792.385763,99 820,99 C847.614237,99 870,121.385763 870,149 C870,176.614237 847.614237,199 820,199 Z M710,199 C682.385763,199 660,176.614237 660,149 C660,121.385763 682.385763,99 710,99 C737.614237,99 760,121.385763 760,149 C760,176.614237 737.614237,199 710,199 Z M600,199 C572.385763,199 550,176.614237 550,149 C550,121.385763 572.385763,99 600,99 C627.614237,99 650,121.385763 650,149 C650,176.614237 627.614237,199 600,199 Z M490,199 C462.385763,199 440,176.614237 440,149 C440,121.385763 462.385763,99 490,99 C517.614237,99 540,121.385763 540,149 C540,176.614237 517.614237,199 490,199 Z M380,199 C352.385763,199 330,176.614237 330,149 C330,121.385763 352.385763,99 380,99 C407.614237,99 430,121.385763 430,149 C430,176.614237 407.614237,199 380,199 Z M270,199 C242.385763,199 220,176.614237 220,149 C220,121.385763 242.385763,99 270,99 C297.614237,99 320,121.385763 320,149 C320,176.614237 297.614237,199 270,199 Z M160,199 C132.385763,199 110,176.614237 110,149 C110,121.385763 132.385763,99 160,99 C187.614237,99 210,121.385763 210,149 C210,176.614237 187.614237,199 160,199 Z M50,199 C22.3857625,199 0,176.614237 0,149 C0,121.385763 22.3857625,99 50,99 C77.6142375,99 100,121.385763 100,149 C100,176.614237 77.6142375,199 50,199 Z M877,100 C849.385763,100 827,77.6142375 827,50 C827,22.3857625 849.385763,0 877,0 C904.614237,0 927,22.3857625 927,50 C927,77.6142375 904.614237,100 877,100 Z M767,100 C739.385763,100 717,77.6142375 717,50 C717,22.3857625 739.385763,0 767,0 C794.614237,0 817,22.3857625 817,50 C817,77.6142375 794.614237,100 767,100 Z M657,100 C629.385763,100 607,77.6142375 607,50 C607,22.3857625 629.385763,0 657,0 C684.614237,0 707,22.3857625 707,50 C707,77.6142375 684.614237,100 657,100 Z M547,100 C519.385763,100 497,77.6142375 497,50 C497,22.3857625 519.385763,0 547,0 C574.614237,0 597,22.3857625 597,50 C597,77.6142375 574.614237,100 547,100 Z M437,100 C409.385763,100 387,77.6142375 387,50 C387,22.3857625 409.385763,0 437,0 C464.614237,0 487,22.3857625 487,50 C487,77.6142375 464.614237,100 437,100 Z M217,100 C189.385763,100 167,77.6142375 167,50 C167,22.3857625 189.385763,0 217,0 C244.614237,0 267,22.3857625 267,50 C267,77.6142375 244.614237,100 217,100 Z M107,100 C79.3857625,100 57,77.6142375 57,50 C57,22.3857625 79.3857625,0 107,0 C134.614237,0 157,22.3857625 157,50 C157,77.6142375 134.614237,100 107,100 Z" id="path-1"></path>
        <linearGradient x1="50%" y1="0%" x2="50%" y2="100%" id="linearGradient-3">
            <stop stop-color="#1C3B66" offset="0%"></stop>
            <stop stop-color="#B70463" offset="100%"></stop>
        </linearGradient>
        <rect id="path-4" x="0" y="0" width="1147" height="495"></rect>
    </defs>
    <g id="Page-1" stroke="none" stroke-width="1" fill="none" fill-rule="evenodd">
        <g id="dots-group-bog">
            <g id="dot-gr-big">
                <mask id="mask-2" fill="white">
                    <use xlink:href="#path-1"></use>
                </mask>
                <use id="Mask" fill="#D8D8D8" xlink:href="#path-1"></use>
                <g id="Rectangle-3" mask="url(#mask-2)">
                    <use fill="url(#linearGradient-3)" fill-rule="evenodd" xlink:href="#path-4"></use>
                    <rect stroke="#979797" stroke-width="1" x="0.5" y="0.5" width="1146" height="494"></rect>
                </g>
            </g>
        </g>
    </g>
</svg>