<?xml version="1.0" encoding="UTF-8"?>
<svg width="1137px" height="1556px" viewBox="0 0 1137 1556" version="1.1" xmlns="http://www.w3.org/2000/svg" xmlns:xlink="http://www.w3.org/1999/xlink">
    <!-- Generator: Sketch 48.2 (47327) - http://www.bohemiancoding.com/sketch -->
    <title>dots-accent-4</title>
    <desc>Created with Sketch.</desc>
    <defs>
        <path d="M817.162,916.50055 C934.908597,924.300233 1028,1022.27879 1028,1142 C1028,1266.81635 926.816353,1368 802,1368 C683.179099,1368 585.775076,1276.30344 576.691783,1159.81418 C546.646526,1184.31081 508.288685,1199 466.5,1199 C370.126311,1199 292,1120.87369 292,1024.5 C292,1010.87887 293.560655,997.622245 296.512905,984.899192 C168.57699,981.202977 66,876.330559 66,747.5 C66,616.332372 172.332372,510 303.5,510 C422.908009,510 521.734271,598.120932 538.494716,712.878727 C569.304236,687.34681 608.859898,672 652,672 C750.306685,672 830,751.693315 830,850 C830,873.509852 825.442197,895.955171 817.162,916.50055 Z M302.5,187 C250.861376,187 209,145.138624 209,93.5 C209,41.8613759 250.861376,0 302.5,0 C354.138624,0 396,41.8613759 396,93.5 C396,145.138624 354.138624,187 302.5,187 Z M873.5,510 C795.903993,510 733,447.096007 733,369.5 C733,291.903993 795.903993,229 873.5,229 C951.096007,229 1014,291.903993 1014,369.5 C1014,447.096007 951.096007,510 873.5,510 Z M969,731 C936.4152,731 910,704.5848 910,672 C910,639.4152 936.4152,613 969,613 C1001.5848,613 1028,639.4152 1028,672 C1028,704.5848 1001.5848,731 969,731 Z" id="path-1"></path>
        <filter x="-7.8%" y="-5.5%" width="121.8%" height="115.4%" filterUnits="objectBoundingBox" id="filter-2">
            <feOffset dx="30" dy="30" in="SourceAlpha" result="shadowOffsetOuter1"></feOffset>
            <feGaussianBlur stdDeviation="30" in="shadowOffsetOuter1" result="shadowBlurOuter1"></feGaussianBlur>
            <feColorMatrix values="0 0 0 0 0   0 0 0 0 0   0 0 0 0 0  0 0 0 0.5 0" type="matrix" in="shadowBlurOuter1"></feColorMatrix>
        </filter>
        <path d="M767.649028,968.211933 C782.950367,961.639728 799.809004,958 817.517713,958 C887.366615,958 943.990338,1014.62578 943.990338,1084.47723 C943.990338,1120.13106 929.23803,1152.33917 905.504631,1175.33015 C898.162038,1281.01252 810.108166,1364.46512 702.563607,1364.46512 C595.605662,1364.46512 507.926357,1281.92044 499.74993,1177.05753 C472.704361,1199.10925 438.176127,1212.33236 400.559581,1212.33236 C313.807742,1212.33236 243.481481,1142.00354 243.481481,1055.24855 C243.481481,1042.98689 244.886322,1031.05336 247.543823,1019.60014 C132.380897,1016.27284 40.0450886,921.867334 40.0450886,805.894864 C40.0450886,709.979479 103.204328,628.816262 190.20048,601.728973 C176.375685,567.315485 168.768116,529.734665 168.768116,490.376938 C168.768116,325.31872 302.569369,191.512597 467.621578,191.512597 C483.767551,191.512597 499.61447,192.793044 515.066336,195.257937 C516.081788,149.655381 553.365461,113 599.210145,113 C645.693222,113 683.375201,150.683351 683.375201,197.16812 C683.375201,221.501635 673.049441,243.423352 656.54071,258.790329 C723.637904,313.595183 766.47504,396.983304 766.47504,490.376938 C766.47504,599.418391 708.080918,694.82067 620.859202,747.016168 C683.138514,768.98759 727.768116,828.364069 727.768116,898.164729 C727.768116,919.328151 723.665359,939.533289 716.211848,958.028112 C734.087337,959.21225 751.331568,962.705364 767.649028,968.211933 Z M853.154589,133.222868 C823.823022,133.222868 800.045089,109.444069 800.045089,80.1114341 C800.045089,50.778799 823.823022,27 853.154589,27 C882.486157,27 906.26409,50.778799 906.26409,80.1114341 C906.26409,109.444069 882.486157,133.222868 853.154589,133.222868 Z" id="path-3"></path>
        <filter x="-7.5%" y="-5.0%" width="120.9%" height="114.1%" filterUnits="objectBoundingBox" id="filter-4">
            <feOffset dx="27" dy="27" in="SourceAlpha" result="shadowOffsetOuter1"></feOffset>
            <feGaussianBlur stdDeviation="27" in="shadowOffsetOuter1" result="shadowBlurOuter1"></feGaussianBlur>
            <feColorMatrix values="0 0 0 0 0   0 0 0 0 0   0 0 0 0 0  0 0 0 0.5 0" type="matrix" in="shadowBlurOuter1"></feColorMatrix>
        </filter>
        <path d="M541.237381,898.844873 C625.992179,904.460342 693,975.001102 693,1061.19574 C693,1151.05867 620.167327,1223.90698 530.323671,1223.90698 C444.795583,1223.90698 374.683509,1157.88901 368.145293,1074.02126 C346.518514,1091.65788 318.90828,1102.23353 288.828502,1102.23353 C219.458069,1102.23353 163.222222,1045.98561 163.222222,976.600291 C163.222222,966.793603 164.345592,957.249349 166.470642,948.089244 C74.3815048,945.428113 0.54589372,869.924036 0.54589372,777.171027 C0.54589372,700.459368 51.0506884,635.546268 120.616484,613.882268 C109.561594,586.358886 103.478261,556.302321 103.478261,524.824612 C103.478261,392.813573 210.471391,285.797481 342.454106,285.797481 C474.436821,285.797481 581.429952,392.813573 581.429952,524.824612 C581.429952,612.0343 534.735546,688.335584 464.98938,730.080746 C514.790547,747.653154 550.478261,795.141553 550.478261,850.967054 C550.478261,867.893236 547.197523,884.052996 541.237381,898.844873 Z M861.847826,1195.43023 C824.677995,1195.43023 794.545894,1165.29166 794.545894,1128.11386 C794.545894,1090.93605 824.677995,1060.79748 861.847826,1060.79748 C899.017657,1060.79748 929.149758,1090.93605 929.149758,1128.11386 C929.149758,1165.29166 899.017657,1195.43023 861.847826,1195.43023 Z M693.678744,525.309109 C637.824613,525.309109 592.545894,480.020672 592.545894,424.154554 C592.545894,368.288437 637.824613,323 693.678744,323 C749.532875,323 794.811594,368.288437 794.811594,424.154554 C794.811594,480.020672 749.532875,525.309109 693.678744,525.309109 Z M978.014493,1464.95543 C954.559733,1464.95543 935.545894,1445.93751 935.545894,1422.47771 C935.545894,1399.01792 954.559733,1380 978.014493,1380 C1001.46925,1380 1020.48309,1399.01792 1020.48309,1422.47771 C1020.48309,1445.93751 1001.46925,1464.95543 978.014493,1464.95543 Z" id="path-5"></path>
        <filter x="-5.2%" y="-4.5%" width="114.8%" height="112.8%" filterUnits="objectBoundingBox" id="filter-6">
            <feOffset dx="22" dy="22" in="SourceAlpha" result="shadowOffsetOuter1"></feOffset>
            <feGaussianBlur stdDeviation="21.5" in="shadowOffsetOuter1" result="shadowBlurOuter1"></feGaussianBlur>
            <feColorMatrix values="0 0 0 0 0   0 0 0 0 0   0 0 0 0 0  0 0 0 0.5 0" type="matrix" in="shadowBlurOuter1"></feColorMatrix>
        </filter>
    </defs>
    <g id="Page-1" stroke="none" stroke-width="1" fill="none" fill-rule="evenodd">
        <g id="background" transform="translate(-2280.000000, -3077.000000)">
            <g id="Combined-Shape-+-Combined-Shape-+-Combined-Shape-Mask">
                <g id="dots-accent-4" transform="translate(2300.000000, 3105.000000)">
                    <g id="Combined-Shape">
                        <use fill="black" fill-opacity="1" filter="url(#filter-2)" xlink:href="#path-1"></use>
                        <use fill="#470026" fill-rule="evenodd" xlink:href="#path-1"></use>
                    </g>
                    <g id="Combined-Shape">
                        <use fill="black" fill-opacity="1" filter="url(#filter-4)" xlink:href="#path-3"></use>
                        <use fill="#1D3D68" fill-rule="evenodd" xlink:href="#path-3"></use>
                    </g>
                    <g id="Combined-Shape">
                        <use fill="black" fill-opacity="1" filter="url(#filter-6)" xlink:href="#path-5"></use>
                        <use fill="#960250" fill-rule="evenodd" xlink:href="#path-5"></use>
                    </g>
                </g>
            </g>
        </g>
    </g>
</svg>