<?xml version="1.0" encoding="UTF-8"?>
<svg width="1087px" height="2270px" viewBox="0 0 1087 2270" version="1.1" xmlns="http://www.w3.org/2000/svg" xmlns:xlink="http://www.w3.org/1999/xlink">
    <!-- Generator: Sketch 48.2 (47327) - http://www.bohemiancoding.com/sketch -->
    <title>dots-accent</title>
    <desc>Created with Sketch.</desc>
    <defs>
        <path d="M320.051528,816.07983 C295.461517,837.221933 263.472997,850 228.5,850 C150.903993,850 88,787.096007 88,709.5 C88,631.903993 150.903993,569 228.5,569 C275.457216,569 317.034122,592.035844 342.546473,627.423288 C372.172509,576.964927 419.899967,538.416657 476.809478,520.697847 C461.451342,482.46887 453,440.721394 453,397 C453,316.584003 481.590556,242.845688 529.161287,185.395437 C485.807005,177.265931 453,139.214209 453,93.5 C453,41.8613759 494.861376,0 546.5,0 C598.138624,0 640,41.8613759 640,93.5 C640,95.1142823 639.959091,96.7190098 639.878252,98.3132021 C683.719675,76.9724851 732.961676,65 785,65 C968.358537,65 1117,213.641463 1117,397 C1117,518.131087 1052.12925,624.110798 955.233568,682.09331 C1024.42042,706.500746 1074,772.460408 1074,850 C1074,873.509852 1069.4422,895.955171 1061.162,916.50055 C1178.9086,924.300233 1272,1022.27879 1272,1142 C1272,1266.81635 1170.81635,1368 1046,1368 C1039.71393,1368 1033.4878,1367.74336 1027.33152,1367.23998 C1040.06753,1403.12154 1047,1441.75119 1047,1482 C1047,1671.43367 893.433669,1825 704,1825 C514.566331,1825 361,1671.43367 361,1482 C361,1330.24893 459.547402,1201.51484 596.136476,1156.30346 C559.295294,1124.30953 536,1077.12522 536,1024.5 C536,1010.87887 537.560655,997.622245 540.512905,984.899192 C436.255202,981.887068 348.838279,911.684158 320.051515,816.079841 Z M610,2154 C529.366427,2154 464,2088.63357 464,2008 C464,1927.36643 529.366427,1862 610,1862 C690.633573,1862 756,1927.36643 756,2008 C756,2088.63357 690.633573,2154 610,2154 Z M59,553 C26.4151998,553 0,526.5848 0,494 C0,461.4152 26.4151998,435 59,435 C91.5848002,435 118,461.4152 118,494 C118,526.5848 91.5848002,553 59,553 Z" id="path-1"></path>
        <filter x="-10.6%" y="-3.5%" width="116.5%" height="109.7%" filterUnits="objectBoundingBox" id="filter-2">
            <feOffset dx="-30" dy="30" in="SourceAlpha" result="shadowOffsetOuter1"></feOffset>
            <feGaussianBlur stdDeviation="30" in="shadowOffsetOuter1" result="shadowBlurOuter1"></feGaussianBlur>
            <feColorMatrix values="0 0 0 0 0   0 0 0 0 0   0 0 0 0 0  0 0 0 0.5 0" type="matrix" in="shadowBlurOuter1"></feColorMatrix>
        </filter>
        <path d="M443.342155,597.802553 C470.010358,552.380249 512.972756,517.679336 564.20048,501.728973 C550.375685,467.315485 542.768116,429.734665 542.768116,390.376938 C542.768116,317.986956 568.504221,251.608182 611.325538,199.891823 C572.299703,192.573691 542.768116,158.319767 542.768116,117.16812 C542.768116,70.683351 580.450095,33 626.933172,33 C673.416249,33 711.098229,70.683351 711.098229,117.16812 C711.098229,118.621287 711.061404,120.065853 710.988636,121.500935 C750.452977,102.290154 794.778707,91.5125969 841.621578,91.5125969 C1006.67379,91.5125969 1140.47504,225.31872 1140.47504,390.376938 C1140.47504,499.418391 1082.08092,594.82067 994.859202,647.016168 C1057.13851,668.98759 1101.76812,728.364069 1101.76812,798.164729 C1101.76812,819.328151 1097.66536,839.533289 1090.21185,858.028112 C1196.20275,865.049338 1280,953.249023 1280,1061.02132 C1280,1173.38023 1188.91842,1264.46512 1076.56361,1264.46512 C1070.90513,1264.46512 1065.30061,1264.23409 1059.75897,1263.78095 C1071.22343,1296.0813 1077.46377,1330.85548 1077.46377,1367.08721 C1077.46377,1498.12966 995.833011,1610.10552 880.649826,1654.93473 C912.183334,1678.94227 932.537842,1716.87988 932.537842,1759.57171 C932.537842,1832.15755 873.697532,1891 801.114332,1891 C728.531131,1891 669.690821,1832.15755 669.690821,1759.57171 C669.690821,1724.65461 683.306749,1692.91781 705.51853,1669.38154 C565.305346,1640.2196 459.953301,1515.957 459.953301,1367.08721 C459.953301,1230.48184 548.661832,1114.59621 671.613994,1073.89721 C638.450997,1045.09647 617.481481,1002.62144 617.481481,955.248547 C617.481481,942.986887 618.886322,931.053358 621.543823,919.600145 C527.695102,916.888649 449.005794,853.692425 423.093071,767.630012 C400.958113,786.661992 372.163294,798.164729 340.681965,798.164729 C270.833063,798.164729 214.20934,741.538945 214.20934,671.6875 C214.20934,601.836055 270.833063,545.210271 340.681965,545.210271 C382.95102,545.210271 420.376931,565.946996 443.342155,597.802553 Z M325.109501,176.776163 C295.777933,176.776163 272,152.997364 272,123.664729 C272,94.3320936 295.777933,70.5532946 325.109501,70.5532946 C354.441068,70.5532946 378.219002,94.3320936 378.219002,123.664729 C378.219002,152.997364 354.441068,176.776163 325.109501,176.776163 Z" id="path-3"></path>
        <filter x="-11.4%" y="-3.6%" width="117.7%" height="110.2%" filterUnits="objectBoundingBox" id="filter-4">
            <feOffset dx="-27" dy="27" in="SourceAlpha" result="shadowOffsetOuter1"></feOffset>
            <feGaussianBlur stdDeviation="27" in="shadowOffsetOuter1" result="shadowBlurOuter1"></feGaussianBlur>
            <feColorMatrix values="0 0 0 0 0   0 0 0 0 0   0 0 0 0 0  0 0 0 0.5 0" type="matrix" in="shadowBlurOuter1"></feColorMatrix>
        </filter>
        <path d="M552.781052,666.545846 C535.080995,681.767341 512.055442,690.967054 486.881643,690.967054 C431.027512,690.967054 385.748792,645.678618 385.748792,589.8125 C385.748792,533.946382 431.027512,488.657946 486.881643,488.657946 C520.681764,488.657946 550.609102,505.242861 568.973065,530.720449 C590.298086,494.392384 624.652633,466.639124 665.616484,453.882268 C654.561594,426.358886 648.478261,396.302321 648.478261,364.824612 C648.478261,306.928211 669.057937,253.839483 703.29967,212.477529 C672.092965,206.624599 648.478261,179.228834 648.478261,146.316376 C648.478261,109.138568 678.610362,79 715.780193,79 C752.950024,79 783.082126,109.138568 783.082126,146.316376 C783.082126,147.478597 783.052679,148.633938 782.994491,149.781695 C814.551844,134.417206 849.996569,125.797481 887.454106,125.797481 C1019.43682,125.797481 1126.42995,232.813573 1126.42995,364.824612 C1126.42995,452.0343 1079.73555,528.335584 1009.98938,570.080746 C1059.79055,587.653154 1095.47826,635.141553 1095.47826,690.967054 C1095.47826,707.893236 1092.19752,724.052996 1086.23738,738.844873 C1170.99218,744.460342 1238,815.001102 1238,901.195736 C1238,991.058673 1165.16733,1063.90698 1075.32367,1063.90698 C1070.79891,1063.90698 1066.3173,1063.72221 1061.88597,1063.35979 C1071.05344,1089.19312 1076.04348,1117.00497 1076.04348,1145.98256 C1076.04348,1282.36746 965.505395,1392.92926 829.149758,1392.92926 C692.794122,1392.92926 582.256039,1282.36746 582.256039,1145.98256 C582.256039,1036.72767 653.191125,944.044116 751.508865,911.493674 C724.990332,888.459284 708.222222,854.488409 708.222222,816.600291 C708.222222,806.793603 709.345592,797.249349 711.470642,788.089244 C636.425242,785.920631 573.50195,735.377257 552.781042,666.545854 Z M645.062802,1565 C587.02221,1565 539.971014,1517.93871 539.971014,1459.88566 C539.971014,1401.83261 587.02221,1354.77132 645.062802,1354.77132 C703.103393,1354.77132 750.154589,1401.83261 750.154589,1459.88566 C750.154589,1517.93871 703.103393,1565 645.062802,1565 Z M386.468599,1071.94477 C363.013839,1071.94477 344,1052.92685 344,1029.46705 C344,1006.00726 363.013839,986.989341 386.468599,986.989341 C409.923359,986.989341 428.937198,1006.00726 428.937198,1029.46705 C428.937198,1052.92685 409.923359,1071.94477 386.468599,1071.94477 Z" id="path-5"></path>
        <filter x="-10.9%" y="-3.6%" width="116.9%" height="110.2%" filterUnits="objectBoundingBox" id="filter-6">
            <feOffset dx="-22" dy="22" in="SourceAlpha" result="shadowOffsetOuter1"></feOffset>
            <feGaussianBlur stdDeviation="21.5" in="shadowOffsetOuter1" result="shadowBlurOuter1"></feGaussianBlur>
            <feColorMatrix values="0 0 0 0 0   0 0 0 0 0   0 0 0 0 0  0 0 0 0.5 0" type="matrix" in="shadowBlurOuter1"></feColorMatrix>
        </filter>
    </defs>
    <g id="Page-1" stroke="none" stroke-width="1" fill="none" fill-rule="evenodd">
        <g id="background" transform="translate(-3799.000000, -737.000000)">
            <g id="Combined-Shape-+-Combined-Shape-+-Combined-Shape-Mask">
                <g id="dots-accent" transform="translate(3886.000000, 765.000000)">
                    <g id="Combined-Shape">
                        <use fill="black" fill-opacity="1" filter="url(#filter-2)" xlink:href="#path-1"></use>
                        <use fill="#470026" fill-rule="evenodd" xlink:href="#path-1"></use>
                    </g>
                    <g id="Combined-Shape">
                        <use fill="black" fill-opacity="1" filter="url(#filter-4)" xlink:href="#path-3"></use>
                        <use fill="#1D3D68" fill-rule="evenodd" xlink:href="#path-3"></use>
                    </g>
                    <g id="Combined-Shape">
                        <use fill="black" fill-opacity="1" filter="url(#filter-6)" xlink:href="#path-5"></use>
                        <use fill="#960250" fill-rule="evenodd" xlink:href="#path-5"></use>
                    </g>
                </g>
            </g>
        </g>
    </g>
</svg>