<?xml version="1.0" encoding="UTF-8"?>
<svg width="980px" height="495px" viewBox="0 0 980 495" version="1.1" xmlns="http://www.w3.org/2000/svg" xmlns:xlink="http://www.w3.org/1999/xlink">
    <!-- Generator: Sketch 43.2 (39069) - http://www.bohemiancoding.com/sketch -->
    <title>dots-group-med</title>
    <desc>Created with Sketch.</desc>
    <defs>
        <path d="M382,495 C354.385763,495 332,472.614237 332,445 C332,417.385763 354.385763,395 382,395 C409.614237,395 432,417.385763 432,445 C432,472.614237 409.614237,495 382,495 Z M272,495 C244.385763,495 222,472.614237 222,445 C222,417.385763 244.385763,395 272,395 C299.614237,395 322,417.385763 322,445 C322,472.614237 299.614237,495 272,495 Z M162,495 C134.385763,495 112,472.614237 112,445 C112,417.385763 134.385763,395 162,395 C189.614237,395 212,417.385763 212,445 C212,472.614237 189.614237,495 162,495 Z M765,396 C737.385763,396 715,373.614237 715,346 C715,318.385763 737.385763,296 765,296 C792.614237,296 815,318.385763 815,346 C815,373.614237 792.614237,396 765,396 Z M655,396 C627.385763,396 605,373.614237 605,346 C605,318.385763 627.385763,296 655,296 C682.614237,296 705,318.385763 705,346 C705,373.614237 682.614237,396 655,396 Z M545,396 C517.385763,396 495,373.614237 495,346 C495,318.385763 517.385763,296 545,296 C572.614237,296 595,318.385763 595,346 C595,373.614237 572.614237,396 545,396 Z M435,396 C407.385763,396 385,373.614237 385,346 C385,318.385763 407.385763,296 435,296 C462.614237,296 485,318.385763 485,346 C485,373.614237 462.614237,396 435,396 Z M325,396 C297.385763,396 275,373.614237 275,346 C275,318.385763 297.385763,296 325,296 C352.614237,296 375,318.385763 375,346 C375,373.614237 352.614237,396 325,396 Z M215,396 C187.385763,396 165,373.614237 165,346 C165,318.385763 187.385763,296 215,296 C242.614237,296 265,318.385763 265,346 C265,373.614237 242.614237,396 215,396 Z M105,396 C77.3857625,396 55,373.614237 55,346 C55,318.385763 77.3857625,296 105,296 C132.614237,296 155,318.385763 155,346 C155,373.614237 132.614237,396 105,396 Z M930,298 C902.385763,298 880,275.614237 880,248 C880,220.385763 902.385763,198 930,198 C957.614237,198 980,220.385763 980,248 C980,275.614237 957.614237,298 930,298 Z M820,298 C792.385763,298 770,275.614237 770,248 C770,220.385763 792.385763,198 820,198 C847.614237,198 870,220.385763 870,248 C870,275.614237 847.614237,298 820,298 Z M710,298 C682.385763,298 660,275.614237 660,248 C660,220.385763 682.385763,198 710,198 C737.614237,198 760,220.385763 760,248 C760,275.614237 737.614237,298 710,298 Z M600,298 C572.385763,298 550,275.614237 550,248 C550,220.385763 572.385763,198 600,198 C627.614237,198 650,220.385763 650,248 C650,275.614237 627.614237,298 600,298 Z M490,298 C462.385763,298 440,275.614237 440,248 C440,220.385763 462.385763,198 490,198 C517.614237,198 540,220.385763 540,248 C540,275.614237 517.614237,298 490,298 Z M380,298 C352.385763,298 330,275.614237 330,248 C330,220.385763 352.385763,198 380,198 C407.614237,198 430,220.385763 430,248 C430,275.614237 407.614237,298 380,298 Z M270,298 C242.385763,298 220,275.614237 220,248 C220,220.385763 242.385763,198 270,198 C297.614237,198 320,220.385763 320,248 C320,275.614237 297.614237,298 270,298 Z M160,298 C132.385763,298 110,275.614237 110,248 C110,220.385763 132.385763,198 160,198 C187.614237,198 210,220.385763 210,248 C210,275.614237 187.614237,298 160,298 Z M50,298 C22.3857625,298 0,275.614237 0,248 C0,220.385763 22.3857625,198 50,198 C77.6142375,198 100,220.385763 100,248 C100,275.614237 77.6142375,298 50,298 Z M875,199 C847.385763,199 825,176.614237 825,149 C825,121.385763 847.385763,99 875,99 C902.614237,99 925,121.385763 925,149 C925,176.614237 902.614237,199 875,199 Z M765,199 C737.385763,199 715,176.614237 715,149 C715,121.385763 737.385763,99 765,99 C792.614237,99 815,121.385763 815,149 C815,176.614237 792.614237,199 765,199 Z M655,199 C627.385763,199 605,176.614237 605,149 C605,121.385763 627.385763,99 655,99 C682.614237,99 705,121.385763 705,149 C705,176.614237 682.614237,199 655,199 Z M545,199 C517.385763,199 495,176.614237 495,149 C495,121.385763 517.385763,99 545,99 C572.614237,99 595,121.385763 595,149 C595,176.614237 572.614237,199 545,199 Z M435,199 C407.385763,199 385,176.614237 385,149 C385,121.385763 407.385763,99 435,99 C462.614237,99 485,121.385763 485,149 C485,176.614237 462.614237,199 435,199 Z M325,199 C297.385763,199 275,176.614237 275,149 C275,121.385763 297.385763,99 325,99 C352.614237,99 375,121.385763 375,149 C375,176.614237 352.614237,199 325,199 Z M215,199 C187.385763,199 165,176.614237 165,149 C165,121.385763 187.385763,99 215,99 C242.614237,99 265,121.385763 265,149 C265,176.614237 242.614237,199 215,199 Z M105,199 C77.3857625,199 55,176.614237 55,149 C55,121.385763 77.3857625,99 105,99 C132.614237,99 155,121.385763 155,149 C155,176.614237 132.614237,199 105,199 Z M712,100 C684.385763,100 662,77.6142375 662,50 C662,22.3857625 684.385763,0 712,0 C739.614237,0 762,22.3857625 762,50 C762,77.6142375 739.614237,100 712,100 Z M602,100 C574.385763,100 552,77.6142375 552,50 C552,22.3857625 574.385763,0 602,0 C629.614237,0 652,22.3857625 652,50 C652,77.6142375 629.614237,100 602,100 Z M492,100 C464.385763,100 442,77.6142375 442,50 C442,22.3857625 464.385763,0 492,0 C519.614237,0 542,22.3857625 542,50 C542,77.6142375 519.614237,100 492,100 Z M382,100 C354.385763,100 332,77.6142375 332,50 C332,22.3857625 354.385763,0 382,0 C409.614237,0 432,22.3857625 432,50 C432,77.6142375 409.614237,100 382,100 Z M272,100 C244.385763,100 222,77.6142375 222,50 C222,22.3857625 244.385763,0 272,0 C299.614237,0 322,22.3857625 322,50 C322,77.6142375 299.614237,100 272,100 Z" id="path-1"></path>
        <linearGradient x1="50%" y1="0%" x2="50%" y2="100%" id="linearGradient-3">
            <stop stop-color="#1C3B66" offset="0%"></stop>
            <stop stop-color="#B70463" offset="100%"></stop>
        </linearGradient>
        <rect id="path-4" x="0" y="0" width="980" height="495"></rect>
    </defs>
    <g id="Page-1" stroke="none" stroke-width="1" fill="none" fill-rule="evenodd">
        <g id="dots-group-med">
            <g>
                <mask id="mask-2" fill="white">
                    <use xlink:href="#path-1"></use>
                </mask>
                <use id="Mask" fill="#D8D8D8" xlink:href="#path-1"></use>
                <g id="Rectangle-3" mask="url(#mask-2)">
                    <use fill="url(#linearGradient-3)" fill-rule="evenodd" xlink:href="#path-4"></use>
                    <rect stroke="#979797" stroke-width="1" x="0.5" y="0.5" width="979" height="494"></rect>
                </g>
            </g>
        </g>
    </g>
</svg>