<?xml version="1.0" encoding="UTF-8"?>
<svg width="430px" height="495px" viewBox="0 0 430 495" version="1.1" xmlns="http://www.w3.org/2000/svg" xmlns:xlink="http://www.w3.org/1999/xlink">
    <!-- Generator: Sketch 43.2 (39069) - http://www.bohemiancoding.com/sketch -->
    <title>dots-gr-small</title>
    <desc>Created with Sketch.</desc>
    <defs>
        <path d="M217,495 C189.385763,495 167,472.614237 167,445 C167,417.385763 189.385763,395 217,395 C244.614237,395 267,417.385763 267,445 C267,472.614237 244.614237,495 217,495 Z M107,495 C79.3857625,495 57,472.614237 57,445 C57,417.385763 79.3857625,395 107,395 C134.614237,395 157,417.385763 157,445 C157,472.614237 134.614237,495 107,495 Z M380,396 C352.385763,396 330,373.614237 330,346 C330,318.385763 352.385763,296 380,296 C407.614237,296 430,318.385763 430,346 C430,373.614237 407.614237,396 380,396 Z M270,396 C242.385763,396 220,373.614237 220,346 C220,318.385763 242.385763,296 270,296 C297.614237,296 320,318.385763 320,346 C320,373.614237 297.614237,396 270,396 Z M160,396 C132.385763,396 110,373.614237 110,346 C110,318.385763 132.385763,296 160,296 C187.614237,296 210,318.385763 210,346 C210,373.614237 187.614237,396 160,396 Z M325,298 C297.385763,298 275,275.614237 275,248 C275,220.385763 297.385763,198 325,198 C352.614237,198 375,220.385763 375,248 C375,275.614237 352.614237,298 325,298 Z M215,298 C187.385763,298 165,275.614237 165,248 C165,220.385763 187.385763,198 215,198 C242.614237,198 265,220.385763 265,248 C265,275.614237 242.614237,298 215,298 Z M105,298 C77.3857625,298 55,275.614237 55,248 C55,220.385763 77.3857625,198 105,198 C132.614237,198 155,220.385763 155,248 C155,275.614237 132.614237,298 105,298 Z M380,199 C352.385763,199 330,176.614237 330,149 C330,121.385763 352.385763,99 380,99 C407.614237,99 430,121.385763 430,149 C430,176.614237 407.614237,199 380,199 Z M270,199 C242.385763,199 220,176.614237 220,149 C220,121.385763 242.385763,99 270,99 C297.614237,99 320,121.385763 320,149 C320,176.614237 297.614237,199 270,199 Z M160,199 C132.385763,199 110,176.614237 110,149 C110,121.385763 132.385763,99 160,99 C187.614237,99 210,121.385763 210,149 C210,176.614237 187.614237,199 160,199 Z M50,199 C22.3857625,199 0,176.614237 0,149 C0,121.385763 22.3857625,99 50,99 C77.6142375,99 100,121.385763 100,149 C100,176.614237 77.6142375,199 50,199 Z M327,100 C299.385763,100 277,77.6142375 277,50 C277,22.3857625 299.385763,0 327,0 C354.614237,0 377,22.3857625 377,50 C377,77.6142375 354.614237,100 327,100 Z M217,100 C189.385763,100 167,77.6142375 167,50 C167,22.3857625 189.385763,0 217,0 C244.614237,0 267,22.3857625 267,50 C267,77.6142375 244.614237,100 217,100 Z" id="path-1"></path>
        <linearGradient x1="50%" y1="0%" x2="50%" y2="100%" id="linearGradient-3">
            <stop stop-color="#1C3B66" offset="0%"></stop>
            <stop stop-color="#B70463" offset="100%"></stop>
        </linearGradient>
        <rect id="path-4" x="0" y="0" width="430" height="495"></rect>
    </defs>
    <g id="Page-1" stroke="none" stroke-width="1" fill="none" fill-rule="evenodd">
        <g id="dots-group-small">
            <g id="dots-gr-small">
                <mask id="mask-2" fill="white">
                    <use xlink:href="#path-1"></use>
                </mask>
                <use id="Mask" fill="#D8D8D8" xlink:href="#path-1"></use>
                <g id="Rectangle-3" mask="url(#mask-2)">
                    <use fill="url(#linearGradient-3)" fill-rule="evenodd" xlink:href="#path-4"></use>
                    <rect stroke="#979797" stroke-width="1" x="0.5" y="0.5" width="429" height="494"></rect>
                </g>
            </g>
        </g>
    </g>
</svg>