<?xml version="1.0" encoding="UTF-8"?>
<svg width="100px" height="634px" viewBox="0 0 100 634" version="1.1" xmlns="http://www.w3.org/2000/svg" xmlns:xlink="http://www.w3.org/1999/xlink">
    <!-- Generator: Sketch 43.2 (39069) - http://www.bohemiancoding.com/sketch -->
    <title>dots-gr-6</title>
    <desc>Created with Sketch.</desc>
    <defs>
        <path d="M50,526 C22.3857625,526 0,503.614237 0,476 C0,448.385763 22.3857625,426 50,426 C77.6142375,426 100,448.385763 100,476 C100,503.614237 77.6142375,526 50,526 Z M50,634 C22.3857625,634 0,611.614237 0,584 C0,556.385763 22.3857625,534 50,534 C77.6142375,534 100,556.385763 100,584 C100,611.614237 77.6142375,634 50,634 Z M50,419 C22.3857625,419 0,396.614237 0,369 C0,341.385763 22.3857625,319 50,319 C77.6142375,319 100,341.385763 100,369 C100,396.614237 77.6142375,419 50,419 Z M50,313 C22.3857625,313 0,290.614237 0,263 C0,235.385763 22.3857625,213 50,213 C77.6142375,213 100,235.385763 100,263 C100,290.614237 77.6142375,313 50,313 Z M50,206 C22.3857625,206 0,183.614237 0,156 C0,128.385763 22.3857625,106 50,106 C77.6142375,106 100,128.385763 100,156 C100,183.614237 77.6142375,206 50,206 Z M50,100 C22.3857625,100 0,77.6142375 0,50 C0,22.3857625 22.3857625,0 50,0 C77.6142375,0 100,22.3857625 100,50 C100,77.6142375 77.6142375,100 50,100 Z" id="path-1"></path>
        <linearGradient x1="50%" y1="0%" x2="50%" y2="100%" id="linearGradient-3">
            <stop stop-color="#1C3B66" offset="0%"></stop>
            <stop stop-color="#B70463" offset="100%"></stop>
        </linearGradient>
        <rect id="path-4" x="-2" y="0" width="102" height="636"></rect>
    </defs>
    <g id="Page-1" stroke="none" stroke-width="1" fill="none" fill-rule="evenodd">
        <g id="dots-group-6">
            <g id="dots-gr-6">
                <mask id="mask-2" fill="white">
                    <use xlink:href="#path-1"></use>
                </mask>
                <use id="Mask" fill="#D8D8D8" xlink:href="#path-1"></use>
                <g id="Rectangle-3" mask="url(#mask-2)">
                    <use fill="url(#linearGradient-3)" fill-rule="evenodd" xlink:href="#path-4"></use>
                    <rect stroke="#979797" stroke-width="1" x="-1.5" y="0.5" width="101" height="635"></rect>
                </g>
            </g>
        </g>
    </g>
</svg>