<?xml version="1.0" encoding="UTF-8"?>
<svg width="209px" height="121px" viewBox="0 0 209 121" version="1.1" xmlns="http://www.w3.org/2000/svg" xmlns:xlink="http://www.w3.org/1999/xlink">
    <!-- Generator: Sketch 43.2 (39069) - http://www.bohemiancoding.com/sketch -->
    <title>left-narrow</title>
    <desc>Created with Sketch.</desc>
    <defs></defs>
    <g id="Page-1" stroke="none" stroke-width="1" fill="none" fill-rule="evenodd">
        <path d="M107.554059,61.0044297 C107.702351,61.0014812 107.851002,61 108,61 C118.728028,61 127.662578,68.6787919 129.607235,78.8399611 C133.187709,77.6463913 137.018368,77 141,77 C156.098141,77 169.025463,86.2943754 174.372497,99.4736545 C175.360347,99.1658429 176.410806,99 177.5,99 C182.98385,99 187.485815,103.203951 187.958928,108.564888 C189.025227,107.592768 190.443389,107 192,107 C195.313708,107 198,109.686292 198,113 C198,113.810941 197.83912,114.584306 197.547535,115.28992 C198.739793,113.888794 200.516102,113 202.5,113 C206.089851,113 209,115.910149 209,119.5 C209,121.262364 205.807868,120.892523 202.5,120.925675 C199.53476,120.955393 196.662523,121.254715 196.099324,120 L1,120 L1,13.1783263 C0.895249005,12.5909143 0.840540695,11.9663166 0.999999962,11.3265722 L1,11 L1.08408209,11.045371 C1.14251973,10.8785715 1.21694752,10.7109711 1.31022115,10.5429532 C4.16126321,5.40724525 12.2702388,0 19.5,0 C32.4786916,0 43,10.5213084 43,23.5 C43,25.5503919 42.7374079,27.5394522 42.244019,29.4353854 C45.1919622,26.6838455 49.1493395,25 53.5,25 C58.8195811,25 63.5511994,27.517368 66.5685554,31.4258046 C70.555971,29.2417841 75.1329684,28 80,28 C95.463973,28 108,40.536027 108,56 C108,57.7081866 107.847036,59.3806465 107.554059,61.0044297 Z" id="left-narrow" fill="#1D3D68" transform="translate(104.949940, 60.488910) scale(1, -1) translate(-104.949940, -60.488910) "></path>
    </g>
</svg>