<?xml version="1.0" encoding="UTF-8"?>
<svg width="149px" height="95px" viewBox="0 0 149 95" version="1.1" xmlns="http://www.w3.org/2000/svg" xmlns:xlink="http://www.w3.org/1999/xlink">
    <!-- Generator: Sketch 55.2 (78181) - https://sketchapp.com -->
    <title>logo-full-cherry</title>
    <desc>Created with Sketch.</desc>
    <defs>
        <path d="M85.6523096,38.0945557 L92.2332617,38.0945557 C93.5341927,38.0945557 94.5828866,38.4612667 95.379375,39.1946997 C96.1758634,39.9281327 96.5741016,40.9585741 96.5741016,42.2860547 C96.5741016,43.427688 96.2190058,44.4216242 95.5088037,45.2678931 C94.7986016,46.1141619 93.7067652,46.53729 92.2332617,46.53729 L87.6335645,46.53729 L87.6335645,52.72 L85.6523096,52.72 L85.6523096,38.0945557 Z M94.5729346,42.2960107 C94.5729346,41.2207515 94.1746964,40.4906481 93.378208,40.1056787 C92.9401394,39.8999192 92.3394635,39.797041 91.5761621,39.797041 L87.6335645,39.797041 L87.6335645,44.8646729 L91.5761621,44.8646729 C92.4655741,44.8646729 93.1873809,44.6755097 93.741604,44.2971777 C94.2958272,43.9188458 94.5729346,43.2517968 94.5729346,42.2960107 Z M103.26457,41.8181201 C104.021234,41.8181201 104.754656,41.995668 105.464858,42.350769 C106.175061,42.7058701 106.716001,43.1655034 107.087695,43.7296826 C107.446115,44.2673123 107.685058,44.8945374 107.804531,45.611377 C107.91073,46.1025448 107.963828,46.8857466 107.963828,47.9610059 L100.148325,47.9610059 C100.181512,49.0429025 100.437048,49.91073 100.914941,50.5645142 C101.392834,51.2182984 102.132894,51.5451855 103.135142,51.5451855 C104.071015,51.5451855 104.817712,51.2365509 105.375254,50.6192725 C105.693849,50.2608527 105.919518,49.8460212 106.052266,49.3747656 L107.814487,49.3747656 C107.768025,49.7663724 107.613708,50.2027751 107.351531,50.6839868 C107.089353,51.1651985 106.795653,51.5584588 106.47042,51.8637793 C105.926153,52.3947715 105.252467,52.7531859 104.449341,52.9390332 C104.01791,53.0452317 103.530068,53.0983301 102.985801,53.0983301 C101.65832,53.0983301 100.533297,52.6154663 99.6106982,51.6497241 C98.6880992,50.683982 98.2268066,49.3316314 98.2268066,47.5926318 C98.2268066,45.8801819 98.6914179,44.4896668 99.6206543,43.4210449 C100.549891,42.352423 101.764517,41.8181201 103.26457,41.8181201 Z M106.121958,46.53729 C106.048947,45.7607139 105.879695,45.140126 105.614199,44.6755078 C105.123031,43.8126454 104.303324,43.3812207 103.155054,43.3812207 C102.332016,43.3812207 101.641736,43.67824 101.084194,44.2722876 C100.526652,44.8663352 100.231292,45.6213284 100.198105,46.53729 L106.121958,46.53729 Z M110.213896,42.0570654 L111.916382,42.0570654 L111.916382,43.8989355 C112.055767,43.5405158 112.397588,43.1041131 112.941855,42.5897144 C113.486123,42.0753156 114.113348,41.8181201 114.82355,41.8181201 C114.856737,41.8181201 114.913154,41.8214388 114.992803,41.8280762 C115.072452,41.8347136 115.208516,41.8479882 115.401001,41.8679004 L115.401001,43.7595508 C115.294803,43.7396386 115.196902,43.726364 115.107297,43.7197266 C115.017692,43.7130892 114.919792,43.7097705 114.813594,43.7097705 C113.910907,43.7097705 113.217309,44.0001525 112.732778,44.5809253 C112.248248,45.1616981 112.005986,45.8304064 112.005986,46.5870703 L112.005986,52.72 L110.213896,52.72 L110.213896,42.0570654 Z M117.402168,40.4342285 C117.428718,39.6908394 117.558145,39.1465805 117.790454,38.8014355 C118.20861,38.1907945 119.015043,37.8854785 120.209775,37.8854785 C120.322611,37.8854785 120.438764,37.8887972 120.558237,37.8954346 C120.677711,37.902072 120.813775,37.9120279 120.966436,37.9253027 L120.966436,39.5580957 C120.780588,39.5448209 120.646183,39.5365243 120.563215,39.5332056 C120.480248,39.5298869 120.402259,39.5282275 120.329248,39.5282275 C119.784981,39.5282275 119.459753,39.6692702 119.353555,39.9513599 C119.247356,40.2334495 119.194258,40.9519376 119.194258,42.1068457 L120.966436,42.1068457 L120.966436,43.5206055 L119.174346,43.5206055 L119.174346,52.72 L117.402168,52.72 L117.402168,43.5206055 L115.918716,43.5206055 L115.918716,42.1068457 L117.402168,42.1068457 L117.402168,40.4342285 Z M127.059541,41.8181201 C127.816205,41.8181201 128.549627,41.995668 129.259829,42.350769 C129.970031,42.7058701 130.510971,43.1655034 130.882666,43.7296826 C131.241086,44.2673123 131.480029,44.8945374 131.599502,45.611377 C131.7057,46.1025448 131.758799,46.8857466 131.758799,47.9610059 L123.943296,47.9610059 C123.976483,49.0429025 124.232019,49.91073 124.709912,50.5645142 C125.187805,51.2182984 125.927864,51.5451855 126.930112,51.5451855 C127.865986,51.5451855 128.612683,51.2365509 129.170225,50.6192725 C129.48882,50.2608527 129.714488,49.8460212 129.847236,49.3747656 L131.609458,49.3747656 C131.562996,49.7663724 131.408679,50.2027751 131.146501,50.6839868 C130.884324,51.1651985 130.590623,51.5584588 130.265391,51.8637793 C129.721124,52.3947715 129.047437,52.7531859 128.244312,52.9390332 C127.81288,53.0452317 127.325039,53.0983301 126.780771,53.0983301 C125.453291,53.0983301 124.328268,52.6154663 123.405669,51.6497241 C122.48307,50.683982 122.021777,49.3316314 122.021777,47.5926318 C122.021777,45.8801819 122.486389,44.4896668 123.415625,43.4210449 C124.344861,42.352423 125.559488,41.8181201 127.059541,41.8181201 Z M129.916929,46.53729 C129.843917,45.7607139 129.674666,45.140126 129.40917,44.6755078 C128.918002,43.8126454 128.098295,43.3812207 126.950024,43.3812207 C126.126986,43.3812207 125.436707,43.67824 124.879165,44.2722876 C124.321623,44.8663352 124.026263,45.6213284 123.993076,46.53729 L129.916929,46.53729 Z M138.070937,41.7484277 C139.272307,41.7484277 140.24965,42.0404691 141.002996,42.6245605 C141.756341,43.208652 142.209337,44.2142035 142.361997,45.6412451 L140.619687,45.6412451 C140.513489,44.9841422 140.271227,44.438224 139.892896,44.0034741 C139.514564,43.5687242 138.90725,43.3513525 138.070937,43.3513525 C136.929304,43.3513525 136.112916,43.908886 135.621748,45.0239697 C135.303153,45.7474467 135.143857,46.640164 135.143857,47.7021484 C135.143857,48.7707703 135.369526,49.6701249 135.820869,50.4002393 C136.272213,51.1303536 136.982404,51.4954053 137.951465,51.4954053 C138.694854,51.4954053 139.283915,51.2680776 139.718665,50.8134155 C140.153414,50.3587534 140.453752,49.7365062 140.619687,48.9466553 L142.361997,48.9466553 C142.162875,50.3604221 141.665077,51.3941821 140.868589,52.0479663 C140.072101,52.7017505 139.053274,53.0286377 137.81208,53.0286377 C136.418225,53.0286377 135.306477,52.5192247 134.476802,51.5003833 C133.647126,50.4815419 133.232295,49.208839 133.232295,47.6822363 C133.232295,45.8104887 133.68695,44.3536006 134.596274,43.3115283 C135.505599,42.2694561 136.663808,41.7484277 138.070937,41.7484277 Z M144.512505,39.0802051 L146.324507,39.0802051 L146.324507,42.0570654 L148.026992,42.0570654 L148.026992,43.5206055 L146.324507,43.5206055 L146.324507,50.4798877 C146.324507,50.8515823 146.450616,51.1004811 146.702837,51.2265918 C146.842222,51.2996032 147.074528,51.3361084 147.399761,51.3361084 C147.486047,51.3361084 147.578969,51.3344491 147.67853,51.3311304 C147.778091,51.3278117 147.894244,51.319515 148.026992,51.3062402 L148.026992,52.72 C147.821233,52.7797366 147.60718,52.8228791 147.384827,52.8494287 C147.162474,52.8759783 146.921871,52.8892529 146.663013,52.8892529 C145.8267,52.8892529 145.25921,52.6751999 144.960527,52.2470874 C144.661844,51.8189749 144.512505,51.2631007 144.512505,50.5794482 L144.512505,43.5206055 L143.068877,43.5206055 L143.068877,42.0570654 L144.512505,42.0570654 L144.512505,39.0802051 Z M94.8580469,57.6145557 L99.059502,70.0695801 L103.211177,57.6145557 L105.431377,57.6145557 L100.094932,72.24 L97.9942041,72.24 L92.6677148,57.6145557 L94.8580469,57.6145557 Z M110.389492,61.3381201 C111.146156,61.3381201 111.879578,61.515668 112.58978,61.870769 C113.299982,62.2258701 113.840923,62.6855034 114.212617,63.2496826 C114.571037,63.7873123 114.80998,64.4145374 114.929453,65.131377 C115.035652,65.6225448 115.08875,66.4057466 115.08875,67.4810059 L107.273247,67.4810059 C107.306434,68.5629025 107.56197,69.43073 108.039863,70.0845142 C108.517756,70.7382984 109.257816,71.0651855 110.260063,71.0651855 C111.195937,71.0651855 111.942634,70.7565509 112.500176,70.1392725 C112.818771,69.7808527 113.044439,69.3660212 113.177188,68.8947656 L114.939409,68.8947656 C114.892947,69.2863724 114.73863,69.7227751 114.476453,70.2039868 C114.214275,70.6851985 113.920575,71.0784588 113.595342,71.3837793 C113.051075,71.9147715 112.377388,72.2731859 111.574263,72.4590332 C111.142832,72.5652317 110.65499,72.6183301 110.110723,72.6183301 C108.783242,72.6183301 107.658219,72.1354663 106.73562,71.1697241 C105.813021,70.203982 105.351729,68.8516314 105.351729,67.1126318 C105.351729,65.4001819 105.81634,64.0096668 106.745576,62.9410449 C107.674813,61.872423 108.889439,61.3381201 110.389492,61.3381201 Z M113.24688,66.05729 C113.173868,65.2807139 113.004617,64.660126 112.739121,64.1955078 C112.247953,63.3326454 111.428246,62.9012207 110.279976,62.9012207 C109.456938,62.9012207 108.766658,63.19824 108.209116,63.7922876 C107.651574,64.3863352 107.356214,65.1413284 107.323027,66.05729 L113.24688,66.05729 Z M117.289038,61.5770654 L118.991523,61.5770654 L118.991523,63.0903857 C119.495966,62.4664699 120.030269,62.0184519 120.594448,61.7463184 C121.158627,61.4741848 121.785853,61.3381201 122.476143,61.3381201 C123.98947,61.3381201 125.011615,61.8657857 125.542607,62.9211328 C125.834653,63.4985869 125.980674,64.3249311 125.980674,65.4001904 L125.980674,72.24 L124.158716,72.24 L124.158716,65.5196631 C124.158716,64.8691976 124.062475,64.3448506 123.86999,63.9466064 C123.551395,63.2828661 122.973949,62.951001 122.137637,62.951001 C121.712843,62.951001 121.364384,62.9941434 121.092251,63.0804297 C120.601083,63.2264526 120.169658,63.5184939 119.797964,63.9565625 C119.499281,64.3083449 119.30514,64.6717372 119.215535,65.0467505 C119.12593,65.4217638 119.081128,65.957726 119.081128,66.6546533 L119.081128,72.24 L117.289038,72.24 L117.289038,61.5770654 Z M128.987402,58.6002051 L130.799404,58.6002051 L130.799404,61.5770654 L132.50189,61.5770654 L132.50189,63.0406055 L130.799404,63.0406055 L130.799404,69.9998877 C130.799404,70.3715823 130.925513,70.6204811 131.177734,70.7465918 C131.31712,70.8196032 131.549425,70.8561084 131.874658,70.8561084 C131.960944,70.8561084 132.053867,70.8544491 132.153428,70.8511304 C132.252989,70.8478117 132.369142,70.839515 132.50189,70.8262402 L132.50189,72.24 C132.29613,72.2997366 132.082077,72.3428791 131.859724,72.3694287 C131.637371,72.3959783 131.396769,72.4092529 131.13791,72.4092529 C130.301597,72.4092529 129.734108,72.1951999 129.435425,71.7670874 C129.136742,71.3389749 128.987402,70.7831007 128.987402,70.0994482 L128.987402,63.0406055 L127.543774,63.0406055 L127.543774,61.5770654 L128.987402,61.5770654 L128.987402,58.6002051 Z" id="path-1"></path>
    </defs>
    <g id="Page-1" stroke="none" stroke-width="1" fill="none" fill-rule="evenodd">
        <g id="logo-full-cherry">
            <g id="bullet-copy" transform="translate(0.440000, 0.590000)" stroke="#640136" stroke-width="0.5">
                <polygon id="Path" points="53.53 37.31 58.86 39.9 61.37 43.89 60.37 50.14 52.89 54.69 44.26 50.8 43.25 44.18 47.47 38.36 53.28 37.37"></polygon>
                <polyline id="Path" points="53.08 54.58 60.88 44.25 44.65 50.44 53.48 37.45 61.08 43.94"></polyline>
                <polyline id="Path" points="44.51 50.41 47.57 38.82 49.89 42.7 53.9 46.92 52.94 54.58"></polyline>
                <path d="M53.48,37.58 L53.91,46.92" id="Path"></path>
                <polyline id="Path" points="89.86 7.63 54.9 34.54 58.24 25.16 58.4 24.89 70.1 5.52 90.62 6.8 90.27 7.36 74.03 36.81 64.19 36.64 64.77 43.12 73.91 37.02 86.06 26.23 92 17.76 90.76 6.74 90.51 6.59 80.8 0.61 70.24 5.35"></polyline>
                <polyline id="Path" points="58 25.84 64.02 36.54 54.5 34.99"></polyline>
                <path d="M90.31,7.13 L64.02,36.54" id="Path"></path>
                <polyline id="Path" points="72.8 17.3 73.39 26.1 73.93 36.64 58.23 25.78 58.34 25.48 90.62 6.8"></polyline>
                <path d="M85.81,26.45 L72.81,17.45" id="Path"></path>
                <polyline id="Path" points="80.8 0.61 80.27 1.56 72.74 17.32 62.51 18.02"></polyline>
                <polyline id="Path" points="92 17.76 72.74 17.32 70.1 5.52"></polyline>
                <polyline id="Path" points="64.01 36.68 61.37 38.28 54.5 34.99"></polyline>
                <path d="M64.8,43.39 L61.37,38.28" id="Path"></path>
                <path d="M72.07,63.15 L60.75,67.61" id="Path"></path>
                <polyline id="Path" points="72.19 63.11 77.69 71.57 79.57 79.13"></polyline>
                <polyline id="Path" points="77.56 71.57 67.34 72.87 76.67 85.98 68.7 83.31"></polyline>
                <polyline id="Path" points="67.34 72.87 68.81 83.4 75.37 91.45 79.5 79.1 67.34 72.87 72.03 63.17 49.82 58.89"></polyline>
                <polyline id="Path" points="54.27 84.63 67.34 72.87 51.79 71.57 60.67 67.83 54.15 84.72 68.7 83.31"></polyline>
                <polyline id="Path" points="49.83 58.92 50.92 71.75 54.06 84.75 60.17 93.21 75.45 91.67"></polyline>
                <polyline id="Path" points="49.82 59.02 50.91 55.89 53.36 56.94 63.82 61.39 63.32 51.31 72.24 63.18"></polyline>
                <path d="M63.16,50.73 L53.46,56.98" id="Path"></path>
                <path d="M63.82,61.39 L51.13,71.57" id="Path"></path>
                <path d="M50.16,58.96 L60.65,67.61" id="Path"></path>
                <polyline id="Path" points="45.17 37.52 28.79 30.43 9.65 27.48 0 38.35 3.26 49.7 15.45 54.11 34.04 52.83 45.19 37.53 9.7 27.63 3.36 49.61 33.92 52.74 28.75 30.7 4.22 49.17 43.71 37.82 0.12 38.37"></polyline>
                <polyline id="Path" points="15.45 53.72 19.1 38.28 33.73 52.62"></polyline>
                <path d="M9.65,27.69 L18.93,38.02" id="Path"></path>
                <polyline id="Path" points="31.31 41.62 40.58 43.99 41.65 51.31 34.04 52.83"></polyline>
            </g>
            <g id="Combined-Shape" fill-rule="nonzero">
                <use fill="#000000" xlink:href="#path-1"></use>
                <use fill="#640136" xlink:href="#path-1"></use>
            </g>
        </g>
    </g>
</svg>