<?xml version="1.0" encoding="UTF-8"?>
<svg width="309px" height="100px" viewBox="0 0 309 100" version="1.1" xmlns="http://www.w3.org/2000/svg" xmlns:xlink="http://www.w3.org/1999/xlink">
    <!-- Generator: Sketch 55.2 (78181) - https://sketchapp.com -->
    <title>pumi-orginal-flat</title>
    <desc>Created with Sketch.</desc>
    <g id="pumi-orginal-flat" stroke="none" stroke-width="1" fill="none" fill-rule="evenodd">
        <g id="pumi-lines" transform="translate(122.256569, 24.865533)">
            <path d="M0.326304067,0.304601009 C7.37331418,0.10153367 12.2554468,2.84217094e-14 14.972702,2.84217094e-14 C17.6899571,2.84217094e-14 20.9442774,0.10153367 24.7356627,0.304601009 C27.8683555,0.524538608 30.2553192,1.02060608 31.8965536,1.79280342 C33.5377881,2.56500076 35.1053949,3.71153315 36.5993741,5.2324006 C39.1069148,7.92332767 40.3606851,11.418697 40.3606851,15.7185086 C40.3606851,20.0183201 39.1069148,23.5216719 36.5993741,26.2285639 C35.3667152,27.8208533 33.7991084,29.1077088 31.8965536,30.0891304 C29.9939989,31.0705521 27.6070352,31.7555726 24.7356627,32.1441921 C22.4371362,32.2667302 20.7233245,32.3279993 19.5942274,32.3279993 C18.4651304,32.3279993 16.6861986,32.3279993 14.2574321,32.3279993 L14.2574321,39.8013606 C14.2322244,40.6911941 14.4706477,41.6003535 14.972702,42.5288389 C15.7257834,43.9215669 16.1733612,43.9742598 16.5270747,44.0643058 C16.8807882,44.1543517 17.8504015,44.0720256 18.5960436,44.6303711 C19.3416856,45.1887167 19.5942274,45.8178613 19.5942274,46.3601014 C19.5942274,46.7215948 19.5942274,47.8259043 19.5942274,49.6730297 L0.326304067,49.6730297 C0.0454343581,48.1104487 -0.0541141506,47.0061393 0.0276585406,46.3601014 C0.150317577,45.3910446 0.418190805,45.0360582 0.964582058,44.6303711 C1.32884289,44.3599131 2.03878442,44.1052845 3.09440664,43.8664851 C3.78311765,43.5391387 4.25448697,43.0932567 4.50851462,42.5288389 C4.76254226,41.9644211 4.93914692,41.0552616 5.0383286,39.8013606 L5.0383286,9.29250329 C5.0383286,8.56283022 4.92174981,7.99604077 4.68859222,7.59213492 C4.33885585,6.98627615 4.33885585,6.61890208 3.56367535,6.24795773 C2.78849486,5.87701339 1.90587934,6.02842688 1.28076789,5.62808148 C0.655656431,5.22773609 0.0276585406,4.57202869 0.0276585406,3.98335669 C0.0276585406,3.5909087 0.127207049,2.3646568 0.326304067,0.304601009 Z M14.7456425,7.2325351 L14.7456425,24.9729342 C19.6737011,25.145598 22.410045,25.23193 22.954674,25.23193 C23.7716175,25.23193 30.207275,24.0105643 30.207275,16.1030946 C30.207275,10.8314482 27.7897413,7.79750221 22.954674,7.00125676 L14.7456425,7.2325351 Z M41.8644236,2.84217094e-14 L62.2487752,2.84217094e-14 C62.9082619,2.13460668 62.9434966,3.67005722 62.3544792,4.60635163 C61.7654618,5.54264604 60.0678476,6.17819848 57.2616364,6.51300896 L57.1295887,27.7476665 C56.4919559,37.7154214 60.5510124,42.7986599 69.3067582,42.997382 C81.535439,42.0567915 80.5652189,30.0560298 80.5652189,27.7476665 C80.5652189,26.2087576 80.5394966,19.1305384 80.488052,6.51300896 C77.8930935,6.31447667 76.2400915,5.78346122 75.529046,4.9199626 C74.8180004,4.05646399 74.7374523,2.48340041 75.2874018,0.200771885 L93.9434714,0.200771885 C94.1882801,2.56559326 94.1200576,4.09308576 93.7388038,4.78324936 C93.1669232,5.81849477 91.2147173,6.04753035 90.5232987,6.51300896 C89.83188,6.97848756 89.6843324,7.19837352 89.3724228,7.72279518 C89.0605132,8.24721683 88.6731771,9.34122188 88.6731771,9.5255767 C88.6731771,9.64847992 88.5491627,17.5629977 88.301134,33.26913 C87.37209,44.2050631 81.1329205,50.0839256 69.5836253,50.9057175 C51.2940047,50.2634619 48.161356,36.4267338 48.161356,33.26913 C48.161356,30.1115261 48.3800778,9.75884237 48.161356,8.59415388 C47.9426342,7.42946539 47.6242001,6.9630388 46.8564819,6.39941835 C46.0887637,5.8357979 43.8884645,5.51433958 43.736128,5.4151788 C43.6345703,5.34907162 43.0106688,3.54401201 41.8644236,2.84217094e-14 Z M97.4587757,0 L109.361235,0.0916657257 C110.269209,0.250972301 110.916157,0.486614601 111.30208,0.798592624 C111.688004,1.11057065 112.088481,1.68823662 112.503514,2.53159053 C113.495928,4.1509737 115.296877,7.33990937 117.90636,12.0983975 C120.469305,16.7720205 124.248719,23.7557159 129.244603,33.0494837 L129.244679,33.0494427 C129.32549,33.1997731 129.512866,33.2561301 129.663197,33.1753197 C129.716917,33.1464426 129.76089,33.1023155 129.789581,33.0484958 C140.505898,12.9458793 145.965631,2.77357759 146.168779,2.53159053 C146.476065,2.16555577 147.282308,1.26093664 148.003546,0.798592624 C148.724783,0.336248603 149.879691,0 150.117955,0 C150.276798,0 154.183882,0 161.839208,0 C162.064054,1.6341492 162.138573,2.78082743 162.062765,3.44003471 C161.949053,4.42884562 161.768193,4.87788464 161.223572,5.35340694 C160.860491,5.67042181 160.077223,5.9607617 158.873769,6.22442662 C158.295834,6.51329217 157.888382,6.81997042 157.651412,7.14446137 C157.295957,7.63119778 156.844367,8.46816577 156.844367,9.00335426 C156.844367,9.36014659 156.844367,19.9045562 156.844367,40.6365832 C157.005328,41.4467433 157.167395,42.0261204 157.330571,42.3747146 C157.575334,42.897606 157.96661,43.2679719 158.320917,43.5529477 C158.675224,43.8379236 160.819287,44.0670587 161.605468,45.1131159 C162.129588,45.8104874 162.207502,47.3897016 161.839208,49.8507584 L142.925411,49.8507584 C142.420843,47.2873537 142.532482,45.6421475 143.260326,44.9151397 C144.352092,43.8246282 146.620851,43.8922455 147.133507,43.6511256 C147.646163,43.4100058 148.727076,42.684724 148.727076,40.9465926 C148.727076,40.1342076 148.882584,35.6768254 148.52839,27.7435178 C148.447909,25.9408808 148.331212,22.9826995 148.003546,18.9478065 C147.954994,18.3499359 147.855983,17.4424503 147.706512,16.2253495 L147.706677,16.2253292 C147.696261,16.1405139 147.61906,16.0802014 147.534245,16.0906175 C147.48411,16.0967746 147.440136,16.1270166 147.416448,16.17163 C139.762416,30.5871342 135.542098,38.5584932 134.755496,40.0857073 C133.563841,42.399344 133.370959,43.6511256 130.652574,43.8543133 C128.840317,43.9897718 127.08226,42.7753071 125.378404,40.2109193 C123.849,38.0208621 122.079648,35.1792326 120.070348,31.686031 C118.757511,29.4036418 117.239579,26.2542631 115.146822,22.415822 C114.03661,20.3795204 111.612498,16.2682773 111.30208,15.865897 C110.991663,15.4635167 110.21049,15.5115611 109.995961,15.865897 C109.852942,16.1021209 109.879531,24.543586 110.075726,41.1902924 C110.270424,41.9606276 110.493757,42.4971219 110.745726,42.7997753 C111.123679,43.2537555 111.409024,43.4479379 112.044685,43.6511256 C112.680346,43.8543133 114.472309,43.6258687 115.706952,44.9151397 C116.530047,45.7746538 116.767544,47.41986 116.419444,49.8507584 L96.9798414,49.8507584 C96.7228953,47.2003159 96.8825401,45.5551097 97.4587757,44.9151397 C98.323129,43.9551849 99.9883301,43.9570203 100.489008,43.5529477 C100.989686,43.1488752 101.662251,42.1476086 101.818004,41.1902924 C101.92184,40.5520815 102.007421,28.8967929 102.074749,6.22442662 C99.6316027,6.34289105 98.092945,5.83083121 97.4587757,4.6882471 C96.8246063,3.54566299 96.8246063,1.98291396 97.4587757,0 Z M165.908587,2.84217094e-14 L184.75688,2.84217094e-14 C185.197699,2.4175208 185.116871,4.03754661 184.514397,4.86007745 C183.610686,6.09387369 182.326495,5.93715727 181.34013,6.37009512 C180.353764,6.80303297 179.983246,8.70353477 179.89843,9.26765201 C179.813615,9.83176926 179.732983,39.5917933 179.89843,40.9991922 C180.063878,42.4065911 180.887114,43.4777437 181.509617,43.704724 C182.132119,43.9317042 184.744334,44.0912469 184.919077,46.4388264 C185.035572,48.0038795 184.981506,49.1411901 184.75688,49.8507584 L165.55663,49.8507584 C165.446801,48.2999305 165.391886,47.0697321 165.391886,46.1601632 C165.391886,45.5537229 165.892804,44.6699768 166.966974,44.1610483 C167.503896,43.906661 168.394776,43.8169366 168.899466,43.704724 C169.404156,43.5925113 170.335764,41.8415403 170.335764,40.9991922 C170.335764,40.1568442 170.492187,7.27009842 170.335764,7.00125676 C170.179341,6.7324151 165.202374,5.8279341 165.202374,3.26775589 C165.202374,1.56097041 165.437778,0.471718446 165.908587,2.84217094e-14 Z" id="pumi" fill="#640136"></path>
            <g id="lines-copy" transform="translate(0.000000, 58.268934)" stroke="#640136" stroke-linecap="square" stroke-width="1.39103555">
                <path d="M0.154559505,0.0772797527 L21.251932,0.0772797527" id="Line"></path>
                <path d="M23.8021638,0.0772797527 L44.8995363,0.0772797527" id="Line"></path>
                <path d="M47.6043277,0.0772797527 L68.7017002,0.0772797527" id="Line"></path>
            </g>
        </g>
        <g id="motyl" transform="translate(2.163833, 0.618238)" stroke-width="0.724286149">
            <path d="M14.2172023,4.91151616 C18.5313687,2.26417733 30.1623739,2.32515355 35.3105413,5.62265421 C40.4587087,8.92015487 46.9394822,15.4385803 48.6736848,22.7164492 C50.4078874,29.9943182 52.138934,37.7174326 50.4063094,46.5599763 C48.6736848,55.40252 45.5437568,65.1687112 39.7367818,71.3966218 C35.8734556,75.5399926 29.3515242,83.6313992 18.5195816,86.7276811 C9.33470966,89.3531522 0.561792163,83.6313992 0.561792163,75.3398863 C0.561792163,67.0483734 8.67656636,62.5303949 10.4139249,61.3983345 C11.572164,60.6436277 17.6807966,57.9592606 28.7398229,53.3452332 C25.6122629,48.8217286 21.1297411,44.6211059 15.2922573,40.7433651 C6.53603172,34.9267539 3.18971426,26.1394712 4.56276639,18.5545092 C5.93581852,10.9695472 9.90303585,7.558855 14.2172023,4.91151616 Z" id="Path-4" stroke="#FFFFFF" fill="#640136"></path>
            <path d="M14.4303259,4.3278523 C19.3572168,1.62760884 29.6762517,1.61514362 34.8244191,4.91264428 C39.9725865,8.21014494 45.0594877,12.3838293 47.0710244,20.3498665 C48.1200849,24.5043297 47.1082663,32.6043605 41.6443398,40.7433651 C39.6665499,43.6894591 35.1357075,47.8370973 28.0518124,53.1862797 C25.3134318,48.9621484 20.9539602,44.873084 14.9733975,40.9190864 C6.0025534,34.9880901 2.86572864,25.9860942 4.23878077,18.4011322 C5.61183289,10.8161702 9.50343501,7.02809577 14.4303259,4.3278523 Z" id="Path-s" stroke="#640136" fill="#EFF4FB"></path>
            <path d="M70.2699791,33.3181899 C74.3290919,31.0145442 81.3333009,59.4462807 73.307627,61.036701 C67.9571778,62.0969812 64.9256151,63.3604534 64.2129389,64.8271177 C65.6974451,71.5308979 67.7164585,76.8573616 70.2699791,80.8065089 C74.10026,86.7302298 71.2061096,93.966982 69.3283295,95.4435581 C67.4505494,96.9201343 62.8255128,99.8694634 56.828334,97.8797388 C50.8311551,95.8900143 47.2537846,88.8371969 46.5313231,83.2477871 C45.8088615,77.6583773 48.116589,65.7336233 49.6780801,62.2575525 C51.2395712,58.7814816 54.5896872,50.6038157 57.9398032,45.8601662 C61.2899192,41.1165168 66.2108664,35.6218355 70.2699791,33.3181899 Z" id="Path-5" stroke="#FFFFFF" fill="#640136"></path>
            <path d="M70.2699791,33.3181899 C74.0609058,30.6380839 80.7215258,28.9547291 85.5282693,29.114026 C90.3350128,29.2733229 99.3295075,32.1926801 100.126386,42.7689567 C100.923264,53.3452332 93.4002565,55.5076116 89.9707498,56.8015273 C86.5412432,58.0954429 79.7994054,59.4343865 73.307627,61.036701 C68.9797748,62.1049106 65.8061297,63.4236058 63.7866917,64.9927865 C62.5020065,58.7981901 62.0852409,54.0832849 62.536395,50.8480709 C63.7726417,41.9829773 66.3764405,36.0708404 70.2699791,33.3181899 Z" id="Path" stroke="#640136" fill="#EFF4FB"></path>
            <path d="M54.4351514,11.9443683 C55.5786033,14.893959 56.3134976,21.7903114 56.6398342,32.6334256 C57.9161177,25.6138334 58.6822871,20.7393481 58.9383424,18.0099697 C59.7192188,9.68634723 59.1333586,4.6261471 58.306189,3.02835078 C56.4551554,-0.547184929 54.4351514,-0.19193189 52.9564473,0.709051406 C51.4777432,1.6100347 51.4777432,4.58740006 51.7146415,5.42466459 C51.9515399,6.26192913 52.7199735,7.51998236 54.4351514,11.9443683 Z" id="Path-6" stroke="#FFFFFF" fill="#640136"></path>
            <path d="M60.6832387,33.3734128 C63.9243925,27.8017844 66.3525296,23.9544455 67.96765,21.8313962 C70.3903306,18.6468223 73.2312082,14.8329522 75.2125783,13.5292663 C77.1939484,12.2255805 78.9142208,12.2255805 80.1021089,13.5292663 C81.2899969,14.8329522 81.2899969,16.5066317 78.9142208,18.4980554 C76.5384448,20.4894791 77.1646545,19.4670054 70.1222361,23.6673462 C68.1382004,24.8506934 64.9918679,28.0860489 60.6832387,33.3734128 Z" id="Path-7" stroke="#FFFFFF" fill="#640136"></path>
        </g>
    </g>
</svg>