<?xml version="1.0" encoding="UTF-8"?>
<svg width="1430px" height="1064px" viewBox="0 0 1430 1064" version="1.1" xmlns="http://www.w3.org/2000/svg" xmlns:xlink="http://www.w3.org/1999/xlink">
    <!-- Generator: Sketch 43.2 (39069) - http://www.bohemiancoding.com/sketch -->
    <title>logo-bgc-color</title>
    <desc>Created with Sketch.</desc>
    <defs>
        <path d="M443.050049,457.843445 C397.371443,453.156448 357.85476,430.926689 329.322375,394.234196 C305.2105,363.166099 295.163886,333.035402 295.163886,292.459397 C295.163886,240.232855 315.39107,197.782051 356.649166,163.500013 C398.710991,128.41449 460.866045,117.701354 514.849853,136.0476 C531.86212,141.805911 552.893032,153.724276 567.092247,165.776555 L571.780667,169.660067 L568.431796,173.27575 C566.556428,175.284464 563.475466,178.096662 561.466143,179.435804 L557.849362,182.114088 L546.865064,173.945321 C519.806183,153.85819 489.264475,144.752024 453.900393,146.22508 C415.455348,147.832051 383.708047,161.893043 355.979392,189.613284 C337.493621,208.093445 324.633955,230.189289 317.936212,254.963418 C314.185476,268.622668 312.711973,301.565563 315.257115,316.965697 C321.151129,354.193847 341.512267,387.136743 373.393523,411.2413 C398.978901,430.524946 425.903827,439.095456 460.598135,439.095456 C495.694308,439.095456 521.547596,430.658861 548.472522,410.303901 L558.117272,403.072533 L564.547105,408.69693 C568.163886,411.776957 571.110893,414.72307 571.110893,415.124812 C571.110893,418.070925 550.213935,433.203231 535.344946,440.702426 C507.8842,454.897332 474.395486,461.057386 443.050049,457.843445 Z" id="path-1"></path>
        <filter x="-12.1%" y="-19.2%" width="138.7%" height="132.3%" filterUnits="objectBoundingBox" id="filter-2">
            <feOffset dx="20" dy="-10" in="SourceAlpha" result="shadowOffsetOuter1"></feOffset>
            <feGaussianBlur stdDeviation="14.5" in="shadowOffsetOuter1" result="shadowBlurOuter1"></feGaussianBlur>
            <feColorMatrix values="0 0 0 0 0   0 0 0 0 0   0 0 0 0 0  0 0 0 0.392974411 0" type="matrix" in="shadowBlurOuter1"></feColorMatrix>
        </filter>
        <filter x="-4.0%" y="-12.4%" width="122.4%" height="118.7%" filterUnits="objectBoundingBox" id="filter-3">
            <feGaussianBlur stdDeviation="1" in="SourceAlpha" result="shadowBlurInner1"></feGaussianBlur>
            <feOffset dx="1" dy="2" in="shadowBlurInner1" result="shadowOffsetInner1"></feOffset>
            <feComposite in="shadowOffsetInner1" in2="SourceAlpha" operator="arithmetic" k2="-1" k3="1" result="shadowInnerInner1"></feComposite>
            <feColorMatrix values="0 0 0 0 0.282352941   0 0 0 0 0.388235294   0 0 0 0 0.525490196  0 0 0 0.100769928 0" type="matrix" in="shadowInnerInner1"></feColorMatrix>
        </filter>
        <path d="M608.618253,292.053619 L608.618253,130.017426 L617.995093,130.017426 L627.371933,130.017426 L627.371933,209.428552 L627.371933,288.839678 L631.122669,294.865818 C636.346909,303.034584 646.125613,311.337265 656.708047,316.55992 C665.147203,320.71126 666.084887,320.845174 682.293425,320.845174 C698.635918,320.845174 699.305692,320.71126 708.012758,316.426005 C718.997056,311.069437 729.713445,301.427614 735.473503,291.919705 C743.778705,278.126542 743.912659,275.983914 743.912659,199.384987 L743.912659,130.017426 L753.2895,130.017426 L762.66634,130.017426 L762.66634,198.715416 C762.532385,251.879357 762.13052,269.689946 760.657017,277.992627 C755.432777,307.453753 732.794406,331.290483 703.592247,338.254021 C693.545633,340.530563 674.657998,340.932306 664.611384,338.789678 C655.100589,336.780965 640.097645,329.549598 633.131992,323.523458 L627.371933,318.568633 L627.371933,386.329223 L627.371933,454.089812 L617.995093,454.089812 L608.618253,454.089812 L608.618253,292.053619 Z" id="path-4"></path>
        <filter x="-21.7%" y="-19.6%" width="169.5%" height="133.0%" filterUnits="objectBoundingBox" id="filter-5">
            <feOffset dx="20" dy="-10" in="SourceAlpha" result="shadowOffsetOuter1"></feOffset>
            <feGaussianBlur stdDeviation="14.5" in="shadowOffsetOuter1" result="shadowBlurOuter1"></feGaussianBlur>
            <feColorMatrix values="0 0 0 0 0   0 0 0 0 0   0 0 0 0 0  0 0 0 0.392974411 0" type="matrix" in="shadowBlurOuter1"></feColorMatrix>
        </filter>
        <filter x="-7.1%" y="-12.7%" width="140.2%" height="119.1%" filterUnits="objectBoundingBox" id="filter-6">
            <feGaussianBlur stdDeviation="1" in="SourceAlpha" result="shadowBlurInner1"></feGaussianBlur>
            <feOffset dx="1" dy="2" in="shadowBlurInner1" result="shadowOffsetInner1"></feOffset>
            <feComposite in="shadowOffsetInner1" in2="SourceAlpha" operator="arithmetic" k2="-1" k3="1" result="shadowInnerInner1"></feComposite>
            <feColorMatrix values="0 0 0 0 0.282352941   0 0 0 0 0.388235294   0 0 0 0 0.525490196  0 0 0 0.100769928 0" type="matrix" in="shadowInnerInner1"></feColorMatrix>
        </filter>
        <path d="M889.52159,457.689867 C854.291462,452.868956 821.338567,428.49657 805.665849,395.821503 C798.700196,381.224854 796.289009,371.716945 795.21737,354.442012 C794.279686,336.899251 796.155054,323.373915 802.049068,307.839867 C807.675172,292.707562 814.372915,282.79791 828.170265,269.004746 C852.148184,245.034103 876.260059,235.794023 911.222277,237.133165 C925.689401,237.668822 929.975957,238.472307 940.8263,242.087991 C947.791953,244.498446 958.106477,249.185444 963.598626,252.667213 C973.109421,258.559438 998.426889,281.994425 998.426889,284.940537 C998.426889,285.610108 994.274289,287.618822 989.050049,289.225792 L979.673209,292.305819 L970.028459,282.931824 C953.418057,266.996033 938.950932,259.764666 917.92002,256.952468 C899.300294,254.408098 883.627576,256.818554 866.481354,265.121234 C836.207556,279.583969 817.721786,306.232897 814.23896,340.113192 C813.70314,345.068017 813.70314,350.960242 814.23896,353.236784 L815.176644,357.388125 L914.169284,357.388125 L1013.16192,357.388125 L1013.16192,362.075122 C1013.16192,371.984773 1009.00932,387.78665 1003.24926,399.5711 C990.255643,425.9522 963.866536,447.378473 935.066241,455.011583 C922.742395,458.225524 902.113346,459.430752 889.52159,457.689867 Z M935.200196,434.656623 C949.533366,429.701797 958.910206,423.675658 970.430324,412.025122 C978.065751,404.392012 982.084396,399.035444 986.236997,390.866677 C989.317959,384.840537 991.729146,378.948312 991.729146,378.010913 C991.729146,376.403942 978.065751,376.136114 905.328263,376.136114 C837.14524,376.136114 818.92738,376.537856 818.92738,377.876998 C819.061335,380.689197 823.88371,390.464934 829.509814,398.633701 C841.431796,416.310377 861.926889,431.04094 882.154073,436.397508 C896.487242,440.28102 921.536801,439.477535 935.200196,434.656623 Z" id="path-7"></path>
        <filter x="-15.4%" y="-28.7%" width="149.0%" height="148.3%" filterUnits="objectBoundingBox" id="filter-8">
            <feOffset dx="20" dy="-10" in="SourceAlpha" result="shadowOffsetOuter1"></feOffset>
            <feGaussianBlur stdDeviation="14.5" in="shadowOffsetOuter1" result="shadowBlurOuter1"></feGaussianBlur>
            <feColorMatrix values="0 0 0 0 0   0 0 0 0 0   0 0 0 0 0  0 0 0 0.392974411 0" type="matrix" in="shadowBlurOuter1"></feColorMatrix>
        </filter>
        <filter x="-5.0%" y="-18.5%" width="128.4%" height="128.0%" filterUnits="objectBoundingBox" id="filter-9">
            <feGaussianBlur stdDeviation="1" in="SourceAlpha" result="shadowBlurInner1"></feGaussianBlur>
            <feOffset dx="1" dy="2" in="shadowBlurInner1" result="shadowOffsetInner1"></feOffset>
            <feComposite in="shadowOffsetInner1" in2="SourceAlpha" operator="arithmetic" k2="-1" k3="1" result="shadowInnerInner1"></feComposite>
            <feColorMatrix values="0 0 0 0 0.282352941   0 0 0 0 0.388235294   0 0 0 0 0.525490196  0 0 0 0.100769928 0" type="matrix" in="shadowInnerInner1"></feColorMatrix>
        </filter>
        <path d="M1092.32924,447.929759 C1080.94308,441.367962 1066.74387,427.842627 1061.65358,418.334718 L1057.50098,410.567694 L1057.36703,431.056568 L1057.36703,451.411528 L1047.99019,451.411528 L1038.61335,451.411528 L1038.61335,352.315013 L1038.61335,253.218499 L1047.99019,253.218499 L1057.36703,253.218499 L1057.36703,314.01555 C1057.36703,370.66126 1057.50098,375.348257 1060.04612,383.249196 C1066.47596,404.139812 1087.90873,427.574799 1105.99264,433.467024 C1109.74338,434.672252 1113.2262,435.87748 1113.36016,436.145308 C1114.56575,437.082708 1104.65309,452.75067 1102.91168,452.75067 C1101.84004,452.75067 1097.01766,450.474129 1092.32924,447.929759 Z" id="path-10"></path>
        <filter x="-44.8%" y="-31.8%" width="243.0%" height="153.6%" filterUnits="objectBoundingBox" id="filter-11">
            <feOffset dx="20" dy="-10" in="SourceAlpha" result="shadowOffsetOuter1"></feOffset>
            <feGaussianBlur stdDeviation="14.5" in="shadowOffsetOuter1" result="shadowBlurOuter1"></feGaussianBlur>
            <feColorMatrix values="0 0 0 0 0   0 0 0 0 0   0 0 0 0 0  0 0 0 0.392974411 0" type="matrix" in="shadowBlurOuter1"></feColorMatrix>
        </filter>
        <filter x="-14.7%" y="-20.5%" width="182.8%" height="131.1%" filterUnits="objectBoundingBox" id="filter-12">
            <feGaussianBlur stdDeviation="1" in="SourceAlpha" result="shadowBlurInner1"></feGaussianBlur>
            <feOffset dx="1" dy="2" in="shadowBlurInner1" result="shadowOffsetInner1"></feOffset>
            <feComposite in="shadowOffsetInner1" in2="SourceAlpha" operator="arithmetic" k2="-1" k3="1" result="shadowInnerInner1"></feComposite>
            <feColorMatrix values="0 0 0 0 0.282352941   0 0 0 0 0.388235294   0 0 0 0 0.525490196  0 0 0 0.100769928 0" type="matrix" in="shadowInnerInner1"></feColorMatrix>
        </filter>
        <path d="M1186.09764,447.929759 C1174.71148,441.367962 1160.51227,427.842627 1155.42198,418.334718 L1151.26938,410.567694 L1151.13543,431.056568 L1151.13543,451.411528 L1141.75859,451.411528 L1132.38175,451.411528 L1132.38175,352.315013 L1132.38175,253.218499 L1141.75859,253.218499 L1151.13543,253.218499 L1151.13543,314.01555 C1151.13543,370.66126 1151.26938,375.348257 1153.81452,383.249196 C1160.24436,404.139812 1181.67713,427.574799 1199.76104,433.467024 C1203.51178,434.672252 1206.9946,435.87748 1207.12856,436.145308 C1208.33415,437.082708 1198.42149,452.75067 1196.68008,452.75067 C1195.60844,452.75067 1190.78606,450.474129 1186.09764,447.929759 Z" id="path-13"></path>
        <filter x="-44.8%" y="-31.8%" width="243.0%" height="153.6%" filterUnits="objectBoundingBox" id="filter-14">
            <feOffset dx="20" dy="-10" in="SourceAlpha" result="shadowOffsetOuter1"></feOffset>
            <feGaussianBlur stdDeviation="14.5" in="shadowOffsetOuter1" result="shadowBlurOuter1"></feGaussianBlur>
            <feColorMatrix values="0 0 0 0 0   0 0 0 0 0   0 0 0 0 0  0 0 0 0.392974411 0" type="matrix" in="shadowBlurOuter1"></feColorMatrix>
        </filter>
        <filter x="-14.7%" y="-20.5%" width="182.8%" height="131.1%" filterUnits="objectBoundingBox" id="filter-15">
            <feGaussianBlur stdDeviation="1" in="SourceAlpha" result="shadowBlurInner1"></feGaussianBlur>
            <feOffset dx="1" dy="2" in="shadowBlurInner1" result="shadowOffsetInner1"></feOffset>
            <feComposite in="shadowOffsetInner1" in2="SourceAlpha" operator="arithmetic" k2="-1" k3="1" result="shadowInnerInner1"></feComposite>
            <feColorMatrix values="0 0 0 0 0.282352941   0 0 0 0 0.388235294   0 0 0 0 0.525490196  0 0 0 0.100769928 0" type="matrix" in="shadowInnerInner1"></feColorMatrix>
        </filter>
        <path d="M1239.9475,525.7705 C1240.34936,524.8331 1256.42395,490.283234 1275.71344,449.037658 C1295.00294,407.792082 1311.61335,372.170902 1312.55103,369.89436 C1314.29244,366.010848 1313.62267,364.136049 1288.43916,310.302537 L1262.58587,254.862055 L1272.09666,254.460312 C1277.18695,254.192484 1282.00932,254.594226 1282.54514,255.129883 C1283.75074,256.335111 1409.6683,525.502671 1409.6683,526.841814 C1409.6683,527.243556 1405.11384,527.37747 1399.48773,527.109642 L1389.44112,526.707899 L1357.02404,458.143824 C1339.342,420.380017 1324.60697,389.713663 1324.47301,389.847578 C1324.33906,389.981492 1309.73798,420.915674 1292.05594,458.411653 L1260.04073,526.707899 L1249.59225,527.109642 C1241.55496,527.37747 1239.41168,527.109642 1239.9475,525.7705 Z" id="path-16"></path>
        <filter x="-19.7%" y="-23.3%" width="163.0%" height="139.2%" filterUnits="objectBoundingBox" id="filter-17">
            <feOffset dx="20" dy="-10" in="SourceAlpha" result="shadowOffsetOuter1"></feOffset>
            <feGaussianBlur stdDeviation="14.5" in="shadowOffsetOuter1" result="shadowBlurOuter1"></feGaussianBlur>
            <feColorMatrix values="0 0 0 0 0   0 0 0 0 0   0 0 0 0 0  0 0 0 0.392974411 0" type="matrix" in="shadowBlurOuter1"></feColorMatrix>
        </filter>
        <filter x="-6.5%" y="-15.0%" width="136.5%" height="122.7%" filterUnits="objectBoundingBox" id="filter-18">
            <feGaussianBlur stdDeviation="1" in="SourceAlpha" result="shadowBlurInner1"></feGaussianBlur>
            <feOffset dx="1" dy="2" in="shadowBlurInner1" result="shadowOffsetInner1"></feOffset>
            <feComposite in="shadowOffsetInner1" in2="SourceAlpha" operator="arithmetic" k2="-1" k3="1" result="shadowInnerInner1"></feComposite>
            <feColorMatrix values="0 0 0 0 0.282352941   0 0 0 0 0.388235294   0 0 0 0 0.525490196  0 0 0 0.100769928 0" type="matrix" in="shadowInnerInner1"></feColorMatrix>
        </filter>
        <path d="M1497.40873,1118.70603 C1471.15358,1112.14424 1434.98577,1098.75282 1410.73994,1086.70054 C1398.01423,1080.27265 1394.93327,1079.33525 1383.94897,1078.13003 C1322.46369,1071.70214 1098.62512,1068.4882 990.523553,1072.50563 C966.679588,1073.44303 946.854269,1073.84477 946.586359,1073.57694 C946.184495,1073.1752 949.801276,1071.03257 954.355741,1068.62212 C974.44897,1058.57855 997.62316,1042.64276 1016.7787,1026.0374 L1026.2895,1017.73472 L1061.92149,1017.86863 L1097.55348,1018.00255 L1097.55348,963.901207 L1097.55348,909.799866 L1102.2419,895.337131 C1121.5314,836.548794 1120.99558,765.17252 1100.7684,706.919839 L1096.21394,693.930161 L1096.21394,656.702011 C1096.21394,613.71555 1093.9367,521.582574 1092.73111,518.100804 C1092.06133,515.824263 1094.33857,515.690349 1135.86457,515.690349 L1179.66781,515.690349 L1178.73013,533.500938 C1173.37193,643.578418 1169.88911,799.052815 1169.88911,933.368767 L1169.88911,1018.27038 L1232.57998,1017.33298 C1267.00638,1016.93123 1298.88763,1016.12775 1303.30815,1015.72601 L1311.61335,1014.78861 L1304.37978,1005.95027 C1274.64181,969.123861 1266.3366,926.539142 1282.41119,892.257105 C1296.20854,862.662064 1325.14279,838.423593 1388.50343,803.204156 C1444.76447,771.868231 1462.44652,756.200268 1470.2159,730.890483 C1472.49313,723.257373 1472.895,719.239946 1472.35918,707.723324 C1471.82336,694.599732 1471.42149,693.126676 1465.92934,682.145711 C1452.66781,655.228954 1419.71492,630.856568 1370.28557,611.439008 C1353.67517,605.011126 1320.0525,594.833646 1305.71933,592.021448 C1301.16487,591.084048 1296.87831,590.012735 1295.94063,589.477078 C1294.86899,588.807507 1297.54809,579.701341 1304.64769,559.078552 C1310.2738,543.008847 1315.09617,529.617426 1315.23013,529.349598 C1315.8999,528.546113 1343.36065,536.045308 1359.70314,541.267963 C1458.96369,573.541287 1528.48626,630.856568 1548.57949,697.144102 C1551.79441,707.991153 1552.19627,711.205094 1552.19627,729.953083 C1552.19627,748.968901 1551.92836,751.647185 1548.57949,761.422922 C1541.47988,782.849196 1527.68253,800.391957 1503.83857,818.202547 C1491.24681,827.710456 1473.56477,838.557507 1411.94553,874.848257 C1382.60942,892.12319 1367.33857,905.514611 1358.76546,921.718231 C1344.03042,949.170643 1357.55986,982.113539 1394.5314,1008.36072 C1419.1791,1026.0374 1467.80471,1046.39236 1503.4367,1054.15938 C1511.20608,1055.76635 1518.03778,1057.64115 1518.70756,1058.17681 C1519.64524,1059.11421 1514.28705,1080.80831 1505.31207,1112.67989 C1503.30275,1119.50952 1502.76693,1120.04517 1497.40873,1118.70603 Z" id="path-19"></path>
        <filter x="-5.5%" y="-10.5%" width="117.7%" height="117.7%" filterUnits="objectBoundingBox" id="filter-20">
            <feOffset dx="20" dy="-10" in="SourceAlpha" result="shadowOffsetOuter1"></feOffset>
            <feGaussianBlur stdDeviation="14.5" in="shadowOffsetOuter1" result="shadowBlurOuter1"></feGaussianBlur>
            <feColorMatrix values="0 0 0 0 0   0 0 0 0 0   0 0 0 0 0  0 0 0 0.392974411 0" type="matrix" in="shadowBlurOuter1"></feColorMatrix>
        </filter>
        <filter x="-1.8%" y="-6.8%" width="110.2%" height="110.3%" filterUnits="objectBoundingBox" id="filter-21">
            <feGaussianBlur stdDeviation="1" in="SourceAlpha" result="shadowBlurInner1"></feGaussianBlur>
            <feOffset dx="1" dy="2" in="shadowBlurInner1" result="shadowOffsetInner1"></feOffset>
            <feComposite in="shadowOffsetInner1" in2="SourceAlpha" operator="arithmetic" k2="-1" k3="1" result="shadowInnerInner1"></feComposite>
            <feColorMatrix values="0 0 0 0 0.282352941   0 0 0 0 0.388235294   0 0 0 0 0.525490196  0 0 0 0.100769928 0" type="matrix" in="shadowInnerInner1"></feColorMatrix>
        </filter>
        <path d="M191.214917,1115.49209 C193.224239,1093.12842 194.965653,917.700804 194.161923,804.409383 C193.358194,682.815282 191.482826,574.478686 189.875368,563.497721 L189.071639,557.605496 L211.71001,558.408981 C333.073111,563.095979 468.367517,607.287668 556.777723,671.29866 L572.584396,682.815282 L570.173209,686.297051 C564.011286,695.671046 550.88371,719.909517 546.329244,730.756568 L541.105005,742.674933 L531.192345,733.300938 C482.834642,688.17185 407.016192,652.684584 325.303729,637.016622 C312.979882,634.74008 272.65947,628.981769 268.372915,628.981769 C267.569185,628.981769 267.033366,708.125067 267.033366,846.592359 L267.033366,1064.20295 L283.643768,1064.20295 C326.509323,1064.20295 385.315505,1059.24812 420.947498,1052.68633 C479.48577,1041.83928 520.074092,1025.90349 557.045633,999.254558 C559.72473,997.379759 560.26055,998.04933 570.709028,1013.71729 C576.603042,1022.68954 585.845927,1035.14357 591.070167,1041.43753 C596.294406,1047.7315 600.580962,1053.22198 600.580962,1053.62373 C600.580962,1056.56984 559.99264,1076.12131 535.746811,1084.95965 C459.258587,1112.54598 369.374877,1124.46434 236.357704,1124.46434 L190.277233,1124.46434 L191.214917,1115.49209 Z" id="path-22"></path>
        <filter x="-8.1%" y="-11.2%" width="126.0%" height="118.9%" filterUnits="objectBoundingBox" id="filter-23">
            <feOffset dx="20" dy="-10" in="SourceAlpha" result="shadowOffsetOuter1"></feOffset>
            <feGaussianBlur stdDeviation="14.5" in="shadowOffsetOuter1" result="shadowBlurOuter1"></feGaussianBlur>
            <feColorMatrix values="0 0 0 0 0   0 0 0 0 0   0 0 0 0 0  0 0 0 0.392974411 0" type="matrix" in="shadowBlurOuter1"></feColorMatrix>
        </filter>
        <filter x="-2.7%" y="-7.2%" width="115.1%" height="110.9%" filterUnits="objectBoundingBox" id="filter-24">
            <feGaussianBlur stdDeviation="1" in="SourceAlpha" result="shadowBlurInner1"></feGaussianBlur>
            <feOffset dx="1" dy="2" in="shadowBlurInner1" result="shadowOffsetInner1"></feOffset>
            <feComposite in="shadowOffsetInner1" in2="SourceAlpha" operator="arithmetic" k2="-1" k3="1" result="shadowInnerInner1"></feComposite>
            <feColorMatrix values="0 0 0 0 0.282352941   0 0 0 0 0.388235294   0 0 0 0 0.525490196  0 0 0 0.100769928 0" type="matrix" in="shadowInnerInner1"></feColorMatrix>
        </filter>
        <path d="M782.089794,1057.1055 C679.614328,1041.03579 599.509323,964.169034 578.880275,861.992493 C576.201178,848.8689 575.799313,842.976675 575.799313,816.059919 C575.933268,783.384852 576.736997,775.885656 583.836605,750.308042 C601.652601,685.761394 648.268891,629.249597 708.414622,599.1189 C729.445535,588.673592 748.06526,582.111796 770.569676,577.424799 C786.10844,574.076943 789.993131,573.809115 818.257605,573.809115 C846.52208,573.809115 850.406771,574.076943 865.945535,577.424799 C959.57998,597.378016 1031.9156,666.343833 1054.42002,757.137667 C1060.04612,779.769168 1060.7159,786.063136 1060.7159,816.72949 C1060.7159,842.708847 1060.31403,849.002815 1057.63494,861.992493 C1036.87193,964.704691 956.632974,1041.43753 853.085868,1057.23941 C838.216879,1059.51595 796.958783,1059.38204 782.089794,1057.1055 Z" id="path-25"></path>
        <filter x="-6.9%" y="-13.1%" width="122.1%" height="122.1%" filterUnits="objectBoundingBox" id="filter-26">
            <feOffset dx="20" dy="-10" in="SourceAlpha" result="shadowOffsetOuter1"></feOffset>
            <feGaussianBlur stdDeviation="14.5" in="shadowOffsetOuter1" result="shadowBlurOuter1"></feGaussianBlur>
            <feColorMatrix values="0 0 0 0 0   0 0 0 0 0   0 0 0 0 0  0 0 0 0.392974411 0" type="matrix" in="shadowBlurOuter1"></feColorMatrix>
        </filter>
        <filter x="-2.3%" y="-8.5%" width="112.8%" height="112.8%" filterUnits="objectBoundingBox" id="filter-27">
            <feGaussianBlur stdDeviation="1" in="SourceAlpha" result="shadowBlurInner1"></feGaussianBlur>
            <feOffset dx="1" dy="2" in="shadowBlurInner1" result="shadowOffsetInner1"></feOffset>
            <feComposite in="shadowOffsetInner1" in2="SourceAlpha" operator="arithmetic" k2="-1" k3="1" result="shadowInnerInner1"></feComposite>
            <feColorMatrix values="0 0 0 0 0.282352941   0 0 0 0 0.388235294   0 0 0 0 0.525490196  0 0 0 0.100769928 0" type="matrix" in="shadowInnerInner1"></feColorMatrix>
        </filter>
    </defs>
    <g id="Page-1" stroke="none" stroke-width="1" fill="none" fill-rule="evenodd">
        <g id="logo-shadow" transform="translate(-157.000000, -89.000000)" fill-rule="nonzero">
            <g id="Shape">
                <use fill="black" fill-opacity="1" filter="url(#filter-2)" xlink:href="#path-1"></use>
                <use fill="#EFF4FB" fill-rule="evenodd" xlink:href="#path-1"></use>
                <use fill="black" fill-opacity="1" filter="url(#filter-3)" xlink:href="#path-1"></use>
            </g>
            <g id="Shape" transform="translate(685.642296, 292.053619) scale(-1, 1) rotate(-180.000000) translate(-685.642296, -292.053619) ">
                <use fill="black" fill-opacity="1" filter="url(#filter-5)" xlink:href="#path-4"></use>
                <use fill="#EFF4FB" fill-rule="evenodd" xlink:href="#path-4"></use>
                <use fill="black" fill-opacity="1" filter="url(#filter-6)" xlink:href="#path-4"></use>
            </g>
            <g id="Shape" transform="translate(904.075087, 347.747261) scale(-1, 1) rotate(-180.000000) translate(-904.075087, -347.747261) ">
                <use fill="black" fill-opacity="1" filter="url(#filter-8)" xlink:href="#path-7"></use>
                <use fill="#EFF4FB" fill-rule="evenodd" xlink:href="#path-7"></use>
                <use fill="black" fill-opacity="1" filter="url(#filter-9)" xlink:href="#path-7"></use>
            </g>
            <g id="Shape" transform="translate(1076.037431, 352.984584) scale(-1, 1) rotate(-180.000000) translate(-1076.037431, -352.984584) ">
                <use fill="black" fill-opacity="1" filter="url(#filter-11)" xlink:href="#path-10"></use>
                <use fill="#EFF4FB" fill-rule="evenodd" xlink:href="#path-10"></use>
                <use fill="black" fill-opacity="1" filter="url(#filter-12)" xlink:href="#path-10"></use>
            </g>
            <g id="Shape" transform="translate(1169.805832, 352.984584) scale(-1, 1) rotate(-180.000000) translate(-1169.805832, -352.984584) ">
                <use fill="black" fill-opacity="1" filter="url(#filter-14)" xlink:href="#path-13"></use>
                <use fill="#EFF4FB" fill-rule="evenodd" xlink:href="#path-13"></use>
                <use fill="black" fill-opacity="1" filter="url(#filter-15)" xlink:href="#path-13"></use>
            </g>
            <g id="Shape" transform="translate(1324.769191, 390.812022) scale(-1, 1) rotate(-180.000000) translate(-1324.769191, -390.812022) ">
                <use fill="black" fill-opacity="1" filter="url(#filter-17)" xlink:href="#path-16"></use>
                <use fill="#EFF4FB" fill-rule="evenodd" xlink:href="#path-16"></use>
                <use fill="black" fill-opacity="1" filter="url(#filter-18)" xlink:href="#path-16"></use>
            </g>
            <g id="Shape" transform="translate(1249.376047, 817.492045) scale(-1, 1) rotate(-180.000000) translate(-1249.376047, -817.492045) ">
                <use fill="black" fill-opacity="1" filter="url(#filter-20)" xlink:href="#path-19"></use>
                <use fill="#EFF4FB" fill-rule="evenodd" xlink:href="#path-19"></use>
                <use fill="black" fill-opacity="1" filter="url(#filter-21)" xlink:href="#path-19"></use>
            </g>
            <g id="Shape" transform="translate(394.826300, 841.034920) scale(-1, 1) rotate(-180.000000) translate(-394.826300, -841.034920) ">
                <use fill="black" fill-opacity="1" filter="url(#filter-23)" xlink:href="#path-22"></use>
                <use fill="#EFF4FB" fill-rule="evenodd" xlink:href="#path-22"></use>
                <use fill="black" fill-opacity="1" filter="url(#filter-24)" xlink:href="#path-22"></use>
            </g>
            <g id="Shape" transform="translate(818.257605, 816.345225) scale(-1, 1) rotate(-180.000000) translate(-818.257605, -816.345225) ">
                <use fill="black" fill-opacity="1" filter="url(#filter-26)" xlink:href="#path-25"></use>
                <use fill="#EFF4FB" fill-rule="evenodd" xlink:href="#path-25"></use>
                <use fill="black" fill-opacity="1" filter="url(#filter-27)" xlink:href="#path-25"></use>
            </g>
        </g>
    </g>
</svg>