<?xml version="1.0" encoding="UTF-8"?>
<svg width="470px" height="188px" viewBox="0 0 470 188" version="1.1" xmlns="http://www.w3.org/2000/svg" xmlns:xlink="http://www.w3.org/1999/xlink">
    <!-- Generator: Sketch 55.2 (78181) - https://sketchapp.com -->
    <title>logo_21s</title>
    <desc>Created with Sketch.</desc>
    <g id="Page-1" stroke="none" stroke-width="1" fill="none" fill-rule="evenodd">
        <g id="logo_21s" fill="#640136" fill-rule="nonzero">
            <path d="M244.97,76.505 C235.16,75.175 228.052,74.51 223.647,74.51 C219.24,74.51 216.185,75.03 214.482,76.068 C212.777,77.108 211.926,78.748 211.926,80.993 C211.926,83.238 212.861,84.818 214.731,85.731 C216.603,86.648 221.008,87.708 227.951,88.911 C234.891,90.118 239.815,92.011 242.726,94.586 C245.634,97.164 247.09,101.736 247.09,108.303 C247.09,114.87 244.99,119.693 240.792,122.767 C236.592,125.843 230.462,127.381 222.4,127.381 C217.328,127.381 210.928,126.673 203.197,125.261 L199.331,124.637 L199.831,113.29 C209.807,114.62 216.996,115.284 221.403,115.284 C225.808,115.284 228.947,114.744 230.818,113.664 C232.688,112.584 233.623,110.794 233.623,108.302 C233.623,105.808 232.729,104.082 230.943,103.127 C229.153,102.172 224.873,101.132 218.099,100.009 C211.323,98.886 206.356,97.121 203.199,94.709 C200.039,92.299 198.459,87.893 198.459,81.491 C198.459,75.091 200.642,70.311 205.006,67.151 C209.37,63.993 214.96,62.413 221.778,62.413 C227.098,62.413 233.623,63.079 241.354,64.408 L245.22,65.155 L244.97,76.503" id="Fill-1"></path>
            <path d="M293.724,75.258 L276.516,75.258 L276.516,102.69 C276.516,107.762 276.89,111.128 277.638,112.79 C278.386,114.454 280.298,115.284 283.374,115.284 L293.599,114.91 L294.222,125.76 C288.652,126.838 284.412,127.38 281.502,127.38 C274.436,127.38 269.595,125.76 266.976,122.517 C264.358,119.274 263.048,113.164 263.048,104.187 L263.048,75.257 L255.068,75.257 L255.068,63.662 L263.048,63.662 L263.048,45.58 L276.514,45.58 L276.514,63.66 L293.722,63.66 L293.722,75.26" id="Fill-2"></path>
            <path d="M304.82,126.008 L304.82,63.66 L318.286,63.66 L318.286,71.143 C325.352,66.573 332.418,63.62 339.486,62.289 L339.486,75.879 C332.334,77.295 326.224,79.122 321.156,81.366 L318.411,82.489 L318.411,126.007 L304.821,126.007" id="Fill-3"></path>
            <path d="M387.616,63.66 L401.082,63.66 L401.082,126.008 L387.616,126.008 L387.616,122.143 C381.546,125.633 375.936,127.38 370.783,127.38 C362.219,127.38 356.483,125.072 353.573,120.46 C350.663,115.846 349.21,107.762 349.21,96.206 L349.21,63.66 L362.802,63.66 L362.802,96.33 C362.802,103.812 363.425,108.843 364.672,111.42 C365.919,113.996 368.827,115.284 373.402,115.284 C377.89,115.284 382.004,114.454 385.745,112.79 L387.615,112.042 L387.615,63.662" id="Fill-4"></path>
            <path d="M431.133,126.008 L417.54,126.008 L417.54,63.66 L431.008,63.66 L431.008,67.526 C437.075,64.036 442.812,62.289 448.216,62.289 C456.528,62.289 462.201,64.639 465.236,69.334 C468.271,74.031 469.788,81.784 469.788,92.589 L469.788,126.007 L456.322,126.007 L456.322,92.964 C456.322,86.23 455.592,81.451 454.139,78.624 C452.683,75.799 449.711,74.384 445.223,74.384 C440.983,74.384 436.909,75.217 433.003,76.879 L431.133,77.626 L431.133,126.006" id="Fill-5"></path>
            <path d="M162.264,94.05 L68.313,188 L68.393,158.87 L68.413,147.24 L68.423,144.05 L68.423,142.76 L68.443,137.2 L68.443,136.45 L68.423,136.45 L68.423,129.67 C68.433,129.66 68.443,129.66 68.453,129.65 L68.473,124.42 C68.453,124.42 68.443,124.43 68.423,124.44 L68.423,116.8 C68.443,116.78 68.473,116.76 68.483,116.75 L68.503,111.09 C68.473,111.12 68.453,111.15 68.423,111.18 L68.423,96.08 C69.013,90 66.973,83.71 62.323,79.05 C54.053,70.79 40.593,70.79 32.323,79.05 C24.053,87.33 24.063,100.78 32.323,109.05 C39.053,115.78 49.183,117.03 57.183,112.83 C59.033,111.86 60.773,110.6 62.323,109.05 C62.343,109.02 62.363,109 62.393,108.98 L62.393,138.94 C56.053,141.05 49.283,141.84 42.563,141.16 C31.743,140.08 21.543,135.24 13.843,127.53 C2.593,116.28 -1.797,100.74 0.663,86.13 L0.693,85.91 C4.733,63.74 24.153,46.92 47.483,46.92 C58.983,46.92 69.523,51 77.743,57.78 C78.139,58.107 78.543,58.46 78.543,58.46 C81.613,61.126 83.663,63.57 84.513,64.62 C86.718,67.347 88.193,69.79 89.043,71.31 C90.17,73.328 91.701,76.42 92.931,80.394 C94.324,84.894 94.851,88.981 95.004,92.28 L95.004,126.01 L126.964,94.05 L95.004,62.1 L95.004,71.33 C93.609,68.466 91.691,65.164 89.044,61.77 C83.987,55.288 78.381,51.178 74.294,48.7 C73.387,48.156 72.412,47.606 71.368,47.064 C70.316,46.517 69.298,46.031 68.324,45.6 L68.324,40.81 L68.334,0.12 L162.264,94.05" id="Fill-7"></path>
        </g>
    </g>
</svg>