<?xml version="1.0" encoding="UTF-8"?>
<svg width="1058px" height="1058px" viewBox="0 0 1058 1058" version="1.1" xmlns="http://www.w3.org/2000/svg" xmlns:xlink="http://www.w3.org/1999/xlink">
    <!-- Generator: Sketch 55.2 (78181) - https://sketchapp.com -->
    <title>projects-mr-dot</title>
    <desc>Created with Sketch.</desc>
    <defs>
        <radialGradient cx="50%" cy="50%" fx="50%" fy="50%" r="47.6200476%" id="radialGradient-1">
            <stop stop-color="#FCFCFC" offset="0%"></stop>
            <stop stop-color="#EFF4FB" offset="100%"></stop>
        </radialGradient>
    </defs>
    <g id="Page-1" stroke="none" stroke-width="1" fill="none" fill-rule="evenodd">
        <g id="projects-mr-dot">
            <rect id="Rectangle-4" fill="url(#radialGradient-1)" fill-rule="nonzero" x="0" y="0" width="1058" height="1058"></rect>
            <path d="M330.391806,679.088036 C329.547454,679.99513 330.986322,679.594289 332.553897,679.34865 C335.508063,678.885732 339.749879,678.431709 345.172956,677.998552 C355.764841,677.152547 370.684506,676.398891 389.138721,675.764093 C424.553777,674.545867 471.724368,673.81263 520.136412,673.704372 C569.547,673.593881 616.476675,674.139986 651.556175,675.285743 C670.224863,675.895494 685.27787,676.664944 696.030112,677.577257 C701.551886,678.045771 705.892391,678.548481 708.949576,679.072842 C710.93715,679.413746 712.360638,679.844634 711.761904,679.247181 C711.092228,678.578937 711.232212,679.076982 711.328119,680.130636 C711.510361,682.132775 711.519113,685.000831 711.345107,688.639056 C710.99971,695.8608 709.950023,705.888733 708.257212,718.324848 C705.130876,741.292257 699.876263,771.966834 693.418309,805.454263 C687.439489,836.457163 680.792357,867.942829 675.082379,892.386677 C672.232528,904.586609 669.699706,914.671887 667.648231,921.966553 C666.611503,925.652962 665.708585,928.587197 664.965089,930.689389 C664.422608,932.223218 663.953071,933.253782 664.171695,933.008424 C664.902141,932.188661 664.083131,932.472723 662.949302,932.698305 C660.728927,933.140062 657.534087,933.574444 653.457554,933.985564 C645.433959,934.794745 634.178302,935.497694 620.251304,936.072712 C593.758051,937.166566 558.422166,937.760559 521.653111,937.760559 C484.873967,937.760559 449.426782,937.171319 422.726586,936.078252 C408.684218,935.503378 397.289495,934.800019 389.103293,933.989406 C384.934839,933.576639 381.643337,933.139996 379.316911,932.693559 C377.856585,932.413324 376.882651,932.096157 377.420771,932.593435 C377.743244,932.891433 377.273361,931.975587 376.72425,930.533241 C375.935016,928.460171 374.997369,925.542715 373.938013,921.857661 C371.85209,914.601607 369.33767,904.525892 366.518492,892.169123 C361.08503,868.353656 354.724135,836.949547 348.814718,804.858057 C342.770116,772.032435 337.644772,740.930043 334.484927,717.607693 C332.8081,705.23128 331.70778,695.224782 331.249531,688.053573 C331.018197,684.433388 330.954684,681.587512 331.055119,679.610442 C331.099283,678.741048 331.214713,678.203981 330.391806,679.088036 L330.391806,679.088036 Z" id="Rectangle-5" stroke="#DBE2EB" stroke-width="12"></path>
            <path d="M673.317108,927.578627 C673.317108,927.578627 804.716318,857.625036 791.171399,850.225718 C777.626481,842.8264 688.338728,850.225718 688.338728,850.225718 L673.317108,927.578627 Z" id="Path-2" stroke="#DBE2EB" stroke-width="12"></path>
            <path d="M508.634677,826.136427 C525.20322,826.136427 546.47531,813.489235 546.47531,797.288882 C546.47531,781.08853 533.197246,762.492792 516.628704,762.492792 C500.060161,762.492792 480.740367,778.114257 480.740367,794.31461 C480.740367,810.514962 492.066135,826.136427 508.634677,826.136427 Z" id="Oval-2" fill-opacity="0.7" fill="#5B0030" fill-rule="nonzero"></path>
            <g id="mr-dot" transform="translate(348.000000, 445.000000)" stroke="#DBE2EB">
                <path d="M345.226858,232.187653 C350.92053,214.821196 354,196.270222 354,177 C354,79.2455993 274.754401,0 177,0 C79.2455993,0 0,79.2455993 0,177 C0,196.061635 3.01316421,214.419507 8.58917042,231.623295 C26.4944112,232.187653 326.325361,231.623295 345.226858,232.187653 Z" id="Path" stroke-width="12"></path>
                <path d="M51.8377899,110.576589 C45.8591401,179.693855 90.4222075,212.477889 185.526992,208.928692 C280.631777,205.379494 318.176251,169.463336 298.160414,101.180217" id="Path-4" stroke-width="12" stroke-linecap="round"></path>
                <path d="M215.034142,75.1531099 C223.186288,63.1721442 231.933013,62.691118 240.415281,65.7846723 C248.897549,68.8782267 253.204346,75.1094619 255.08303,82.1295205" id="Path-7" stroke-width="8" stroke-linecap="round"></path>
                <path d="M95.034142,75.1531099 C103.186288,63.1721442 111.933013,62.691118 120.415281,65.7846723 C128.897549,68.8782267 133.204346,75.1094619 135.08303,82.1295205" id="Path-7-Copy" stroke-width="8" stroke-linecap="round" transform="translate(115.058586, 73.151093) scale(-1, 1) translate(-115.058586, -73.151093) "></path>
            </g>
            <path d="M184.925081,288.872582 C162.116473,263.646869 227.736803,322.731634 266.580279,370.990493 C305.423756,419.249353 339.524425,480.868693 338.26513,482.748056 C337.005836,484.627419 289.756941,414.472276 261.569135,378.469094 C233.381329,342.465912 201.722056,307.449589 184.925081,288.872582 Z M405.409617,217.864428 C419.932003,244.081731 458.792524,423.955355 456.054454,428.09223 C453.316384,432.229104 390.88723,191.647124 405.409617,217.864428 Z M840.927526,376.870424 C859.042487,376.870424 773.012885,394.872663 745.463492,412.617564 C717.9141,430.362465 690.539421,459.000526 689.712353,457.656214 C688.885285,456.311902 704.619972,430.438404 742.036183,407.046833 C779.452394,383.655263 822.239043,376.870424 840.927526,376.870424 Z M549.83472,322.891815 C540.629669,374.784199 547.246769,398.681113 549.83472,405.730693 C552.422671,412.780273 559.03977,270.999431 549.83472,322.891815 Z M353.736037,338.638725 C399.438745,378.522681 396.230034,418.460954 399.430099,424.571229 C402.630164,430.681503 386.440507,394.556746 370.184239,370.045287 C353.927972,345.533829 328.71167,316.800396 353.736037,338.638725 Z M655.054411,387.384858 C657.220178,382.504997 678.325185,329.683211 691.610728,286.71063 C704.896271,243.73805 703.352864,230.671529 705.584961,232.627102 C707.159687,234.006743 706.802343,271.422913 691.610728,305.896631 C676.419113,340.370348 625.913539,453.044444 655.054411,387.384858 Z" id="Path-18" stroke-opacity="0.1" stroke="#1D3D68" stroke-width="10"></path>
        </g>
    </g>
</svg>