<?xml version="1.0" encoding="UTF-8"?>
<svg width="213px" height="122px" viewBox="0 0 213 122" version="1.1" xmlns="http://www.w3.org/2000/svg" xmlns:xlink="http://www.w3.org/1999/xlink">
    <!-- Generator: Sketch 43.2 (39069) - http://www.bohemiancoding.com/sketch -->
    <title>Combined Shape</title>
    <desc>Created with Sketch.</desc>
    <defs></defs>
    <g id="Page-1" stroke="none" stroke-width="1" fill="none" fill-rule="evenodd">
        <path d="M16.4856231,114.036311 L17.0076872,113.765239 C17.0025861,113.677478 17,113.589041 17,113.5 C17,111.014719 19.0147186,109 21.5,109 C21.6690204,109 21.8358643,109.009318 22.0000462,109.027469 C22.0000154,109.018317 22,109.00916 22,109 C22,104.581722 25.581722,101 30,101 C30.6331832,101 31.2491855,101.07356 31.8399271,101.212602 C33.7955031,95.8381954 38.9495223,92 45,92 C48.019254,92 50.8152792,92.955756 53.102032,94.5812244 C54.8005839,90.9969328 58.297858,88.4310479 62.4281317,88.0492922 C62.1493555,87.0810351 62,86.0579595 62,85 C62,78.9248678 66.9248678,74 73,74 C75.0660441,74 76.9990533,74.5695899 78.6505632,75.5603051 C81.5097946,73.1126622 85.1045689,71.4994791 89.0575677,71.0980738 C89.500069,67.6580968 92.4396186,65 96,65 C96.0014327,65 96.0028653,65.0000004 96.0042977,65.0000013 C96.0014365,64.8336775 96,64.6670065 96,64.5 C96,48.7598846 108.759885,36 124.5,36 C130.168273,36 135.450058,37.6547501 139.888634,40.5075283 C142.181545,37.7532064 145.636031,36 149.5,36 C150.715936,36 151.891322,36.173615 153.002721,36.4974079 C154.255745,35.5571103 155.812813,35 157.5,35 C159.004571,35 160.405666,35.4430371 161.579943,36.2057708 C162.658803,33.7304223 165.12732,32 168,32 C168,22.6111593 175.611159,15 185,15 C185.736869,15 186.462789,15.0468822 187.174938,15.1378265 C187.059864,14.4423017 187,13.7281418 187,13 C187,5.82029825 192.820298,0 200,0 C206.849662,0 212.462028,5.29749753 212.963537,12.0189328 L213,12 L213,120 L9.46375697,120 C7.38857566,121.706965 0,121.373632 0,119 C0,116.238576 2.23857625,114 5,114 C6.63559898,114 8.08777124,114.785343 9.00000003,115.999513 C9.00026342,113.790598 10.7910235,112 13,112 C14.4955041,112 15.7993205,112.820712 16.4856231,114.036311 Z" id="Combined-Shape" fill="#1D3D68" transform="translate(106.500000, 60.535534) scale(1, -1) translate(-106.500000, -60.535534) "></path>
    </g>
</svg>