<?xml version="1.0" encoding="UTF-8"?>
<svg width="2558px" height="348px" viewBox="0 0 2558 348" version="1.1" xmlns="http://www.w3.org/2000/svg" xmlns:xlink="http://www.w3.org/1999/xlink">
    <!-- Generator: Sketch 55.2 (78181) - https://sketchapp.com -->
    <title>Artboard</title>
    <desc>Created with Sketch.</desc>
    <defs>
        <path d="M1821.56144,265.363271 C1830.89044,258.832157 1842.2477,255 1854.5,255 C1886.25637,255 1912,280.743627 1912,312.5 C1912,344.256373 1886.25637,370 1854.5,370 C1825.16026,370 1800.95295,348.025421 1797.43855,319.636733 C1788.10955,326.167845 1776.7523,330 1764.5,330 C1732.74363,330 1707,304.256373 1707,272.5 C1707,240.743627 1732.74363,215 1764.5,215 C1793.83974,215 1818.04705,236.974579 1821.56145,265.363267 Z M1457.05769,235.098902 C1457.01936,234.237395 1457,233.370959 1457,232.5 C1457,200.743627 1482.74363,175 1514.5,175 C1546.25637,175 1572,200.743627 1572,232.5 C1572,264.256373 1546.25637,290 1514.5,290 C1502.41395,290 1491.19882,286.271134 1481.94231,279.901098 C1481.98064,280.762605 1482,281.629041 1482,282.5 C1482,314.256373 1456.25637,340 1424.5,340 C1392.74363,340 1367,314.256373 1367,282.5 C1367,250.743627 1392.74363,225 1424.5,225 C1436.58605,225 1447.80118,228.728866 1457.05769,235.098902 Z M1000.97695,323.554764 C993.052353,327.672831 984.047946,330 974.5,330 C961.33008,330 949.194296,325.572341 939.5,318.124376 C929.805704,325.572341 917.66992,330 904.5,330 C872.743627,330 847,304.256373 847,272.5 C847,240.743627 872.743627,215 904.5,215 C917.66992,215 929.805704,219.427659 939.5,226.875624 C949.194296,219.427659 961.33008,215 974.5,215 C998.824508,215 1019.62126,230.104143 1028.02305,251.445239 C1035.94765,247.327169 1044.95205,245 1054.5,245 C1086.25637,245 1112,270.743627 1112,302.5 C1112,334.256373 1086.25637,360 1054.5,360 C1030.17549,360 1009.37875,344.895859 1000.97695,323.554764 Z M289.277392,116.424204 C296.232469,92.4916057 318.323543,75 344.5,75 C376.256373,75 402,100.743627 402,132.5 C402,164.256373 376.256373,190 344.5,190 C326.40537,190 310.262878,181.641904 299.722608,168.575796 C292.767531,192.508394 270.676457,210 244.5,210 C212.743627,210 187,184.256373 187,152.5 C187,120.743627 212.743627,95 244.5,95 C262.59463,95 278.737122,103.358096 289.277392,116.424204 Z M584.5,230 C552.743627,230 527,204.256373 527,172.5 C527,140.743627 552.743627,115 584.5,115 C616.256373,115 642,140.743627 642,172.5 C642,204.256373 616.256373,230 584.5,230 Z M724.5,310 C692.743627,310 667,284.256373 667,252.5 C667,220.743627 692.743627,195 724.5,195 C756.256373,195 782,220.743627 782,252.5 C782,284.256373 756.256373,310 724.5,310 Z M1214.5,310 C1182.74363,310 1157,284.256373 1157,252.5 C1157,220.743627 1182.74363,195 1214.5,195 C1246.25637,195 1272,220.743627 1272,252.5 C1272,284.256373 1246.25637,310 1214.5,310 Z M2014.5,370 C1982.74363,370 1957,344.256373 1957,312.5 C1957,280.743627 1982.74363,255 2014.5,255 C2046.25637,255 2072,280.743627 2072,312.5 C2072,344.256373 2046.25637,370 2014.5,370 Z M2344.5,400 C2312.74363,400 2287,374.256373 2287,342.5 C2287,310.743627 2312.74363,285 2344.5,285 C2376.25637,285 2402,310.743627 2402,342.5 C2402,374.256373 2376.25637,400 2344.5,400 Z" id="path-1"></path>
        <filter x="-0.8%" y="-4.8%" width="102.4%" height="116.3%" filterUnits="objectBoundingBox" id="filter-2">
            <feOffset dx="9" dy="11" in="SourceAlpha" result="shadowOffsetOuter1"></feOffset>
            <feGaussianBlur stdDeviation="7" in="shadowOffsetOuter1" result="shadowBlurOuter1"></feGaussianBlur>
            <feColorMatrix values="0 0 0 0 0   0 0 0 0 0   0 0 0 0 0  0 0 0 0.5 0" type="matrix" in="shadowBlurOuter1"></feColorMatrix>
        </filter>
        <path d="M2199.76336,273.599524 C2210.18902,246.350059 2236.58479,227 2267.5,227 C2307.54064,227 2340,259.459356 2340,299.5 C2340,339.540644 2307.54064,372 2267.5,372 C2229.44585,372 2198.23941,342.6815 2195.23664,305.400476 C2184.81098,332.64994 2158.41522,352 2127.5,352 C2102.48032,352 2080.42072,339.326359 2067.39079,320.04866 C2055.94787,327.602734 2042.23745,332 2027.5,332 C2014.58837,332 2002.46506,328.624797 1991.96425,322.708566 C1979.91817,346.045088 1955.57232,362 1927.5,362 C1887.45936,362 1855,329.540644 1855,289.5 C1855,249.459356 1887.45936,217 1927.5,217 C1940.41163,217 1952.53494,220.375203 1963.03575,226.291434 C1975.08182,202.954915 1999.42768,187 2027.5,187 C2052.51968,187 2074.57928,199.673641 2087.60921,218.95134 C2099.05213,211.397265 2112.76255,207 2127.5,207 C2165.55415,207 2196.76059,236.3185 2199.76336,273.599524 Z M1746.69111,251.217587 C1737.46271,280.64835 1709.97483,302 1677.5,302 C1654.296,302 1633.63805,291.099072 1620.36789,274.138961 C1610.50186,279.165681 1599.33193,282 1587.5,282 C1554.46655,282 1526.59309,259.907462 1517.84894,229.691703 C1504.85091,249.169759 1482.67379,262 1457.5,262 C1432.44786,262 1410.3635,249.293458 1397.34014,229.973608 C1399.07338,236.185986 1400,242.734781 1400,249.5 C1400,289.540644 1367.54064,322 1327.5,322 C1287.45936,322 1255,289.540644 1255,249.5 C1255,244.915 1255.42561,240.429408 1256.23949,236.080577 C1247.42763,239.889358 1237.7103,242 1227.5,242 C1213.76349,242 1200.91924,238.179758 1189.97174,231.543759 C1188.88961,270.639367 1156.85714,302 1117.5,302 C1077.45936,302 1045,269.540644 1045,229.5 C1045,189.459356 1077.45936,157 1117.5,157 C1131.23651,157 1144.08075,160.820239 1155.02825,167.456235 C1156.11039,128.360633 1188.14286,97 1227.5,97 C1267.54064,97 1300,129.459356 1300,169.5 C1300,174.085 1299.57439,178.570592 1298.76051,182.919423 C1307.57236,179.110644 1317.2897,177 1327.5,177 C1352.55214,177 1374.6365,189.706542 1387.65986,209.026392 C1385.92662,202.814014 1385,196.265219 1385,189.5 C1385,149.459356 1417.45936,117 1457.5,117 C1490.53345,117 1518.40691,139.092538 1527.15106,169.308297 C1540.14909,149.830241 1562.32621,137 1587.5,137 C1610.704,137 1631.36195,147.900928 1644.63211,164.861039 C1654.49814,159.834319 1665.66807,157 1677.5,157 C1697.28922,157 1715.22662,164.928572 1728.30889,177.782413 C1737.53729,148.35165 1765.02517,127 1797.5,127 C1837.54064,127 1870,159.459356 1870,199.5 C1870,239.540644 1837.54064,272 1797.5,272 C1777.71077,272 1759.77337,264.07142 1746.69109,251.217568 Z M736.756846,157.717902 C749.833444,144.902049 767.743911,137 787.5,137 C827.540644,137 860,169.459356 860,209.5 C860,249.540644 827.540644,282 787.5,282 C763.017908,282 741.370065,269.865138 728.243154,251.282098 C715.166556,264.097951 697.256089,272 677.5,272 C637.459356,272 605,239.540644 605,199.5 C605,159.459356 637.459356,127 677.5,127 C701.982092,127 723.629935,139.134862 736.756846,157.717902 Z M397.5,172 C357.459356,172 325,139.540644 325,99.5 C325,59.4593556 357.459356,27 397.5,27 C437.540644,27 470,59.4593556 470,99.5 C470,139.540644 437.540644,172 397.5,172 Z M2517.5,382 C2477.45936,382 2445,349.540644 2445,309.5 C2445,269.459356 2477.45936,237 2517.5,237 C2557.54064,237 2590,269.459356 2590,309.5 C2590,349.540644 2557.54064,382 2517.5,382 Z" id="path-3"></path>
        <filter x="-0.8%" y="-4.4%" width="102.3%" height="114.9%" filterUnits="objectBoundingBox" id="filter-4">
            <feOffset dx="9" dy="11" in="SourceAlpha" result="shadowOffsetOuter1"></feOffset>
            <feGaussianBlur stdDeviation="7" in="shadowOffsetOuter1" result="shadowBlurOuter1"></feGaussianBlur>
            <feColorMatrix values="0 0 0 0 0   0 0 0 0 0   0 0 0 0 0  0 0 0 0.5 0" type="matrix" in="shadowBlurOuter1"></feColorMatrix>
        </filter>
        <path d="M134.5,10.7045757 C142.05929,7.04923465 150.540333,5 159.5,5 C182.446893,5 202.254298,18.4417471 211.477887,37.8809142 C217.146552,36.0115305 223.205148,35 229.5,35 C239.908942,35 249.671897,37.7658024 258.094042,42.6025851 C268.552981,31.7506968 283.238136,25 299.5,25 C312.66992,25 324.805704,29.4276593 334.5,36.8756245 C344.194296,29.4276593 356.33008,25 369.5,25 C392.860753,25 412.967751,38.9309781 421.966573,58.9385112 C432.038793,50.2522653 445.15603,45 459.5,45 C488.506921,45 512.497186,66.4788595 516.433882,94.3996652 C526.968466,82.5009759 542.35826,75 559.5,75 C580.88615,75 599.545355,86.6754373 609.451304,104 L619.548696,104 C629.454645,86.6754373 648.11385,75 669.5,75 C680.493427,75 690.766282,78.0851346 699.5,83.4368389 C708.233718,78.0851346 718.506573,75 729.5,75 C750.88615,75 769.545355,86.6754373 779.451304,104 L1086.79105,104 C1097.31475,92.3332545 1112.55099,85 1129.5,85 C1142.66992,85 1154.8057,89.4276593 1164.5,96.8756245 C1174.1943,89.4276593 1186.33008,85 1199.5,85 C1216.44901,85 1231.68525,92.3332545 1242.20895,104 L1525.04085,104 C1532.74308,81.3195904 1554.21572,65 1579.5,65 C1595.04581,65 1609.15071,71.1692843 1619.5,81.1931564 C1629.84929,71.1692843 1643.95419,65 1659.5,65 C1684.78428,65 1706.25692,81.3195904 1713.95915,104 L2582,104 C2588.99943,164.275682 2588.99943,210.582557 2582,242.920625 C2581.56362,244.936736 2581.12822,246.852337 2580.67865,248.673695 C2582.82549,254.373348 2584,260.549513 2584,267 C2584,295.718807 2560.71881,319 2532,319 C2517.70884,319 2504.76419,313.234893 2495.36486,303.903477 C2496.43623,308.933191 2497,314.150757 2497,319.5 C2497,360.645214 2463.64521,394 2422.5,394 C2381.35479,394 2348,360.645214 2348,319.5 C2348,315.672554 2348.28863,311.912521 2348.8453,308.240479 C2335.18481,324.018508 2315.00806,334 2292.5,334 C2270.26634,334 2250.30748,324.26039 2236.65719,308.814931 C2233.51274,337.600214 2209.12224,360 2179.5,360 C2147.74363,360 2122,334.256373 2122,302.5 C2122,297.766066 2122.57207,293.165748 2123.65086,288.764405 C2114.10128,295.825308 2102.28817,300 2089.5,300 C2066.03007,300 2045.84437,285.938501 2036.90798,265.780569 C2035.20766,296.010541 2010.15535,320 1979.5,320 C1961.17381,320 1944.85004,311.426614 1934.32071,298.071861 C1929.59231,299.329651 1924.62444,300 1919.5,300 C1895.85627,300 1875.54561,285.72948 1866.71132,265.331762 C1856.3226,280.242548 1839.05079,290 1819.5,290 C1787.74363,290 1762,264.256373 1762,232.5 C1762,226.041481 1763.06481,219.831662 1765.02846,214.036523 C1757.33685,217.853865 1748.66905,220 1739.5,220 C1711.98155,220 1688.97812,200.668937 1683.32853,174.845642 C1676.06864,178.155773 1667.99969,180 1659.5,180 C1643.95419,180 1629.84929,173.830716 1619.5,163.806844 C1609.15071,173.830716 1595.04581,180 1579.5,180 C1561.86656,180 1546.08702,172.062533 1535.53941,159.56564 C1536.49507,163.723028 1537,168.052548 1537,172.5 C1537,204.256373 1511.25637,230 1479.5,230 C1455.85627,230 1435.54561,215.72948 1426.71132,195.331762 C1416.3226,210.242548 1399.05079,220 1379.5,220 C1366.46069,220 1354.4351,215.659724 1344.78913,208.345068 C1337.90935,232.395889 1315.76051,250 1289.5,250 C1257.74363,250 1232,224.256373 1232,192.5 C1232,191.629041 1232.01936,190.762605 1232.05769,189.901098 C1222.80118,196.271134 1211.58605,200 1199.5,200 C1186.33008,200 1174.1943,195.572341 1164.5,188.124376 C1154.8057,195.572341 1142.66992,200 1129.5,200 C1124.76607,200 1120.16575,199.427926 1115.76441,198.349139 C1122.82531,207.898719 1127,219.711834 1127,232.5 C1127,264.256373 1101.25637,290 1069.5,290 C1048.07876,290 1029.39341,278.286213 1019.5,260.914667 C1009.60659,278.286213 990.921244,290 969.5,290 C956.286212,290 944.113461,285.542795 934.403209,278.049849 C929.65011,279.321829 924.654252,280 919.5,280 C901.277504,280 885.034833,271.523362 874.5,258.298097 C863.965167,271.523362 847.722496,280 829.5,280 C800.137169,280 775.914857,257.990824 772.430296,229.569704 C749.843506,226.800459 731.306355,210.933716 724.647506,189.798138 C715.486195,189.032614 706.935334,186.119263 699.5,181.563161 C690.766282,186.914865 680.493427,190 669.5,190 C643.596628,190 621.693843,172.871453 614.499998,149.322711 C607.306152,172.871456 585.403369,190 559.5,190 C531.083957,190 507.48227,169.387287 502.831529,142.298449 C492.290909,154.372011 476.786261,162 459.5,162 C435.574401,162 415.061806,147.387195 406.400266,126.599639 C396.414382,134.964198 383.545278,140 369.5,140 C356.572779,140 344.641929,135.734025 335.038425,128.533048 C334.653221,128.552357 334.26854,128.571616 333.884387,128.590825 C324.294176,135.756838 312.39261,140 299.5,140 C289.091058,140 279.328103,137.234198 270.905958,132.397415 C260.447019,143.249303 245.761864,150 229.5,150 C206.553107,150 186.745702,136.558253 177.522113,117.119086 C171.853449,118.988469 165.794852,120 159.5,120 C150.540333,120 142.05929,117.950765 134.5,114.295424 C126.94071,117.950765 118.459667,120 109.5,120 C98.1286944,120 87.5283486,116.699129 78.6048721,111.003295 C72.0708146,113.582816 64.9509078,115 57.5,115 C25.7436269,115 2.27373675e-13,89.2563731 2.27373675e-13,57.5 C2.27373675e-13,25.7436269 25.7436269,0 57.5,0 C68.8713056,0 79.4716514,3.30087139 88.3951279,8.99670474 C94.9291854,6.41718427 102.049092,5 109.5,5 C118.459667,5 126.94071,7.04923465 134.5,10.7045757 Z" id="path-5"></path>
        <filter x="-0.6%" y="-3.6%" width="101.9%" height="112.7%" filterUnits="objectBoundingBox" id="filter-6">
            <feMorphology radius="0.5" operator="erode" in="SourceAlpha" result="shadowSpreadOuter1"></feMorphology>
            <feOffset dx="9" dy="11" in="shadowSpreadOuter1" result="shadowOffsetOuter1"></feOffset>
            <feGaussianBlur stdDeviation="7" in="shadowOffsetOuter1" result="shadowBlurOuter1"></feGaussianBlur>
            <feColorMatrix values="0 0 0 0 0   0 0 0 0 0   0 0 0 0 0  0 0 0 0.5 0" type="matrix" in="shadowBlurOuter1"></feColorMatrix>
        </filter>
    </defs>
    <g id="Artboard" stroke="none" stroke-width="1" fill="none" fill-rule="evenodd">
        <g id="under-bg" transform="translate(-24.000000, -104.000000)">
            <g id="Combined-Shape">
                <use fill="black" fill-opacity="1" filter="url(#filter-2)" xlink:href="#path-1"></use>
                <use fill="#5B0030" fill-rule="evenodd" xlink:href="#path-1"></use>
            </g>
            <g id="Combined-Shape">
                <use fill="black" fill-opacity="1" filter="url(#filter-4)" xlink:href="#path-3"></use>
                <use fill="#960250" fill-rule="evenodd" xlink:href="#path-3"></use>
            </g>
            <g id="Combined-Shape">
                <use fill="black" fill-opacity="1" filter="url(#filter-6)" xlink:href="#path-5"></use>
                <use fill="#1D3D68" fill-rule="evenodd" xlink:href="#path-5"></use>
            </g>
        </g>
    </g>
</svg>