<?xml version="1.0" encoding="UTF-8"?>
<svg width="408px" height="328px" viewBox="0 0 408 328" version="1.1" xmlns="http://www.w3.org/2000/svg" xmlns:xlink="http://www.w3.org/1999/xlink">
    <!-- Generator: Sketch 43.2 (39069) - http://www.bohemiancoding.com/sketch -->
    <title>welcome-dot</title>
    <desc>Created with Sketch.</desc>
    <defs>
        <linearGradient x1="24.5196706%" y1="0%" x2="0%" y2="100%" id="linearGradient-1">
            <stop stop-color="#FFFFFF" stop-opacity="0" offset="0%"></stop>
            <stop stop-color="#FFFFFF" offset="100%"></stop>
        </linearGradient>
        <linearGradient x1="-43.6245481%" y1="146.950173%" x2="84.9572855%" y2="13.6746949%" id="linearGradient-2">
            <stop stop-color="#FFFFFF" stop-opacity="0" offset="0%"></stop>
            <stop stop-color="#FFFFFF" offset="100%"></stop>
        </linearGradient>
    </defs>
    <g id="Page-1" stroke="none" stroke-width="1" fill="none" fill-rule="evenodd">
        <g id="welcome-dot" transform="translate(2.000000, 2.000000)">
            <path d="M177.5,297 C231.738151,297 287.067183,281.856688 312.691406,238.246094 C338.315629,194.6355 340.496094,158.048068 340.496094,130.824219 C340.496094,96.3969267 325.937064,81.1870577 306.167969,56.0898438 C294.267551,40.9820542 267.95198,17.6358018 237.960938,6.87890625 C207.969895,-3.87798935 196.221188,2 177.5,2 C136.431188,2 106.602258,22.7407233 79.859375,49.8242188 C53.1164925,76.9077142 30,109.106811 30,149.5 C30,187.638182 51.596353,219.13343 75.3515625,245.316406 C99.106772,271.499382 134.176182,297 177.5,297 Z" id="Oval" stroke="#FFFFFF" stroke-width="3"></path>
            <circle id="Oval-2" fill="#FFFFFF" cx="145" cy="104" r="5"></circle>
            <circle id="Oval-2" fill="#FFFFFF" cx="235" cy="104" r="5"></circle>
            <path d="M121.205038,137.975902 C113.446582,154.132528 124.76327,164.780083 128.335937,192.144531 C131.908605,219.508979 134.990031,244.681806 142.5,257.480469 C158.235743,284.297685 187.539423,282.803484 197.800781,282.5625 C207.177919,282.342282 233.77916,279.181729 242.464844,265.332031 C251.150528,251.482333 272.617693,179.487262 260.730469,131.023437 C255.59035,110.06734 243.683553,124.158421 208.410156,126.492188 C173.136759,128.825954 128.335937,131.023437 121.205038,137.975902 Z" id="Path-2" stroke="#FFFFFF" stroke-width="5"></path>
            <path d="M170.531673,278.990451 C181.47909,233.640373 207.608625,237.725413 207.608625,237.725413 C207.608625,237.725413 220.751341,237.071217 226.500401,243.998955 C232.249462,250.926694 236.341299,272.348887 236.341299,272.348887" id="Path-3" stroke="#FFFFFF" stroke-width="5"></path>
            <path d="M133.506245,168.630581 C145.125914,148.119509 157.834928,134.821662 163.580972,137.576917 C169.327016,140.332172 133.864453,175.807003 136.190349,188.491481 C138.516246,201.175959 170.884974,136.308469 181.832391,135.260834 C192.779807,134.213199 133.03027,210.935893 141.075223,225.170969 C149.120176,239.406045 191.589871,124.494975 204.487802,129.877904 C217.385733,135.260834 138.52606,232.55839 148.487178,245.301752 C158.448297,258.045114 211.995443,127.390078 221.671958,131.325456 C231.348473,135.260834 156.034802,237.286241 167.060003,238.34369 C178.085203,239.401138 220.710195,142.645801 226.461146,146.909945 C232.212097,151.174089 182.335354,223.087967 189.671251,226.32165 C197.007149,229.555333 218.322961,173.459025 227.943046,171.044803 C237.563131,168.630581 203.678154,209.912793 211.183342,218.117221 C218.688529,226.32165 239.018043,156.664971 243.817045,166.68252 C248.616047,176.700068 221.922212,217.572549 224.191679,225.266655 C226.461146,232.96076 247.065449,179.178081 249.163173,186.953151 C251.260896,194.728221 232.423096,222.24397 232.970221,230.29383 C233.517347,238.34369 248.2652,208.04815 248.714186,213.082686 C249.163173,218.117221 237.423283,243.228563 237.423283,243.228563" id="Path-4" stroke="#FFFFFF" stroke-width="4"></path>
            <path d="M60,323 C69.0293128,323 79.2956529,319.338594 85.5036973,313.724412 C91.7117416,308.110229 95,298.300653 95,288 C95,277.18842 93.2065266,266.392969 85.5036973,259.972762 C77.800868,253.552555 68.5183863,253 60,253 C49.469553,253 42.9305829,258.810655 36.5142616,266.16994 C30.0979403,273.529224 25,279.200481 25,288 C25,298.181588 29.5743695,311.61963 36.5142616,318.015304 C43.4541537,324.410977 50.8516222,323 60,323 Z" id="Oval-3" stroke="#FFFFFF" stroke-width="5"></path>
            <path d="M367,109 C377.261856,109 388.468715,106.893003 395.02642,100.00422 C401.584125,93.1154366 403,82.6203948 403,73 C403,63.206593 401.371237,49.3945468 395.02642,42.9042067 C388.681603,36.4138666 377.088844,37 367,37 C357.131548,37 349.970249,41.9824236 343.467166,48.4133643 C336.964083,54.8443049 331,62.9862012 331,73 C331,80.8063562 335.070634,89.5767046 339.292285,95.4747021 C343.513936,101.3727 354.924105,109 367,109 Z" id="Oval-4" stroke="#FFFFFF" stroke-width="5"></path>
            <path d="M30.3932488,145.936067 C30.3932488,98.4683424 94.2548424,16.1484306 94.2548424,16.1484306" id="Path-5" stroke="url(#linearGradient-1)" stroke-width="5"></path>
            <path d="M327.728819,120.466412 C332.183314,176.07014 318.627361,283.427156 318.627361,283.427156" id="Path-6" stroke="url(#linearGradient-1)" stroke-width="5"></path>
            <path d="M116.543559,21.3527001 C62.8110292,53.5985463 0.723512064,137.83556 0.723512064,137.83556" id="Path-7" stroke="url(#linearGradient-2)" stroke-width="5"></path>
        </g>
    </g>
</svg>