<?xml version="1.0" encoding="UTF-8"?>
<svg width="1058px" height="1058px" viewBox="0 0 1058 1058" version="1.1" xmlns="http://www.w3.org/2000/svg" xmlns:xlink="http://www.w3.org/1999/xlink">
    <!-- Generator: Sketch 43.2 (39069) - http://www.bohemiancoding.com/sketch -->
    <title>workflow-mr-dot</title>
    <desc>Created with Sketch.</desc>
    <defs>
        <radialGradient cx="50%" cy="50%" fx="50%" fy="50%" r="47.6200476%" gradientTransform="translate(0.500000,0.500000),rotate(88.081823),scale(1.000000,0.555494),translate(-0.500000,-0.500000)" id="radialGradient-1">
            <stop stop-color="#FCFCFC" offset="0%"></stop>
            <stop stop-color="#EFF4FB" offset="100%"></stop>
        </radialGradient>
        <linearGradient x1="23.962%" y1="48.7829653%" x2="68.784%" y2="51.7229791%" id="linearGradient-2">
            <stop stop-color="#919191" offset="0%"></stop>
            <stop stop-color="#FFFFFF" offset="100%"></stop>
        </linearGradient>
    </defs>
    <g id="Page-1" stroke="none" stroke-width="1" fill="none" fill-rule="evenodd">
        <g id="workflow-mr-dot">
            <rect id="Rectangle-4" fill="url(#radialGradient-1)" x="0" y="0" width="1058" height="1058"></rect>
            <path d="M330.391806,679.088036 C329.547454,679.99513 330.986322,679.594289 332.553897,679.34865 C335.508063,678.885732 339.749879,678.431709 345.172956,677.998552 C355.764841,677.152547 370.684506,676.398891 389.138721,675.764093 C424.553777,674.545867 471.724368,673.81263 520.136412,673.704372 C569.547,673.593881 616.476675,674.139986 651.556175,675.285743 C670.224863,675.895494 685.27787,676.664944 696.030112,677.577257 C701.551886,678.045771 705.892391,678.548481 708.949576,679.072842 C710.93715,679.413746 712.360638,679.844634 711.761904,679.247181 C711.092228,678.578937 711.232212,679.076982 711.328119,680.130636 C711.510361,682.132775 711.519113,685.000831 711.345107,688.639056 C710.99971,695.8608 709.950023,705.888733 708.257212,718.324848 C705.130876,741.292257 699.876263,771.966834 693.418309,805.454263 C687.439489,836.457163 680.792357,867.942829 675.082379,892.386677 C672.232528,904.586609 669.699706,914.671887 667.648231,921.966553 C666.611503,925.652962 665.708585,928.587197 664.965089,930.689389 C664.422608,932.223218 663.953071,933.253782 664.171695,933.008424 C664.902141,932.188661 664.083131,932.472723 662.949302,932.698305 C660.728927,933.140062 657.534087,933.574444 653.457554,933.985564 C645.433959,934.794745 634.178302,935.497694 620.251304,936.072712 C593.758051,937.166566 558.422166,937.759273 521.653111,937.760557 C484.873967,937.761841 449.426782,937.171319 422.726586,936.078252 C408.684218,935.503378 397.289495,934.800019 389.103293,933.989406 C384.934839,933.576639 381.643337,933.139996 379.316911,932.693559 C377.856585,932.413324 376.882651,932.096157 377.420771,932.593435 C377.743244,932.891433 377.273361,931.975587 376.72425,930.533241 C375.935016,928.460171 374.997369,925.542715 373.938013,921.857661 C371.85209,914.601607 369.33767,904.525892 366.518492,892.169123 C361.08503,868.353656 354.724135,836.949547 348.814718,804.858057 C342.770116,772.032435 337.644772,740.930043 334.484927,717.607693 C332.8081,705.23128 331.70778,695.224782 331.249531,688.053573 C331.018197,684.433388 330.954684,681.587512 331.055119,679.610442 C331.099283,678.741048 331.214713,678.203981 330.391806,679.088036 L330.391806,679.088036 Z" id="Rectangle-5" stroke="#DBE2EB" stroke-width="12"></path>
            <path d="M673.317108,927.578627 C673.317108,927.578627 804.716318,857.625036 791.171399,850.225718 C777.626481,842.8264 688.338728,850.225718 688.338728,850.225718 L673.317108,927.578627 Z" id="Path-2" stroke="#DBE2EB" stroke-width="12"></path>
            <path d="M508.634677,826.136427 C525.20322,826.136427 546.47531,813.489235 546.47531,797.288882 C546.47531,781.08853 533.197246,762.492792 516.628704,762.492792 C500.060161,762.492792 480.740367,778.114257 480.740367,794.31461 C480.740367,810.514962 492.066135,826.136427 508.634677,826.136427 Z" id="Oval-2" fill-opacity="0.7" fill="#5B0030"></path>
            <g id="mr-dot" transform="translate(348.000000, 445.000000)">
                <path d="M345.226858,232.187653 C350.92053,214.821196 354,196.270222 354,177 C354,79.2455993 274.754401,0 177,0 C79.2455993,0 0,79.2455993 0,177 C0,196.061635 3.01316421,214.419507 8.58917042,231.623295 C26.4944112,232.187653 326.325361,231.623295 345.226858,232.187653 Z" stroke="#DBE2EB" stroke-width="12"></path>
                <path d="M81.1546955,181.638308 L291.313974,159.881556" id="Path-4" stroke="#DBE2EB" stroke-width="12" stroke-linecap="round"></path>
                <path d="M228.818241,170.038654 C228.818241,173.323152 238.056902,185.258801 262.74746,192.030794 C287.438017,198.802788 278.416911,169.693285 276.217047,165.835975 C276.035733,165.518054 275.888627,165.265889 275.782602,165.085172 C275.366385,164.375745 272.422828,162.660131 271.908643,162.660131 C271.394459,162.660131 247.923942,165.085172 247.218086,165.085172 C246.184356,165.085172 228.818241,168.408993 228.818241,170.038654 Z" id="Path-5" stroke="#DBE2EB" stroke-width="8"></path>
                <path d="M261.455413,174.767919 C268.953492,183.999376 268.953492,190.644159 268.953492,190.644159" id="Path-6" stroke="#DBE2EB" stroke-width="8" stroke-linecap="round"></path>
                <circle id="Oval-3" fill="#DBE2EB" cx="120" cy="99" r="10"></circle>
                <circle id="Oval-3" fill="#DBE2EB" cx="230" cy="99" r="10"></circle>
                <path d="M84.0010106,51.8320363 C86.4616685,63.4097548 100.029972,78.6636741 112.574022,78.6636741 C125.118071,78.6636741 129.002021,74.2343924 133.20994,65.4067395" id="Path-3" stroke="#DBE2EB" stroke-width="6" stroke-linecap="round"></path>
                <path d="M215.034142,75.1531099 C223.186288,63.1721442 231.933013,62.691118 240.415281,65.7846723 C248.897549,68.8782267 253.204346,75.1094619 255.08303,82.1295205" id="Path-7" stroke="#DBE2EB" stroke-width="6" stroke-linecap="round"></path>
            </g>
            <g id="laptop" transform="translate(325.000000, 667.000000)"></g>
            <g id="dots-group-mono" transform="translate(33.000000, 97.000000)">
                <g id="webpack" transform="translate(51.000000, 99.000000)" fill-rule="nonzero" fill="#5B0030">
                    <polygon id="Shape" fill-opacity="0.0678781703" points="43.5 0 86.9426554 24.5762712 86.9426554 73.7288136 43.5 98.3050847 0.0573446328 73.7288136 0.0573446328 24.5762712"></polygon>
                    <path d="M79.1847458,72.0330508 L44.9336158,91.4073446 L44.9336158,76.3175141 L66.2740113,64.5782486 L79.1847458,72.0330508 Z M81.5276836,69.9112994 L81.5276836,29.3932203 L68.9937853,36.6268362 L68.9937853,62.6694915 L81.5276836,69.9112994 Z M7.6759887,72.0330508 L41.9271186,91.4073446 L41.9271186,76.3175141 L20.5867232,64.5782486 L7.6759887,72.0330508 L7.6759887,72.0330508 Z M5.33305085,69.9112994 L5.33305085,29.3932203 L17.8669492,36.6268362 L17.8669492,62.6694915 L5.33305085,69.9112994 L5.33305085,69.9112994 Z M6.79943503,26.7717514 L41.9271186,6.89774011 L41.9271186,21.4878531 L19.4234463,33.8661017 L19.2514124,33.9644068 L6.79943503,26.7717514 L6.79943503,26.7717514 Z M80.0612994,26.7717514 L44.9336158,6.89774011 L44.9336158,21.4878531 L67.4372881,33.8661017 L67.609322,33.9644068 L80.0612994,26.7717514 L80.0612994,26.7717514 Z" id="Shape"></path>
                    <path d="M41.9271186,72.8850282 L20.8734463,61.3096045 L20.8734463,38.3717514 L41.9271186,50.5288136 L41.9271186,72.8850282 M44.9336158,72.8850282 L65.9872881,61.3096045 L65.9872881,38.3717514 L44.9336158,50.5288136 L44.9336158,72.8850282 M22.2988701,35.7175141 L43.4344633,24.0929379 L64.5700565,35.7175141 L43.4344633,47.9237288 L22.2988701,35.7175141" id="Shape" fill-opacity="0.7"></path>
                </g>
                <g id="django-logo-positive" transform="translate(0.000000, 532.000000)" fill-opacity="0.999009284" fill-rule="nonzero" fill="#5B0030">
                    <path d="M21.1979863,0 L31.0308467,0 L31.0308467,45.5132265 C25.9867277,46.4708924 22.283341,46.8539588 18.2611442,46.8539588 C6.25716247,46.8535469 0,41.4271854 0,31.0193135 C0,20.9949199 6.64064073,14.4827918 16.92,14.4827918 C18.5161098,14.4827918 19.7291533,14.6100686 21.1979863,14.993135 L21.1979863,0 Z M21.1979863,22.9098398 C20.0487872,22.5271854 19.0911213,22.3994966 17.8780778,22.3994966 C12.8978032,22.3994966 10.0243936,25.4644394 10.0243936,30.8273684 C10.0243936,36.0634325 12.7701144,38.9364302 17.8142334,38.9364302 C18.8991762,38.9364302 19.7934096,38.8725858 21.1979863,38.6814645 L21.1979863,22.9098398 Z" id="Shape"></path>
                    <path d="M46.673135,15.1846682 L46.673135,37.9783524 C46.673135,45.8320366 46.0985355,49.5988558 44.3747368,52.8553318 C42.7782151,55.9845309 40.6709382,57.9632952 36.3295195,60.1344165 L27.1989474,55.7925858 C31.540778,53.7495652 33.647643,51.9623341 34.9883753,49.2157895 C36.3933638,46.4066362 36.8406865,43.1501602 36.8406865,34.5945995 L36.8406865,15.1846682 L46.673135,15.1846682 Z M36.8406865,0.0523112128 L46.673135,0.0523112128 L46.673135,10.1405492 L36.8406865,10.1405492 L36.8406865,0.0523112128 Z" id="Shape"></path>
                    <path d="M52.6123112,17.419222 C56.9545538,15.3766133 61.1044394,14.4827918 65.6378032,14.4827918 C70.6819222,14.4827918 74.0018307,15.8231121 75.4706636,18.4411442 C76.3002288,19.9095652 76.5556064,21.824897 76.5556064,25.911762 L76.5556064,45.895881 C72.1495195,46.5343249 66.5950572,46.9816476 62.509016,46.9816476 C54.2726773,46.9816476 50.5688787,44.1074142 50.5688787,37.7229748 C50.5688787,30.8269565 55.4853089,27.6347368 67.553135,26.6128146 L67.553135,24.4421053 C67.553135,22.6544622 66.6593135,22.0164302 64.1689703,22.0164302 C60.5298398,22.0164302 56.4433867,23.0379405 52.6118993,25.0175286 L52.6118993,17.419222 L52.6123112,17.419222 Z M68.0000458,33.0623341 C61.4870938,33.700778 59.3802288,34.7227002 59.3802288,37.276476 C59.3802288,39.1918078 60.5936842,40.0856293 63.2751487,40.0856293 C64.7439817,40.0856293 66.0843021,39.9583524 68.0000458,39.6391304 L68.0000458,33.0623341 Z" id="Shape"></path>
                    <path d="M81.3447597,16.7169336 C87.1545995,15.1846682 91.943341,14.4827918 96.7959268,14.4827918 C101.840046,14.4827918 105.479588,15.6315789 107.651121,17.8665446 C109.694142,19.9729977 110.332174,22.2713959 110.332174,27.1886499 L110.332174,46.4704805 L100.499314,46.4704805 L100.499314,27.5717162 C100.499314,23.804897 99.2224256,22.3994966 95.710984,22.3994966 C94.3702517,22.3994966 93.1572082,22.5271854 91.1772082,23.1017849 L91.1772082,46.4704805 L81.3447597,46.4704805 L81.3447597,16.7169336 Z" id="Shape"></path>
                    <path d="M114.1546,51.8342334 C117.603021,53.6218764 121.050618,54.4514416 124.689748,54.4514416 C131.138032,54.4514416 133.883753,51.8342334 133.883753,45.576659 L133.883753,45.3851259 C131.968421,46.3423799 130.052677,46.7258581 127.499314,46.7258581 C118.879497,46.7258581 113.387643,41.0432952 113.387643,32.0408238 C113.387643,20.8664073 121.497117,14.5462243 135.862517,14.5462243 C140.077071,14.5462243 143.971991,14.9927231 148.696888,15.950389 L145.330023,23.0428833 C142.711991,22.5321281 145.120366,22.974508 143.142014,22.7829748 L143.142014,23.804897 L143.269291,27.9543707 L143.332723,33.3181236 C143.396568,34.6584439 143.396568,35.9995881 143.460824,37.3403204 L143.460824,40.0221968 C143.460824,48.4504805 142.758535,52.408833 140.65167,55.664897 C137.586728,60.4540503 132.287231,62.8162929 124.753181,62.8162929 C120.922105,62.8162929 117.602609,62.2416934 114.154188,60.9005492 L114.154188,51.8342334 L114.1546,51.8342334 Z M133.692632,22.463341 L133.373822,22.463341 L132.671121,22.463341 C130.756201,22.3994966 128.521648,22.9098398 126.988558,23.8675057 C124.626728,25.2086499 123.41286,27.6351487 123.41286,31.082746 C123.41286,35.9995881 125.839771,38.8087414 130.18119,38.8087414 C131.521922,38.8087414 132.607689,38.5529519 133.884165,38.1702975 L133.884165,37.4675973 L133.884165,34.7865446 C133.884165,33.6373455 133.820732,32.3596339 133.820732,31.0193135 L133.7573,26.4863616 L133.693043,23.2298856 L133.693043,22.463341 L133.692632,22.463341 Z" id="Shape"></path>
                    <path d="M163.961465,14.3546911 C173.793913,14.3546911 179.79611,20.5484211 179.79611,30.5724027 C179.79611,40.8525858 173.539359,47.3012815 163.578398,47.3012815 C153.745126,47.3012815 147.679497,41.1075515 147.679497,31.1474142 C147.679908,20.8029748 153.937483,14.3546911 163.961465,14.3546911 Z M163.769108,39.383341 C167.536751,39.383341 169.771716,36.2545538 169.771716,30.8273684 C169.771716,25.4644394 167.600595,22.2718078 163.834188,22.2718078 C159.938856,22.2718078 157.703478,25.4010069 157.703478,30.8273684 C157.70389,36.2549657 159.938856,39.383341 163.769108,39.383341 Z" id="Shape"></path>
                </g>
                <g id="css" transform="translate(321.000000, 0.000000)" fill-rule="nonzero" fill="#5B0030">
                    <path d="M83.096648,0.0170042721 L13.317676,0.0170042721 C12.7892737,0.0170042721 12.2771397,0.440064264 12.173743,0.962315843 L9.7363352,13.3124557 C9.63293855,13.8347073 9.97848045,14.2577673 10.5068827,14.2577673 L66.1377207,14.2577673 C66.6661229,14.2577673 67.0116648,14.6808273 66.9084246,15.2030788 L65.4722905,22.4722477 C65.3688939,22.9944993 64.8567598,23.4175593 64.3283575,23.4175593 L8.64887151,23.4175593 C8.12046927,23.4175593 7.60927374,23.8406193 7.50869274,24.3627134 L5.11258101,36.7109639 C5.01106145,37.2332155 5.3575419,37.6570627 5.88610056,37.6570627 L61.5169385,37.6570627 C62.0453408,37.6570627 62.3899441,38.0802801 62.2856089,38.6014296 L59.4231955,52.9653161 C59.3188603,53.4875677 58.8276872,54.0455597 58.3260335,54.2132407 L36.992067,61.3273244 C36.4904134,61.4950054 35.683419,61.4767415 35.1894302,61.2868605 L16.8749274,54.2537046 C16.3809385,54.063981 16.0630838,53.4867804 16.1655419,52.9645289 L17.176514,47.807511 C17.2789721,47.2852594 16.9332737,46.8621994 16.4048715,46.8621994 L4.1713743,46.8621994 C3.64297207,46.8621994 3.12974302,47.2852594 3.02634637,47.807511 L0.0195530726,62.98776 C-0.0838435754,63.5100116 0.233072626,64.0872122 0.726905028,64.2769358 L32.1892067,76.3901179 C32.6831955,76.579999 33.4901899,76.5982628 33.9918436,76.4305818 L70.4753743,64.2356847 C70.9770279,64.0680037 71.4682011,63.5090669 71.5715978,62.9868154 L83.8682905,0.961528608 C83.9705922,0.440064264 83.6259888,0.0170042721 83.096648,0.0170042721 Z" id="Shape"></path>
                </g>
                <g id="sass" transform="translate(854.000000, 449.000000)" fill-rule="nonzero" fill="#5B0030">
                    <path d="M127.358735,63.4927838 C122.196322,63.5218535 117.726077,64.7591857 113.976839,66.6015126 C112.592505,63.8672358 111.208171,61.4780536 110.977737,59.6938661 C110.718174,57.6215722 110.400931,56.3548825 110.718174,53.8799303 C111.035129,51.4044025 112.477144,47.8930156 112.477144,47.605197 C112.448015,47.3461602 112.159612,46.0797584 109.18935,46.0509765 C106.219088,46.0221946 103.652014,46.6266137 103.363611,47.4037239 C103.075208,48.1808342 102.498402,49.9653095 102.123478,51.8073486 C101.604353,54.5128434 96.1823779,64.0972029 93.0964665,69.1340285 C92.0870563,67.176862 91.2218475,65.4499503 91.0485173,64.0681332 C90.7892431,61.9961271 90.4717114,60.7294374 90.7892431,58.2544853 C91.1064863,55.7789575 92.5485009,52.2678583 92.5485009,51.9800397 C92.5196607,51.721003 92.2312577,50.4546011 89.2609959,50.4258193 C86.2901573,50.3970374 83.7236596,51.0014565 83.4352567,51.7785667 C83.1468538,52.5556769 82.8296105,54.397716 82.1951241,56.1821913 C81.5891895,57.9666667 74.3791162,73.969381 72.5044972,78.1427507 C71.5527675,80.2726084 70.7166874,81.9707382 70.1107528,83.1220126 C69.5051067,84.273287 70.0819125,83.2083582 70.0242319,83.3234856 C69.5051067,84.3020689 69.2167037,84.8489242 69.2167037,84.8489242 L69.2167037,84.8779939 C68.8129396,85.5975404 68.3803352,86.2880172 68.1781648,86.2880172 C68.0339633,86.2880172 67.7455604,84.3596326 68.2358454,81.7119892 C69.3029362,76.1568024 71.8985626,67.4937502 71.8700107,67.1771498 C71.8700107,67.0332405 72.3600073,65.5075141 70.1969853,64.7306917 C68.0916439,63.9535814 67.3420847,65.2487651 67.1687545,65.2487651 C66.9957128,65.2487651 66.8515113,65.7092749 66.8515113,65.7092749 C66.8515113,65.7092749 69.187575,55.9525121 62.3812658,55.9525121 C58.1129024,55.9525121 52.2294826,60.5863916 49.316613,64.8173251 C47.4708342,65.8246902 43.5485544,67.95426 39.3955521,70.2283148 C37.809336,71.0917706 36.1654393,72.0127901 34.6080635,72.8474641 L34.2911086,72.5015061 C26.0427848,63.7230387 10.7862697,57.5061569 11.4207561,45.7055942 C11.6514785,41.417097 13.1511737,30.1058259 40.7227824,16.4056604 C63.304732,5.18073486 81.3875959,8.26039391 84.5308994,15.1104767 C89.0011449,24.8963092 74.8694012,43.0864449 51.3936909,45.7055942 C42.4532,46.7129593 37.7519438,43.259136 36.5697802,41.9639523 C35.3296476,40.6112049 35.1566058,40.5536412 34.6951611,40.8126779 C33.9453135,41.215624 34.4067582,42.4244621 34.6951611,43.1440086 C35.3873282,44.9572658 38.2713575,48.1808342 43.1742074,49.7926183 C47.4711226,51.2029295 57.9692778,51.9800397 70.6590068,47.0871235 C84.8772714,41.5897881 95.9807842,26.3354022 92.7218311,13.5850381 C89.4051974,0.604419067 67.8326581,-3.65529626 47.4425708,3.56895068 C35.3005189,7.88622973 22.1493452,14.621185 12.689729,23.4572162 C1.44201466,33.9338133 -0.346083519,43.0864449 0.403764105,46.8856504 C3.02851919,60.4419067 21.7455811,69.2779378 29.2440573,75.8114201 C28.8691335,76.0126053 28.52305,76.2140783 28.2058068,76.3870573 C24.4565687,78.2288085 10.1806235,85.6835981 6.60442715,93.5695401 C2.5667861,102.491917 7.2389136,108.910559 10.3536653,109.774015 C19.9863232,112.450728 29.8497035,107.644158 35.1851577,99.729146 C40.4914833,91.8141344 39.8572852,81.5390103 37.4058603,76.847567 L37.319051,76.6748759 L40.2607609,74.9479643 C42.1645087,73.8254717 44.0391277,72.7893247 45.6827361,71.8967992 C44.7601351,74.4008211 44.0965199,77.3653527 43.7507248,81.6826317 C43.3469607,86.748527 45.4234618,93.3105033 48.1632897,95.9008707 C49.374582,97.0230755 50.8165967,97.0521452 51.7106457,97.0521452 C54.883078,97.0521452 56.3250927,94.432708 57.9113088,91.2957731 C59.8724487,87.4677857 61.6028663,83.0353792 61.6028663,83.0353792 C61.6028663,83.0353792 59.4398443,95.0374149 65.3521044,95.0374149 C67.5151264,95.0374149 69.6781484,92.2455745 70.6587184,90.8064815 L70.6587184,90.8352633 C70.6587184,90.8352633 70.716399,90.7489177 70.8317602,90.5474447 C70.9527701,90.3688795 71.068187,90.1866022 71.1778437,90.0008772 L71.1778437,89.9433135 C72.0430525,88.4466567 73.9753521,85.0216154 76.8593814,79.3515889 C80.5794909,72.0409964 84.1559756,62.8883648 84.1559756,62.8883648 C84.1559756,62.8883648 84.5020591,65.1333499 85.56915,68.817428 C86.203348,71.0051372 87.5876821,73.3937438 88.654773,75.7250745 C87.7895642,76.9339126 87.2704389,77.6249651 87.2704389,77.6249651 L87.2992792,77.6537469 C86.6074005,78.5747665 85.8284242,79.5536375 85.0211844,80.531933 C82.0794745,84.0433199 78.5609587,88.0442863 78.099514,89.1955607 C77.5515485,90.5480204 77.6669096,91.5553855 78.7340005,92.3615654 C79.5126884,92.9372026 80.8970225,93.0520422 82.3678774,92.9372026 C85.0211844,92.7642236 86.8669632,92.1025286 87.7898526,91.6992948 C89.2318672,91.1812213 90.8757639,90.4041111 92.4619801,89.2528366 C95.3460094,87.1232668 97.1052673,84.1011715 96.9322255,80.071711 C96.8457046,77.8555078 96.1246973,75.6680864 95.2306482,73.5957925 C95.4902109,73.2216283 95.7500619,72.8471763 96.0093361,72.444518 C100.566102,65.7956205 104.084618,58.4853158 104.084618,58.4853158 C104.084618,58.4853158 104.430702,60.7303009 105.497793,64.414379 C106.04547,66.2851999 107.141689,68.3289998 108.122259,70.3437301 C103.853896,73.8263352 101.171749,77.8557956 100.248859,80.5037267 C98.5472819,85.396643 99.8739354,87.6128462 102.383041,88.1309197 C103.507524,88.3611746 105.122869,87.8431011 106.333873,87.3250276 C107.833568,86.835736 109.650506,86.0007742 111.323532,84.7634421 C114.207561,82.6335844 116.976229,79.6690528 116.832028,75.6683742 C116.745507,73.8263352 116.255222,72.013078 115.591895,70.2861663 C119.225772,68.7895096 123.926452,67.9260538 129.896681,68.6456003 C142.730611,70.142257 145.268557,78.1436142 144.77856,81.48231 C144.288275,84.8212936 141.606128,86.6630449 140.711791,87.2386821 C139.817742,87.7855374 139.529339,87.9872982 139.615859,88.3899565 C139.731221,88.9946634 140.134985,88.9655937 140.913673,88.8507541 C141.980764,88.6777751 147.662301,86.1164773 147.893024,79.957447 C148.239107,72.0412842 140.711791,63.4067261 127.358735,63.4927838 L127.358735,63.4927838 Z M28.5318886,97.452253 C23.0670341,103.235124 14.4615508,106.696414 10.3751891,105.966053 C5.97001672,105.209701 6.26607702,98.2031799 13.1449306,91.8522501 C17.324762,87.9904348 22.9738229,84.0775947 26.7097351,81.6214938 C27.545347,81.0779 28.823161,80.2727206 30.3380423,79.3035914 C30.5752744,79.1404891 30.7369988,79.0501188 30.7369988,79.0501188 C31.0173667,78.8783385 31.3354335,78.6699098 31.6535004,78.461481 C35.8872891,84.7927329 34.2983343,91.3761946 28.5318886,97.452253 L28.5318886,97.452253 Z M60.532695,75.0854172 C58.9015335,79.3703533 56.0664675,89.7137978 52.0373282,91.1764717 C48.5710642,92.4483578 43.8949931,87.9457036 45.9110703,80.2628155 C46.9377654,76.3840779 50.3640563,70.6934944 52.6950722,67.9930671 C56.4800047,63.6346891 61.3362629,60.4286859 63.0405033,60.6303245 C65.1010131,60.9655422 61.5609133,72.4065576 60.532695,75.0854172 Z M84.736708,88.6071934 C83.6370959,89.360581 82.6161003,89.9797753 82.0553024,89.94649 C81.6260929,89.9420424 82.3513221,89.1667526 82.3513221,89.1667526 C82.3513221,89.1667526 87.2284969,83.3008513 89.0790153,80.7208703 C90.1226219,79.2308916 91.3896256,77.4880843 92.7142049,75.5463269 L92.8410839,75.9368202 C94.3640785,80.6222348 87.7513266,86.2245984 84.736708,88.6071934 Z M103.398421,85.374531 C102.403181,85.3319009 102.183034,84.2749211 104.138579,80.1014955 C104.891871,78.4537238 106.864127,75.464379 110.81458,71.9542798 C111.63829,72.6016479 112.231584,73.2930778 112.417662,74.0564296 C113.976221,79.0400702 107.475401,83.1958323 103.398421,85.374531 Z" id="Shape"></path>
                </g>
                <g id="react" transform="translate(206.000000, 121.000000)" stroke="#5B0030" stroke-width="3.54319321" opacity="0.337013134">
                    <path d="M52.5,36.5136246 C58.0223197,36.5136246 62.4999036,40.9846456 62.4999036,46.5 C62.4999036,52.0153544 58.0223197,56.4863754 52.5,56.4863754 C46.9776803,56.4863754 42.5000964,52.0148489 42.5000964,46.5 C42.5000964,40.9851511 46.9776803,36.5136246 52.5,36.5136246 Z M52.5,26.5272493 C81.4949624,26.5272493 105,35.4692912 105,46.5 C105,57.5307088 81.4949624,66.4727507 52.5,66.4727507 C23.5050376,66.4727507 0,57.5307088 0,46.5 C0,35.4692912 23.5050376,26.5272493 52.5,26.5272493 Z M69.8211531,56.4863754 C55.3234188,81.5625096 35.8166217,97.4206068 26.25,91.9047469 C16.6833783,86.388887 20.682125,61.5897589 35.1798592,36.5136246 C49.6775935,11.4374904 69.1843907,-4.42060679 78.75,1.09525309 C88.3156093,6.61111297 84.317875,31.4102411 69.8211531,56.4863754 L69.8211531,56.4863754 Z M69.8211531,36.5136246 C84.317875,61.5897589 88.3166217,86.389898 78.75,91.9047469 C69.1833783,97.4195958 49.6770874,81.5625096 35.1788469,56.4863754 C20.6806064,31.4102411 16.6833783,6.610102 26.25,1.09525309 C35.8166217,-4.41959582 55.3229126,11.4374904 69.8211531,36.5136246 L69.8211531,36.5136246 Z" id="Shape"></path>
                </g>
                <g id="npm" transform="translate(460.000000, 147.000000)" fill-rule="nonzero" fill="#5B0030">
                    <polyline id="Shape" fill-opacity="0.1953125" points="0 0 0 34.4197531 28.3333333 34.4197531 28.3333333 40.1563786 51 40.1563786 51 34.4197531 102 34.4197531 102 0"></polyline>
                    <polyline id="Shape" points="5.66666667 5.73662551 5.66666667 28.6831276 17 28.6831276 17 11.473251 22.6666667 11.473251 22.6666667 28.6831276 28.3333333 28.6831276 28.3333333 5.73662551 34 5.73662551 34 34.4197531 45.3333333 34.4197531 45.3333333 11.473251 51 11.473251 51 22.9465021 45.3333333 22.9465021 45.3333333 28.6831276 56.6666667 28.6831276 56.6666667 5.73662551 62.3333333 5.73662551 62.3333333 28.6831276 73.6666667 28.6831276 73.6666667 11.473251 79.3333333 11.473251 79.3333333 28.6831276 85 28.6831276 85 11.473251 90.6666667 11.473251 90.6666667 28.6831276 96.3333333 28.6831276 96.3333333 5.73662551"></polyline>
                </g>
                <g id="jquery" transform="translate(904.000000, 612.000000)" fill-opacity="0.988903986" fill-rule="nonzero" fill="#5B0030">
                    <path d="M87.7855957,62.2901074 C86.5709473,64.3047363 85.4738086,66.4018945 84.1216113,68.3197559 C77.3740723,77.890166 68.1336914,83.4844922 56.5737891,85.2273633 C50.7573633,86.1044238 44.9275781,85.9179199 39.1626563,84.8249121 C33.0326367,83.6622949 27.4763672,81.0268066 22.3454004,77.5468652 C11.8380762,70.4213965 4.59272461,60.8744531 1.37838867,48.5007715 C-0.764912109,40.2502148 -0.561533203,32.0781445 3.07335938,24.2257324 C4.02082031,22.178584 5.30068359,20.2609863 6.60796875,18.4109766 C8.11933594,16.2719824 9.82959961,14.2735254 11.5793262,12.2838574 C11.2826953,12.9775781 10.9694531,13.6649707 10.6918066,14.3663379 C7.42412109,22.6182129 7.38861328,31.0005176 9.89912109,39.409541 C13.3152539,50.8519336 20.3718164,59.6276367 30.1663477,66.271377 C38.9525098,72.2308887 48.6955371,75.0818848 59.3177344,74.7815625 C67.3872363,74.5534863 74.9657813,72.612334 81.5337598,67.7169141 C83.724082,66.0843457 85.6444043,64.089668 87.6882129,62.2608398 C87.7204688,62.2706836 87.7531641,62.2803516 87.7855957,62.2901074 Z" id="Shape"></path>
                    <path d="M90,39.5965723 C89.3396777,40.8995508 88.7660156,42.2222168 88.0319531,43.4491699 C83.3116992,51.3389355 76.3207031,55.8408691 67.2751758,57.2615332 C62.6300684,57.9912891 57.9820605,57.8565527 53.4039258,56.9606836 C50.0886035,56.3119629 46.9950293,54.8820703 44.0860254,53.1412207 C35.6650488,48.1018359 29.6680957,41.1011719 27.1651465,31.4929687 C25.032041,23.3049023 26.168291,15.598916 31.2955664,8.66381836 C32.2977832,7.30819336 33.2488477,5.91477539 34.2254883,4.54025391 C34.2587988,4.49323242 34.3126758,4.46097656 34.4315918,4.35568359 C34.3948535,4.53533203 34.3926563,4.65082031 34.3483594,4.74688477 C30.6317285,12.8108496 30.9329297,20.9195508 34.7594238,28.739707 C40.7525977,40.987793 50.7166699,48.0563086 64.2669434,49.7696484 C71.8685156,50.7308203 78.9454688,49.0464844 85.0769824,44.2749023 C86.8324219,42.9089062 88.3246289,41.2054102 90,39.5965723 Z" id="Shape"></path>
                    <path d="M53.2001953,0 C52.824375,1.52982422 52.3138184,3.01666992 52.1103516,4.54456055 C51.4530176,9.48049805 52.9245703,13.9172168 55.6864453,17.9361914 C59.8334766,23.9709375 65.6420801,27.2881055 72.8970996,28.1355469 C75.2088867,28.405459 77.5052051,28.3899023 79.7772656,27.8499023 C82.3536035,27.2374805 83.3806055,26.6184668 87.0013477,23.5564453 C86.7807422,23.9811328 86.6661328,24.2366309 86.5214648,24.4740234 C83.111748,30.0738867 78.132832,32.866875 71.5698633,33.133623 C60.3348926,33.5905664 51.0638379,25.0999805 48.9845215,16.3584668 C47.7549316,11.1890918 48.5720508,6.38542969 51.7164258,2.03756836 C52.2107227,1.35457031 52.7091504,0.674296875 53.2001953,0 Z" id="Shape"></path>
                </g>
                <g id="jekyll" transform="translate(574.000000, 25.000000)" fill-rule="nonzero">
                    <path d="M179.726641,1.12815548 C179.687475,1.28608017 179.687475,1.44400486 179.726641,1.60192956 C179.726641,1.60192956 180.234625,4.95990726 179.648309,6.46078556 L155.569012,69.784234 C153.84923,74.4455852 156.155328,79.6202906 160.767915,81.3982297 C165.380503,83.1753773 170.501466,80.8844797 172.338746,76.2627087 L196.418042,12.9392602 C196.88686,11.7146512 199.584227,9.30501325 199.584227,9.30501325 C199.701725,9.18627288 199.818832,9.06792831 199.896772,8.94958374 L199.896772,8.91000362 C199.896772,8.87042349 199.935938,8.87042349 199.935938,8.83084337 C200.56142,7.2116205 196.535149,4.13030787 190.984534,1.95775487 C185.433528,-0.215193925 180.391289,-0.649783684 179.765807,1.00941511 C179.765807,1.00941511 179.726641,1.04899523 179.726641,1.12815548 Z" id="Shape" fill="#5B0030" opacity="0.1"></path>
                    <path d="M178.72594,1.12778917 C178.686774,1.28610996 178.686774,1.44403495 178.72594,1.60195994 C178.72594,1.60195994 179.234313,4.95954813 178.647608,6.46082504 L154.568801,69.784392 C152.849418,74.445752 155.155506,79.620467 159.768075,81.3980137 C164.380644,83.1755604 169.501194,80.8846585 171.338467,76.2628788 L195.417665,12.9393118 C195.886873,11.7147005 198.583837,9.30505806 198.583837,9.30505806 C198.701335,9.18631746 198.818833,9.06797267 198.896773,8.94962788 L198.896773,8.91004768 C198.896773,8.87046748 198.935939,8.87046748 198.935939,8.83088729 C199.561418,7.21126559 195.535163,4.13034298 189.984179,1.95739012 C184.433196,-0.215166942 179.390585,-0.649757515 178.765106,1.00944438 C178.765106,1.04902458 178.765106,1.08860478 178.72594,1.12818497 L178.72594,1.12778917 Z" id="Shape" fill="url(#linearGradient-2)"></path>
                    <path d="M187,29 L169.590027,74.8677174 C168.299194,78.1610493 164.582317,79.8669508 161.257041,78.5578076 C157.931373,77.2482669 156.170933,73.3995529 157.384151,70.106221 L168.494798,40.7842763 C168.494798,40.7842763 169.86403,38.5225953 172.602884,36.8962046 C175.341347,35.2690187 177.571394,35.6260216 180.58386,34.2771231 C183.635133,32.9282246 187,29 187,29 L187,29 Z" id="Shape" fill="#5B0030"></path>
                    <path d="M178.905253,1 C178.905253,1 179.417096,4.34334493 178.826233,5.83797028 L154.573035,68.886105 C152.840947,73.5268732 155.163898,78.6794183 159.8098,80.4494942 C160.597221,80.7640689 161.423954,80.9604806 162.250686,81 C159.060469,78.5758017 157.830963,74.3649065 159.218937,70.6166614 L183,8.82722099 C183,8.82722099 179.731985,5.79845084 178.905253,1 L178.905253,1 Z" id="Shape" fill="#5B0030" opacity="0.3"></path>
                    <g id="Group" opacity="0.5" transform="translate(164.000000, 41.000000)" fill="#FFFFFF">
                        <ellipse id="Oval" cx="7.08946875" cy="0.963096774" rx="1" ry="1"></ellipse>
                        <ellipse id="Oval" cx="11.802375" cy="5.93303226" rx="1.08753125" ry="1.04012903"></ellipse>
                        <ellipse id="Oval" cx="4.59184375" cy="11.8656774" rx="2.05440625" ry="1.96490323"></ellipse>
                        <ellipse id="Oval" cx="1.28903125" cy="15.4873548" rx="1.08753125" ry="1.04012903"></ellipse>
                        <ellipse id="Oval" cx="5.5989375" cy="23.192129" rx="1" ry="1"></ellipse>
                    </g>
                    <path d="M46.5901437,37.6963623 C47.6473554,38.552984 49.56674,38.046834 50.8590184,36.6453384 C52.2301756,35.1660036 52.4259991,33.2587491 51.3683951,32.4021274 C50.310791,31.5455057 48.3917987,32.0516557 47.0991279,33.5309905 C45.7283631,35.0103253 45.4932964,36.879247 46.5901437,37.6967535 L46.5901437,37.6963623 Z M43.4177238,40.4602385 C43.1430215,40.4602385 42.6340373,40.9663885 43.0649275,41.1611819 C43.6523982,41.3555842 43.9267081,41.8617342 43.9267081,42.5626776 C43.4177238,45.482232 39.7747781,48.7913733 38.3651626,49.9202364 C38.0123662,50.2703169 38.5217429,51.0490995 38.8741468,50.7768581 C39.657441,50.1537538 41.3025157,48.8692124 42.6340373,47.1563602 C40.4407351,52.0222843 36.1326172,58.3288192 34.4875425,60.5478214 C28.0642164,69.384715 18.3114977,77.5206652 11.6142542,77.5206652 C6.24813975,77.5206652 1.70534755,73.9001674 0.725837419,68.6063236 C0.64735103,68.0219433 -0.135943132,67.9053802 0.0206372141,68.6837716 C1.23482165,75.9634913 6.87485356,78.8052066 13.6898267,78.8052066 C21.1707569,78.8052066 29.9443579,73.4331325 34.8007032,67.9053802 C42.6340373,58.9906474 47.6865985,48.713143 46.355077,42.9127581 C45.8068495,40.7719862 44.279112,40.4211234 43.4177238,40.4602385 L43.4177238,40.4602385 Z M91.5534262,59.8859931 C93.6293912,59.3798431 95.3133167,58.25098 95.3133167,56.4602887 C95.3133167,56.2654953 94.9609128,56.2654953 94.9609128,56.4602887 C94.9609128,57.5113126 93.7467284,58.4066583 92.3759636,58.6014517 C89.1643005,59.1072106 82.8190684,55.3701496 79.8424721,51.5161343 C83.0541352,52.7228366 89.5951908,50.9712603 92.6891243,48.7522582 C95.5483834,46.6889342 96.6840815,44.4312081 96.8802974,42.6014016 C97.2327013,39.5648928 93.9033087,37.7745926 89.2423945,39.5648928 C86.2657982,40.7719862 82.7017313,43.3801841 78.981084,48.2852233 C82.8975548,41.8617342 90.6135517,31.3511035 98.1725758,24.6553729 C107.376675,16.5194227 112.703546,18.0762055 104.439322,26.7186968 C101.031835,30.2609644 94.6085089,34.854647 90.182269,36.8401318 C88.8118966,37.4241209 89.4774612,38.2025123 90.4569714,37.7742015 C95.1567363,35.7112687 101.423482,31.4676666 105.222616,27.9250079 C116.424193,17.2199749 107.063122,9.1614727 94.6866029,20.4900011 C86.2657982,28.1976405 80.7827391,36.2561427 76.0040953,46.7280494 C74.359413,48.713143 73.1452285,50.3481561 71.6567342,51.5939735 C71.4605182,51.7496517 71.3435735,51.90533 71.2258439,52.0613994 C67.1131571,55.564943 60.6509803,60.3143039 56.6167799,60.3530279 C53.7575207,60.4312582 52.5433363,58.289704 53.052713,55.526219 C53.8360071,51.2047778 58.3399486,46.1049451 62.1783254,44.3533689 C67.1524003,42.0952516 70.0897534,46.494532 63.5490902,49.9976844 C61.0426274,51.2826169 58.0660311,51.9831692 56.8518466,51.9831692 C55.4418386,51.9831692 55.5591758,52.5671583 56.7733602,52.6062734 C58.7708388,52.6841126 61.9825019,51.827882 64.0977101,50.8543061 C70.7949536,47.6625102 71.2258439,41.7060559 63.9407373,41.5116536 C56.0293093,41.239021 46.5509005,47.9347516 46.6293869,56.3824495 C46.7078733,60.1973497 49.7625635,62.2606736 53.9533443,62.2606736 C60.964141,62.1824433 67.1916435,56.8882084 72.3226912,52.2170777 C73.0667422,51.5939735 73.7715499,50.9321452 74.4767501,50.2315929 C72.6750951,54.7474365 71.7740713,58.9515323 72.2049616,62.0658802 C72.4792715,64.3239975 73.7715499,65.3750214 74.7899108,66.2316431 C74.9861268,66.3869303 75.4166246,66.2316431 75.1427071,65.8029411 C73.6542128,64.0513649 74.085103,58.795854 76.1218248,53.6964125 C77.8449935,57.1221169 84.5426295,61.443167 91.5534262,59.8859931 Z M83.1326215,45.1317603 C91.3187519,37.8524318 94.5300225,44.3533689 89.3208809,48.3239473 C86.6182021,50.3872712 81.2524801,51.9444452 79.5685546,50.9321452 L79.2157583,50.7377429 C79.0199348,50.3872712 78.784868,50.0367995 78.6282877,49.686719 C79.9990525,48.0125908 81.5660332,46.533256 83.1326215,45.1317603 Z M128.644131,36.8401318 C131.934281,37.1902124 130.563124,33.219634 127.234124,34.2319339 C125.746022,34.6598536 124.29677,37.5019601 123.239166,39.9544797 C119.949409,44.8204037 114.465958,51.4774103 110.627581,54.9809539 C107.220094,57.9005083 104.086918,58.6792909 107.924902,53.2289865 C109.491883,51.0490995 111.489361,48.713143 112.62506,46.3775777 C115.327738,40.4993536 109.569977,37.8911558 104.909063,41.4334233 C102.206776,43.4967472 98.5642229,47.7399582 95.7049638,50.0759147 C94.9216696,50.6986278 95.1174931,51.6326975 95.9011797,51.0099843 C98.1725758,49.180569 102.167533,44.976082 105.614263,42.5235624 C108.473522,40.3436754 109.60922,41.745171 107.964145,43.5745864 C105.692749,46.1827843 101.6974,50.7377429 100.679431,53.6181822 C99.2694231,57.9396235 100.953349,59.846878 103.812608,59.846878 C107.729079,59.846878 113.564934,53.7742517 117.481797,48.9470516 C118.774076,47.3120385 120.184084,45.4043929 121.398268,43.5745864 C117.990781,50.1537538 114.426715,56.8103692 110.000867,62.8446627 C103.734121,71.3310846 95.9007873,77.7154586 88.4591003,77.7154586 C83.0933783,77.7154586 78.4717073,74.0949608 77.4925896,68.8007259 C77.4141032,68.2167367 76.7092955,68.0997825 76.7873894,68.878565 C78.0015739,76.1578935 83.6416058,79 90.4565789,79 C97.9375091,79 105.144129,74.6789499 110.196691,69.384715 C120.3803,58.6788997 121.594092,46.6502102 124.727661,39.9153645 C126.215763,36.8401318 127.547677,36.7235687 128.644131,36.8401318 L128.644131,36.8401318 Z M170.08259,26.5622362 C171.571085,24.0318775 171.492598,22.0467839 168.006625,22.0467839 C165.382433,22.124623 160.604182,23.9540383 158.371636,25.6668906 C157.862652,26.1730405 158.097719,26.4452819 158.724433,26.1730405 C159.15493,26.0173623 159.664307,25.7447297 160.13444,25.5503274 C162.640903,24.1875558 161.622542,27.0296622 161.074315,28.0806862 C158.097719,33.258358 152.810091,40.5376865 150.029318,44.1581843 C148.70929,45.9288635 147.283628,47.6188195 145.760051,49.2189018 C143.096615,51.7496517 137.80938,56.2263801 133.775179,57.7053238 C120.810797,62.5325238 137.339246,40.5768016 138.710011,38.7861103 C141.765094,34.9712102 148.618917,28.3142036 150.694882,24.9663383 C152.183377,22.4355884 152.105283,20.4504948 148.618917,20.4504948 C145.995118,20.5287251 141.216866,22.3581404 138.984321,24.0709926 C138.474944,24.5771426 138.710011,24.849384 139.336725,24.5771426 C139.767615,24.4214643 140.276599,24.1488318 140.746733,23.9540383 C143.253588,22.5916578 142.235227,25.4333731 141.686607,26.4847882 C138.710011,31.6620689 133.422775,38.9417886 130.64161,42.5622864 C128.370214,45.5987951 125.589441,48.6349127 123.43499,50.3477649 C122.573602,51.0487083 123.082586,51.7105366 123.944367,51.1265475 C124.727661,50.6203975 125.863359,49.4915344 127.15603,48.1678779 C124.805755,52.8393997 122.886762,59.4185671 129.075022,60.1969585 C134.36265,60.8975108 140.629396,55.5645519 144.702447,51.5935823 L146.151698,50.1533627 L146.504102,49.802891 C144.154219,54.4744128 142.235227,61.0535802 148.423094,61.8319716 C155.199216,62.7664324 163.620021,53.6960214 166.87132,50.3477649 C167.497641,49.7250518 167.301818,48.6349127 166.244213,49.7250518 C164.325221,51.7105366 157.823409,57.5887606 153.123644,59.3403368 C140.159262,64.1675369 156.687711,42.2118147 158.058475,40.4211234 C161.152801,36.5283841 168.006625,29.8713775 170.08259,26.5626274 L170.08259,26.5622362 Z" id="Shape" fill="#5B0030" opacity="0.1"></path>
                    <path d="M46.5612467,36.6962236 C47.6190946,37.5528401 49.5385291,37.0466932 50.8314979,35.6452061 C52.2025786,34.1658803 52.3984473,32.2586375 51.3405994,31.4020211 C50.2831441,30.5454046 48.3633171,31.0515515 47.0707408,32.5308773 C45.6996601,34.010203 45.5033989,35.8399983 46.5612467,36.6966148 L46.5612467,36.6962236 Z M43.4273479,39.460474 C43.1529747,39.460474 42.6438732,39.9662298 43.0748628,40.161022 C43.6624688,40.3558143 43.9364494,40.86157 43.9364494,41.5625091 C43.4273479,44.4820457 39.7835625,47.7911668 38.373622,48.920023 C38.0211369,49.2704925 38.530631,50.0488792 38.8827236,49.7766394 C39.6665908,49.153539 41.3116522,47.8690054 42.6438732,46.1561637 C40.449673,51.022058 36.1405621,57.3285544 34.4951082,59.547543 C28.0703016,68.3843826 18.315335,76.5202831 11.6165477,76.5202831 C6.24958896,76.5202831 1.70535716,72.8998074 0.725621256,67.605996 C0.647116777,67.0216193 -0.135965408,66.9050568 0.0206510293,67.6834435 C1.23511533,74.9631187 6.87644723,77.8048166 13.6929912,77.8048166 C21.1756457,77.8048166 29.9508764,72.4327754 34.8087336,66.9050568 C42.6434807,57.9903786 47.6975991,47.7133281 46.365378,41.9129787 C45.777772,39.7327138 44.2889346,39.3822442 43.4273479,39.460474 L43.4273479,39.460474 Z M91.534893,58.8857188 C93.6113365,58.3795719 95.2960426,57.2507157 95.2960426,55.4600353 C95.2960426,55.2652431 94.943165,55.2652431 94.943165,55.4600353 C94.943165,56.5110528 93.7290932,57.406393 92.3576199,57.6011853 C89.1452166,58.106941 82.7989145,54.370294 79.8216321,50.5159111 C83.0340354,51.7229971 89.5762062,49.9710405 92.6712453,47.7520519 C95.5311635,45.6887406 96.6671234,43.4310282 96.862992,41.6012329 C97.2154771,38.5647427 93.8857096,36.7744534 89.2237211,38.5647427 C86.2464387,39.7718287 82.6811578,42.3800106 78.9596529,47.2850199 C82.8770265,40.86157 90.5948019,30.3510035 98.1559608,23.6553139 C107.362181,15.5194134 112.689888,17.0761867 104.423758,25.7186252 C101.015486,29.2608711 94.5910724,33.8545257 90.1638123,35.8399983 C88.7927315,36.4239839 89.458842,37.2023705 90.4381854,36.7740623 C95.1394262,34.7111421 101.407224,30.4679571 105.207233,26.9249289 C116.411785,16.2199614 107.048556,8.16150839 94.6691844,19.4899675 C86.2464387,27.158836 80.7621158,35.2560128 75.9823705,45.7278555 C74.3369167,47.7133281 73.1224524,49.3483312 71.6336149,50.5937498 C71.4377462,50.7494271 71.320382,50.9054956 71.2030178,51.0611729 C67.0893831,54.5646951 60.6253242,59.314027 56.590194,59.3527508 C53.7306683,59.4309806 52.5158115,57.2894395 53.0253056,54.5259713 C53.8087803,50.2045565 58.3141524,45.104755 62.1534139,43.3531895 C67.1286353,41.0954771 70.0666655,45.4943395 63.5244947,48.9974705 C61.0170616,50.2823952 58.0397792,50.9833343 56.8253149,50.9833343 C55.4149819,50.9833343 55.5327387,51.5669287 56.7468104,51.6060436 C58.7447494,51.6838822 61.9575453,50.8276569 64.0728485,49.8540869 C70.7720282,46.6623106 71.2030178,40.7058927 63.9158395,40.5114916 C56.002588,40.2388607 46.5219945,46.9345503 46.600499,55.3821966 C46.6790034,59.1970734 49.7343978,61.2603847 53.926537,61.2603847 C60.9389496,61.1821549 67.1678876,55.8883435 72.2997254,51.2168503 C73.0439479,50.5937498 73.7493106,49.9319256 74.4546734,49.2313776 C72.6522105,53.7471935 71.7513716,57.9512637 72.1819687,61.0655925 C72.4567344,63.323696 73.7493106,64.3747136 74.7679062,65.23133 C74.9637749,65.3866162 75.3947645,65.23133 75.1203914,64.8030218 C73.6319464,63.0510651 74.0625435,57.7955863 76.0997347,52.696176 C77.8625528,56.1218595 84.5617326,60.4428832 91.534893,58.8857188 Z M83.1121474,44.0924612 C91.3001646,36.8131772 94.5125679,43.3140746 89.3022256,47.2850199 C86.5989238,49.3483312 81.2319651,50.9054956 79.547259,49.8932018 L79.1947739,49.6984096 C78.9985127,49.3483312 78.7637843,48.9978616 78.6071678,48.6473921 C79.9782486,47.012389 81.545198,45.4943395 83.1121474,44.0928524 L83.1121474,44.0924612 Z M128.63454,35.8403895 C131.925055,36.190859 130.553975,32.2199138 127.224207,33.2322075 C125.73537,33.6601246 124.285784,36.5022137 123.228329,38.9547183 C119.937421,43.8206126 114.452706,50.4775785 110.613837,53.9811007 C107.205172,56.9006373 104.071273,57.6794151 107.910535,52.229144 C109.477484,50.0492703 111.475423,47.7137193 112.611776,45.3777771 C115.314685,39.499589 109.555989,36.891407 104.894,40.4336529 C102.190699,42.4969642 98.5476982,46.7401492 95.68778,49.0760914 C94.9043053,49.6988008 95.1001739,50.6328647 95.8836486,50.0101554 C98.1559608,48.1807512 102.151839,43.97629 105.598971,41.5237854 C108.458889,39.3439116 109.594849,40.7453987 107.949787,42.5748029 C105.677475,45.183376 101.681597,49.7379157 100.663001,52.6187285 C99.2526684,56.9397522 100.937375,58.846995 103.7969,58.846995 C107.714274,58.846995 113.551867,52.7744058 117.46924,47.9472353 C118.762209,46.3122322 120.172542,44.4045982 121.386614,42.5748029 C117.978734,49.1539301 114.413846,55.810896 109.986978,61.8447614 C103.718396,70.3311315 95.8836486,76.7154665 88.4402464,76.7154665 C83.0732877,76.7154665 78.4505514,73.0949908 77.4708155,67.8007882 C77.392311,67.2168027 76.6873408,67.0998491 76.7658453,67.8786269 C77.9803096,75.1579109 83.6216415,78 90.4381854,78 C97.9208399,78 105.129121,73.6789763 110.182847,68.3847738 C120.368411,57.6790239 121.582875,45.650408 124.716774,38.9156034 C126.205611,35.8403895 127.576692,35.6847122 128.634147,35.8403895 L128.63454,35.8403895 Z M170.08255,25.523833 C171.570995,22.9934897 171.492883,21.008017 168.006107,21.008017 C165.381309,21.0862468 160.601957,22.915651 158.368897,24.6284928 C157.859403,25.1346396 158.094524,25.4068794 158.721382,25.1346396 C159.152371,24.9789623 159.661473,24.7063314 160.131715,24.5115392 C162.639148,23.149167 161.620552,25.9908649 161.071806,27.0422736 C158.094524,32.2195226 152.806069,39.4991978 150.024263,43.1196735 C148.704057,44.8903309 147.278198,46.5802763 145.754404,48.1803601 C143.090355,50.7107034 137.801901,55.1874044 133.76677,56.6667301 C120.7994,61.4939007 137.331659,39.5383127 138.702739,37.7472412 C141.758526,33.9323644 148.61393,27.2757896 150.690374,23.9279448 C152.179211,21.3972104 152.100706,19.4121289 148.61393,19.4121289 C145.989133,19.4899675 141.20978,21.3193717 138.97672,23.0322134 C138.467619,23.5383603 138.702739,23.8109912 139.329598,23.5383603 C139.760195,23.382683 140.269689,23.1104432 140.739931,22.915651 C143.246971,21.5532788 142.228376,24.3949768 141.680022,25.4459943 C138.702739,30.6236344 133.413893,37.9033096 130.632479,41.5233942 C128.360167,44.5598844 125.578753,47.5963745 123.424198,49.3092163 C122.562218,50.0097643 123.071713,50.6715885 123.933299,50.0876029 C124.716774,49.5818472 125.852734,48.4525998 127.145703,47.1293426 C124.795278,51.8008358 122.875451,58.3795719 129.065137,59.1583497 C134.353984,59.8588976 140.622174,54.5255802 144.696557,50.555026 L146.146142,49.1144241 L146.498627,48.7643456 C144.148203,53.4358389 142.228376,60.014575 148.418061,60.7933528 C155.195746,61.7274167 163.618491,52.6574523 166.870147,49.3092163 C167.496613,48.686507 167.300744,47.5963745 166.243289,48.686507 C164.323854,50.6715885 157.820543,56.5497766 153.119302,58.3017332 C140.152325,63.1289038 156.684191,41.1733158 158.055271,39.3822442 C161.189563,35.4895288 168.005714,28.832954 170.082158,25.523833 L170.08255,25.523833 Z" id="Shape" fill="#5B0030"></path>
                </g>
                <g id="html" transform="translate(799.000000, 190.000000)" fill-rule="nonzero" fill="#5B0030">
                    <path d="M0,0 L9.09755417,98.1031934 L49.9377578,109 L90.8849471,98.0868008 L100,0 L0,0 Z M83.0882776,91.8435703 L50.170114,100.612109 L50.170114,100.661713 L50.084171,100.636805 L49.9975635,100.661713 L49.9975635,100.612109 L17.0798428,91.8435703 L9.30045054,8.01937695 L90.8685559,8.01937695 L83.0882776,91.8435703 Z M65.3671848,56.4377305 L63.9196654,72.0375039 L49.9720907,75.655793 L49.9417448,75.6640957 L36.0023656,72.0538965 L35.1108177,62.4489102 L22.5416536,62.4489102 L24.2948465,81.3442305 L49.9417448,88.1837676 L49.955035,88.1837676 L49.9720907,88.1837676 L49.9975635,88.1754648 L75.618989,81.3442305 L79.0569306,44.4064297 L33.4309421,44.4064297 L32.2899823,32.0855977 L80.1502674,32.0855977 L80.1934604,32.0855977 L81.3135989,20.0545098 L18.6042236,20.0545098 L21.9819165,56.4375176 L65.3671848,56.4375176 L65.3671848,56.4377305 Z" id="Shape"></path>
                </g>
                <text id="JS" font-family="AvenirNext-Bold, Avenir Next" font-size="75" font-weight="bold" fill="#5B0030">
                    <tspan x="66" y="741">JS</tspan>
                </text>
            </g>
            <g id="sketch" transform="translate(849.000000, 879.000000)" stroke="#5B0030" stroke-width="7" stroke-linecap="round">
                <path d="M65.0955647,119.530244 C63.5553995,119.530244 -1.85585478,41.989602 0.592673321,41.989602 C3.04120142,41.989602 126.118174,43.5041932 129.537706,43.5041932 C132.957238,43.5041932 66.6357299,119.530244 65.0955647,119.530244 Z" id="Triangle"></path>
                <path d="M0.711327627,41.8658937 C-0.914082381,41.033273 21.2816585,6.35315318 21.2816585,6.35315318 L63.5034728,0.441993657 L107.45164,5.29895483 C107.45164,5.29895483 129.762778,40.2169444 129.762778,41.8658937 C129.762778,43.514843 31.8379074,40.9373425 31.8379074,40.9373425 C31.8379074,40.9373425 2.33673763,42.6985145 0.711327627,41.8658937 Z" id="Path-8"></path>
                <polyline id="Path-9" points="63.5384786 0.403543772 31.1227179 41.9494804 21.3372222 6.16851893"></polyline>
                <polyline id="Path-10" points="63.8928862 0.778012218 95.0375143 43.6705502 107.776743 5.53743929"></polyline>
                <path d="M29.9474888,43.5953027 L65.0064335,113.862742 C65.0064335,113.862742 96.0996802,43.8870203 96.0996802,43.8870203" id="Path-11"></path>
            </g>
            <path d="M96.706385,402.333532 L96.6161852,402.243332 L102.962223,395.897294 L103.052423,395.987494 L117.869312,381.170605 C122.083625,376.956293 128.922985,376.962902 133.130688,381.170605 L197.829395,445.869312 C202.043707,450.083625 202.037098,456.922985 197.829395,461.130688 L133.130688,525.829395 C128.916375,530.043707 122.077015,530.037098 117.869312,525.829395 L53.1706053,461.130688 C48.9562926,456.916375 48.9629017,450.077015 53.1706053,445.869312 L96.706385,402.333532 Z M96.706385,402.333532 L116.299462,421.926609 C115.865192,423.094937 115.627881,424.359042 115.627881,425.678574 C115.627881,430.024989 118.202656,433.770033 121.910139,435.47164 L121.910139,475.118221 C118.202656,476.819828 115.627881,480.564872 115.627881,484.911287 C115.627881,490.859164 120.449588,495.680871 126.397465,495.680871 C132.345342,495.680871 137.167049,490.859164 137.167049,484.911287 C137.167049,480.564872 134.592275,476.819828 130.884792,475.118221 L130.884792,436.511939 L145.278767,450.905915 C144.679797,452.246418 144.346772,453.731783 144.346772,455.294931 C144.346772,461.242808 149.168479,466.064515 155.116356,466.064515 C161.064233,466.064515 165.885941,461.242808 165.885941,455.294931 C165.885941,449.347054 161.064233,444.525347 155.116356,444.525347 C154.046267,444.525347 153.012629,444.681416 152.036963,444.972034 L136.495469,429.43054 C136.929739,428.262212 137.167049,426.998106 137.167049,425.678574 C137.167049,419.730697 132.345342,414.90899 126.397465,414.90899 C125.077933,414.90899 123.813828,415.146301 122.6455,415.580571 L103.052423,395.987494 L96.706385,402.333532 Z" id="Combined-Shape" fill="#5B0030"></path>
            <path d="M744.562993,693.532053 C757.380069,697.870828 906.720268,719.296327 906.720268,729.646177 C906.720268,739.996027 731.745917,689.193277 744.562993,693.532053 Z M184.925081,308.872582 C162.116473,283.646869 227.736803,342.731634 266.580279,390.990493 C305.423756,439.249353 339.524425,500.868693 338.26513,502.748056 C337.005836,504.627419 289.756941,434.472276 261.569135,398.469094 C233.381329,362.465912 201.722056,327.449589 184.925081,308.872582 Z M405.409617,217.864428 C419.932003,244.081731 458.792524,423.955355 456.054454,428.09223 C453.316384,432.229104 390.88723,191.647124 405.409617,217.864428 Z M850.927526,416.870424 C869.042487,416.870424 783.012885,434.872663 755.463492,452.617564 C727.9141,470.362465 700.539421,499.000526 699.712353,497.656214 C698.885285,496.311902 714.619972,470.438404 752.036183,447.046833 C789.452394,423.655263 832.239043,416.870424 850.927526,416.870424 Z M549.83472,322.891815 C540.629669,374.784199 547.246769,398.681113 549.83472,405.730693 C552.422671,412.780273 559.03977,270.999431 549.83472,322.891815 Z M859.879096,838.226672 C821.37191,802.24405 797.726341,794.778424 790.404567,793.109385 C783.082792,791.440347 898.386281,874.209295 859.879096,838.226672 Z M185,603.001419 C153.703849,624.016448 191.087791,599.082635 227.408875,592.414212 C263.72996,585.745789 329.007463,592.621785 320.588697,594.723496 C312.16993,596.825208 240.436329,565.77652 185,603.001419 Z M731.136071,551.974655 C744.413099,553.22911 777.32755,545.435663 805.104033,546.238374 C832.880517,547.041086 867.757508,557.154939 867.757508,563.527356 C867.757508,568.366786 848.216947,559.789089 816.492362,556.346243 C784.767778,552.903398 713.930013,550.348972 731.136071,551.974655 Z M160.333716,750.857225 C160.333716,733.91314 183.58221,692.962036 240.444462,709.01003 C297.306713,725.058025 324.935765,770.979284 320.555207,763.325266 C316.17465,755.671249 252.14732,712.72781 210.150995,712.261945 C172.246694,711.841472 160.333716,762.227963 160.333716,750.857225 Z M353.736037,338.638725 C399.438745,378.522681 396.230034,418.460954 399.430099,424.571229 C402.630164,430.681503 386.440507,394.556746 370.184239,370.045287 C353.927972,345.533829 328.71167,316.800396 353.736037,338.638725 Z M655.054411,387.384858 C657.220178,382.504997 678.325185,329.683211 691.610728,286.71063 C704.896271,243.73805 703.352864,230.671529 705.584961,232.627102 C707.159687,234.006743 706.802343,271.422913 691.610728,305.896631 C676.419113,340.370348 625.913539,453.044444 655.054411,387.384858 Z M230.716822,484.186536 C234.983772,481.51093 328.454738,550.582354 328.454738,553.5202 C328.454738,555.016758 304.904728,536.547047 279.527913,518.855706 C254.151098,501.164364 224.219062,488.26098 230.716822,484.186536 Z" id="Path-18" stroke-opacity="0.1" stroke="#1D3D68" stroke-width="10"></path>
        </g>
    </g>
</svg>