<?xml version="1.0" encoding="UTF-8"?>
<svg width="1058px" height="1058px" viewBox="0 0 1058 1058" version="1.1" xmlns="http://www.w3.org/2000/svg" xmlns:xlink="http://www.w3.org/1999/xlink">
    <!-- Generator: Sketch 55.2 (78181) - https://sketchapp.com -->
    <title>Artboard</title>
    <desc>Created with Sketch.</desc>
    <defs>
        <radialGradient cx="50%" cy="50%" fx="50%" fy="50%" r="47.6200476%" id="radialGradient-1">
            <stop stop-color="#FCFCFC" offset="0%"></stop>
            <stop stop-color="#EFF4FB" offset="100%"></stop>
        </radialGradient>
        <linearGradient x1="23.962%" y1="48.7829653%" x2="68.784%" y2="51.7229791%" id="linearGradient-2">
            <stop stop-color="#919191" offset="0%"></stop>
            <stop stop-color="#FFFFFF" offset="100%"></stop>
        </linearGradient>
    </defs>
    <g id="Artboard" stroke="none" stroke-width="1" fill="none" fill-rule="evenodd">
        <g id="workflow-mr-dot">
            <rect id="Rectangle-4" fill="url(#radialGradient-1)" fill-rule="nonzero" x="0" y="0" width="1058" height="1058"></rect>
            <path d="M330.391806,679.088036 C329.547454,679.99513 330.986322,679.594289 332.553897,679.34865 C335.508063,678.885732 339.749879,678.431709 345.172956,677.998552 C355.764841,677.152547 370.684506,676.398891 389.138721,675.764093 C424.553777,674.545867 471.724368,673.81263 520.136412,673.704372 C569.547,673.593881 616.476675,674.139986 651.556175,675.285743 C670.224863,675.895494 685.27787,676.664944 696.030112,677.577257 C701.551886,678.045771 705.892391,678.548481 708.949576,679.072842 C710.93715,679.413746 712.360638,679.844634 711.761904,679.247181 C711.092228,678.578937 711.232212,679.076982 711.328119,680.130636 C711.510361,682.132775 711.519113,685.000831 711.345107,688.639056 C710.99971,695.8608 709.950023,705.888733 708.257212,718.324848 C705.130876,741.292257 699.876263,771.966834 693.418309,805.454263 C687.439489,836.457163 680.792357,867.942829 675.082379,892.386677 C672.232528,904.586609 669.699706,914.671887 667.648231,921.966553 C666.611503,925.652962 665.708585,928.587197 664.965089,930.689389 C664.422608,932.223218 663.953071,933.253782 664.171695,933.008424 C664.902141,932.188661 664.083131,932.472723 662.949302,932.698305 C660.728927,933.140062 657.534087,933.574444 653.457554,933.985564 C645.433959,934.794745 634.178302,935.497694 620.251304,936.072712 C593.758051,937.166566 558.422166,937.760559 521.653111,937.760559 C484.873967,937.760559 449.426782,937.171319 422.726586,936.078252 C408.684218,935.503378 397.289495,934.800019 389.103293,933.989406 C384.934839,933.576639 381.643337,933.139996 379.316911,932.693559 C377.856585,932.413324 376.882651,932.096157 377.420771,932.593435 C377.743244,932.891433 377.273361,931.975587 376.72425,930.533241 C375.935016,928.460171 374.997369,925.542715 373.938013,921.857661 C371.85209,914.601607 369.33767,904.525892 366.518492,892.169123 C361.08503,868.353656 354.724135,836.949547 348.814718,804.858057 C342.770116,772.032435 337.644772,740.930043 334.484927,717.607693 C332.8081,705.23128 331.70778,695.224782 331.249531,688.053573 C331.018197,684.433388 330.954684,681.587512 331.055119,679.610442 C331.099283,678.741048 331.214713,678.203981 330.391806,679.088036 L330.391806,679.088036 Z" id="Rectangle-5" stroke="#DBE2EB" stroke-width="12"></path>
            <path d="M673.317108,927.578627 C673.317108,927.578627 804.716318,857.625036 791.171399,850.225718 C777.626481,842.8264 688.338728,850.225718 688.338728,850.225718 L673.317108,927.578627 Z" id="Path-2" stroke="#DBE2EB" stroke-width="12"></path>
            <path d="M508.634677,826.136427 C525.20322,826.136427 546.47531,813.489235 546.47531,797.288882 C546.47531,781.08853 533.197246,762.492792 516.628704,762.492792 C500.060161,762.492792 480.740367,778.114257 480.740367,794.31461 C480.740367,810.514962 492.066135,826.136427 508.634677,826.136427 Z" id="Oval-2" fill-opacity="0.7" fill="#5B0030" fill-rule="nonzero"></path>
            <g id="mr-dot" transform="translate(348.000000, 445.000000)">
                <path d="M345.226858,232.187653 C350.92053,214.821196 354,196.270222 354,177 C354,79.2455993 274.754401,0 177,0 C79.2455993,0 0,79.2455993 0,177 C0,196.061635 3.01316421,214.419507 8.58917042,231.623295 C26.4944112,232.187653 326.325361,231.623295 345.226858,232.187653 Z" id="Path" stroke="#DBE2EB" stroke-width="12"></path>
                <path d="M42.0652254,119.97296 C58.1337639,180.41652 105.954353,208.758867 185.526992,205 C265.099631,201.241133 304.885951,171.605742 304.885951,116.093826" id="Path-4" stroke="#DBE2EB" stroke-width="12" stroke-linecap="round"></path>
                <path d="M249.818241,187.038654 C249.818241,190.323152 259.056902,202.258801 283.74746,209.030794 C308.438017,215.802788 299.416911,186.693285 297.217047,182.835975 C297.035733,182.518054 296.888627,182.265889 296.782602,182.085172 C296.366385,181.375745 293.422828,179.660131 292.908643,179.660131 C292.394459,179.660131 268.923942,182.085172 268.218086,182.085172 C267.184356,182.085172 249.818241,185.408993 249.818241,187.038654 Z" id="Path-5" stroke="#DBE2EB" stroke-width="8" transform="translate(275.228284, 194.854147) rotate(-28.000000) translate(-275.228284, -194.854147) "></path>
                <path d="M282.455413,188.767919 C289.953492,197.999376 289.953492,204.644159 289.953492,204.644159" id="Path-6" stroke="#DBE2EB" stroke-width="8" stroke-linecap="round" transform="translate(286.204453, 196.706039) rotate(-28.000000) translate(-286.204453, -196.706039) "></path>
                <circle id="Oval-3" fill="#DBE2EB" fill-rule="nonzero" cx="143" cy="143" r="10"></circle>
                <circle id="Oval-3" fill="#DBE2EB" fill-rule="nonzero" cx="207" cy="144" r="10"></circle>
            </g>
            <g id="dots-group-mono" transform="translate(60.000000, 122.000000)">
                <g id="webpack" transform="translate(43.000000, 104.000000)" fill="#5B0030" fill-rule="nonzero">
                    <polygon id="Shape" fill-opacity="0.0678781703" points="35 0 69.9538607 19.6113679 69.9538607 58.8341038 35 78.4454716 0.0461393597 58.8341038 0.0461393597 19.6113679"></polygon>
                    <path d="M63.7118644,57.4809193 L36.153484,72.9412144 L36.153484,60.8998345 L53.3239171,51.5321378 L63.7118644,57.4809193 Z M65.5969868,55.7878046 L65.5969868,23.455196 L55.512241,29.2274754 L55.512241,50.0089882 L65.5969868,55.7878046 Z M6.17608286,57.4809193 L33.7344632,72.9412144 L33.7344632,60.8998345 L16.5640302,51.5321378 L6.17608286,57.4809193 L6.17608286,57.4809193 Z M4.29096045,55.7878046 L4.29096045,23.455196 L14.3757063,29.2274754 L14.3757063,50.0089882 L4.29096045,55.7878046 L4.29096045,55.7878046 Z M5.47080979,21.3633168 L33.7344632,5.50425726 L33.7344632,17.1468727 L15.6280602,27.024465 L15.4896422,27.1029105 L5.47080979,21.3633168 L5.47080979,21.3633168 Z M64.4171374,21.3633168 L36.153484,5.50425726 L36.153484,17.1468727 L54.259887,27.024465 L54.3983051,27.1029105 L64.4171374,21.3633168 L64.4171374,21.3633168 Z" id="Shape"></path>
                    <path d="M33.7344632,58.1607801 L16.7947269,48.9238258 L16.7947269,30.6198824 L33.7344632,40.3209725 L33.7344632,58.1607801 M36.153484,58.1607801 L53.0932203,48.9238258 L53.0932203,30.6198824 L36.153484,40.3209725 L36.153484,58.1607801 M17.9416196,28.5018547 L34.9472693,19.2256777 L51.952919,28.5018547 L34.9472693,38.2421674 L17.9416196,28.5018547" id="Shape" fill-opacity="0.7"></path>
                </g>
                <g id="django-logo-positive" transform="translate(0.000000, 506.000000)" fill="#5B0030" fill-opacity="0.999009284" fill-rule="nonzero">
                    <path d="M14.8385904,0 L21.7215927,0 L21.7215927,31.7870153 C18.1907094,32.4558614 15.5983387,32.7233998 12.7828009,32.7233998 C4.38001373,32.7233998 0,28.9332723 0,21.6642824 C0,14.6631187 4.64844851,10.1149657 11.844,10.1149657 C12.9612769,10.1149657 13.8104073,10.2038574 14.8385904,10.4713959 L14.8385904,0 Z M14.8385904,16.000523 C14.034151,15.7332723 13.3637849,15.6440929 12.5146545,15.6440929 C9.02846224,15.6440929 7.01707552,17.7846878 7.01707552,21.5302255 C7.01707552,25.1871592 8.93908008,27.1936973 12.4699634,27.1936973 C13.2294233,27.1936973 13.8553867,27.1491075 14.8385904,27.015626 L14.8385904,16.000523 Z" id="Shape"></path>
                    <path d="M32.6711945,10.6051651 L32.6711945,26.5245636 C32.6711945,32.0096764 32.2689748,34.6404707 31.0623158,36.9148349 C29.9447506,39.1003073 28.4696567,40.4823014 25.4306636,41.9986401 L19.0392632,38.9662504 C22.0785446,37.5393789 23.5533501,36.291154 24.4918627,34.3729323 C25.4753547,32.410984 25.7884805,30.1366198 25.7884805,24.1613076 L25.7884805,10.6051651 L32.6711945,10.6051651 Z M25.7884805,0.0365348153 L32.6711945,0.0365348153 L32.6711945,7.08228833 L25.7884805,7.08228833 L25.7884805,0.0365348153 Z" id="Shape"></path>
                    <path d="M36.8286178,12.1658058 C39.8681877,10.739222 42.7731076,10.1149657 45.9464622,10.1149657 C49.4773455,10.1149657 51.8012815,11.0510624 52.8294645,12.8795293 C53.4101602,13.9050932 53.5889245,15.2427852 53.5889245,18.0971036 L53.5889245,32.0542661 C50.5046636,32.5001634 46.61654,32.8125793 43.7563112,32.8125793 C37.9908741,32.8125793 35.3982151,30.8051782 35.3982151,26.3462046 C35.3982151,21.5299379 38.8397162,19.3004511 47.2871945,18.5867277 L47.2871945,17.0706767 C47.2871945,15.8221641 46.6615194,15.3765544 44.9182792,15.3765544 C42.3708879,15.3765544 39.5103707,16.0899902 36.8283295,17.4725597 L36.8283295,12.1658058 L36.8286178,12.1658058 Z M47.6000321,23.091154 C43.0409657,23.5370513 41.5661602,24.2507747 41.5661602,26.0343642 C41.5661602,27.3720562 42.4155789,27.9963125 44.2926041,27.9963125 C45.3207872,27.9963125 46.2590115,27.9074207 47.6000321,27.684472 L47.6000321,23.091154 Z" id="Shape"></path>
                    <path d="M56.9413318,11.6753187 C61.0082196,10.6051651 64.3603387,10.1149657 67.7571488,10.1149657 C71.2880322,10.1149657 73.8357116,10.9172932 75.3557847,12.4782216 C76.7858994,13.9493952 77.2325218,15.5546257 77.2325218,18.9888983 L77.2325218,32.4555737 L70.3495198,32.4555737 L70.3495198,19.2564367 C70.3495198,16.6256423 69.4556979,15.6440929 66.9976888,15.6440929 C66.0591762,15.6440929 65.2100457,15.7332723 63.8240457,16.1345799 L63.8240457,32.4555737 L56.9413318,32.4555737 L56.9413318,11.6753187 Z" id="Shape"></path>
                    <path d="M79.90822,36.2016868 C82.3221147,37.4501994 84.7354326,38.0295783 87.2828236,38.0295783 C91.7966224,38.0295783 93.7186271,36.2016868 93.7186271,31.8313174 L93.7186271,31.6975482 C92.3778947,32.3661066 91.0368739,32.6339326 89.2495198,32.6339326 C83.2156479,32.6339326 79.3713501,28.6651586 79.3713501,22.3777182 C79.3713501,14.5733638 85.0479819,10.1592678 95.1037619,10.1592678 C98.0539497,10.1592678 100.780394,10.4711082 104.087822,11.1399542 L101.731016,16.0934423 C99.8983937,15.7367244 101.584256,16.0456881 100.19941,15.9119189 L100.19941,16.6256423 L100.288504,19.5236875 L100.332906,23.2698006 C100.377598,24.2058973 100.377598,25.1425695 100.422577,26.0789539 L100.422577,27.9520105 C100.422577,33.8384308 99.9309745,36.6029945 98.456169,38.8770709 C96.3107096,42.2218764 92.6010617,43.8716966 87.3272267,43.8716966 C84.6454735,43.8716966 82.3218263,43.470389 79.9079316,42.5337169 L79.9079316,36.2016868 L79.90822,36.2016868 Z M93.5848424,15.6886826 L93.3616754,15.6886826 L92.8697847,15.6886826 C91.5293407,15.6440929 89.9651536,16.000523 88.8919906,16.6693691 C87.2387096,17.6060412 86.389002,19.3007388 86.389002,21.7085845 C86.389002,25.1425695 88.0878397,27.1045178 91.126833,27.1045178 C92.0653454,27.1045178 92.8253823,26.9258712 93.7189155,26.6586205 L93.7189155,26.1678457 L93.7189155,24.2953645 C93.7189155,23.4927492 93.6745124,22.6003792 93.6745124,21.6642824 L93.63011,18.4984113 L93.5851301,16.2240471 L93.5851301,15.6886826 L93.5848424,15.6886826 Z" id="Shape"></path>
                    <path d="M114.773026,10.0254985 C121.655739,10.0254985 125.857277,14.3512782 125.857277,21.3521543 C125.857277,28.5319647 121.477551,33.0358157 114.504879,33.0358157 C107.621588,33.0358157 103.375648,28.710036 103.375648,21.7537496 C103.375936,14.5290618 107.756238,10.0254985 114.773026,10.0254985 Z M114.638376,27.5058255 C117.275726,27.5058255 118.840201,25.3206407 118.840201,21.5302255 C118.840201,17.7846878 117.320416,15.5549134 114.683932,15.5549134 C111.957199,15.5549134 110.392435,17.7403858 110.392435,21.5302255 C110.392723,25.3209284 111.957199,27.5058255 114.638376,27.5058255 Z" id="Shape"></path>
                </g>
                <g id="css" transform="translate(306.000000, 16.000000)" fill="#5B0030" fill-rule="nonzero">
                    <path d="M59.3547486,0.0121459086 L9.51262571,0.0121459086 C9.1351955,0.0121459086 8.7693855,0.314331617 8.69553071,0.687368459 L6.95452514,9.50889693 C6.88067039,9.88193379 7.12748604,10.1841195 7.50491621,10.1841195 L47.2412291,10.1841195 C47.6186592,10.1841195 47.8654749,10.4863052 47.7917319,10.859342 L46.7659218,16.0516055 C46.6920671,16.4246424 46.326257,16.7268281 45.9488268,16.7268281 L6.17776536,16.7268281 C5.80033519,16.7268281 5.43519553,17.0290138 5.36335196,17.4019381 L3.65184358,26.2221171 C3.57932961,26.5951539 3.82681564,26.8979019 4.20435754,26.8979019 L43.9406704,26.8979019 C44.3181006,26.8979019 44.5642458,27.2002001 44.4897206,27.5724497 L42.4451396,37.8323686 C42.3706145,38.2054055 42.0197766,38.6039712 41.6614525,38.7237434 L26.422905,43.8052317 C26.064581,43.9250039 25.4881564,43.9119582 25.1353073,43.7763289 L12.0535196,38.7526461 C11.7006704,38.6171293 11.4736313,38.2048431 11.5468156,37.8318064 L12.2689386,34.1482221 C12.3421229,33.7751853 12.0951955,33.4729996 11.7177654,33.4729996 L2.97955307,33.4729996 C2.60212291,33.4729996 2.23553073,33.7751853 2.16167598,34.1482221 L0.0139664804,44.9912571 C-0.0598882681,45.364294 0.166480447,45.7765801 0.519217877,45.912097 L22.9922905,54.5643699 C23.3451396,54.6999993 23.9215642,54.7130449 24.2798883,54.5932727 L50.3395531,45.8826319 C50.6978771,45.7628598 51.0487151,45.3636192 51.1225699,44.9905824 L59.9059218,0.686806149 C59.9789944,0.314331617 59.7328491,0.0121459086 59.3547486,0.0121459086 Z" id="Shape"></path>
                </g>
                <g id="sass" transform="translate(827.000000, 424.000000)" fill="#5B0030" fill-rule="nonzero">
                    <path d="M127.358735,63.4927838 C122.196322,63.5218535 117.726077,64.7591857 113.976839,66.6015126 C112.592505,63.8672358 111.208171,61.4780536 110.977737,59.6938661 C110.718174,57.6215722 110.400931,56.3548825 110.718174,53.8799303 C111.035129,51.4044025 112.477144,47.8930156 112.477144,47.605197 C112.448015,47.3461602 112.159612,46.0797584 109.18935,46.0509765 C106.219088,46.0221946 103.652014,46.6266137 103.363611,47.4037239 C103.075208,48.1808342 102.498402,49.9653095 102.123478,51.8073486 C101.604353,54.5128434 96.1823779,64.0972029 93.0964665,69.1340285 C92.0870563,67.176862 91.2218475,65.4499503 91.0485173,64.0681332 C90.7892431,61.9961271 90.4717114,60.7294374 90.7892431,58.2544853 C91.1064863,55.7789575 92.5485009,52.2678583 92.5485009,51.9800397 C92.5196607,51.721003 92.2312577,50.4546011 89.2609959,50.4258193 C86.2901573,50.3970374 83.7236596,51.0014565 83.4352567,51.7785667 C83.1468538,52.5556769 82.8296105,54.397716 82.1951241,56.1821913 C81.5891895,57.9666667 74.3791162,73.969381 72.5044972,78.1427507 C71.5527675,80.2726084 70.7166874,81.9707382 70.1107528,83.1220126 C69.5051067,84.273287 70.0819125,83.2083582 70.0242319,83.3234856 C69.5051067,84.3020689 69.2167037,84.8489242 69.2167037,84.8489242 L69.2167037,84.8779939 C68.8129396,85.5975404 68.3803352,86.2880172 68.1781648,86.2880172 C68.0339633,86.2880172 67.7455604,84.3596326 68.2358454,81.7119892 C69.3029362,76.1568024 71.8985626,67.4937502 71.8700107,67.1771498 C71.8700107,67.0332405 72.3600073,65.5075141 70.1969853,64.7306917 C68.0916439,63.9535814 67.3420847,65.2487651 67.1687545,65.2487651 C66.9957128,65.2487651 66.8515113,65.7092749 66.8515113,65.7092749 C66.8515113,65.7092749 69.187575,55.9525121 62.3812658,55.9525121 C58.1129024,55.9525121 52.2294826,60.5863916 49.316613,64.8173251 C47.4708342,65.8246902 43.5485544,67.95426 39.3955521,70.2283148 C37.809336,71.0917706 36.1654393,72.0127901 34.6080635,72.8474641 L34.2911086,72.5015061 C26.0427848,63.7230387 10.7862697,57.5061569 11.4207561,45.7055942 C11.6514785,41.417097 13.1511737,30.1058259 40.7227824,16.4056604 C63.304732,5.18073486 81.3875959,8.26039391 84.5308994,15.1104767 C89.0011449,24.8963092 74.8694012,43.0864449 51.3936909,45.7055942 C42.4532,46.7129593 37.7519438,43.259136 36.5697802,41.9639523 C35.3296476,40.6112049 35.1566058,40.5536412 34.6951611,40.8126779 C33.9453135,41.215624 34.4067582,42.4244621 34.6951611,43.1440086 C35.3873282,44.9572658 38.2713575,48.1808342 43.1742074,49.7926183 C47.4711226,51.2029295 57.9692778,51.9800397 70.6590068,47.0871235 C84.8772714,41.5897881 95.9807842,26.3354022 92.7218311,13.5850381 C89.4051974,0.604419067 67.8326581,-3.65529626 47.4425708,3.56895068 C35.3005189,7.88622973 22.1493452,14.621185 12.689729,23.4572162 C1.44201466,33.9338133 -0.346083519,43.0864449 0.403764105,46.8856504 C3.02851919,60.4419067 21.7455811,69.2779378 29.2440573,75.8114201 C28.8691335,76.0126053 28.52305,76.2140783 28.2058068,76.3870573 C24.4565687,78.2288085 10.1806235,85.6835981 6.60442715,93.5695401 C2.5667861,102.491917 7.2389136,108.910559 10.3536653,109.774015 C19.9863232,112.450728 29.8497035,107.644158 35.1851577,99.729146 C40.4914833,91.8141344 39.8572852,81.5390103 37.4058603,76.847567 L37.319051,76.6748759 L40.2607609,74.9479643 C42.1645087,73.8254717 44.0391277,72.7893247 45.6827361,71.8967992 C44.7601351,74.4008211 44.0965199,77.3653527 43.7507248,81.6826317 C43.3469607,86.748527 45.4234618,93.3105033 48.1632897,95.9008707 C49.374582,97.0230755 50.8165967,97.0521452 51.7106457,97.0521452 C54.883078,97.0521452 56.3250927,94.432708 57.9113088,91.2957731 C59.8724487,87.4677857 61.6028663,83.0353792 61.6028663,83.0353792 C61.6028663,83.0353792 59.4398443,95.0374149 65.3521044,95.0374149 C67.5151264,95.0374149 69.6781484,92.2455745 70.6587184,90.8064815 L70.6587184,90.8352633 C70.6587184,90.8352633 70.716399,90.7489177 70.8317602,90.5474447 C70.9527701,90.3688795 71.068187,90.1866022 71.1778437,90.0008772 L71.1778437,89.9433135 C72.0430525,88.4466567 73.9753521,85.0216154 76.8593814,79.3515889 C80.5794909,72.0409964 84.1559756,62.8883648 84.1559756,62.8883648 C84.1559756,62.8883648 84.5020591,65.1333499 85.56915,68.817428 C86.203348,71.0051372 87.5876821,73.3937438 88.654773,75.7250745 C87.7895642,76.9339126 87.2704389,77.6249651 87.2704389,77.6249651 L87.2992792,77.6537469 C86.6074005,78.5747665 85.8284242,79.5536375 85.0211844,80.531933 C82.0794745,84.0433199 78.5609587,88.0442863 78.099514,89.1955607 C77.5515485,90.5480204 77.6669096,91.5553855 78.7340005,92.3615654 C79.5126884,92.9372026 80.8970225,93.0520422 82.3678774,92.9372026 C85.0211844,92.7642236 86.8669632,92.1025286 87.7898526,91.6992948 C89.2318672,91.1812213 90.8757639,90.4041111 92.4619801,89.2528366 C95.3460094,87.1232668 97.1052673,84.1011715 96.9322255,80.071711 C96.8457046,77.8555078 96.1246973,75.6680864 95.2306482,73.5957925 C95.4902109,73.2216283 95.7500619,72.8471763 96.0093361,72.444518 C100.566102,65.7956205 104.084618,58.4853158 104.084618,58.4853158 C104.084618,58.4853158 104.430702,60.7303009 105.497793,64.414379 C106.04547,66.2851999 107.141689,68.3289998 108.122259,70.3437301 C103.853896,73.8263352 101.171749,77.8557956 100.248859,80.5037267 C98.5472819,85.396643 99.8739354,87.6128462 102.383041,88.1309197 C103.507524,88.3611746 105.122869,87.8431011 106.333873,87.3250276 C107.833568,86.835736 109.650506,86.0007742 111.323532,84.7634421 C114.207561,82.6335844 116.976229,79.6690528 116.832028,75.6683742 C116.745507,73.8263352 116.255222,72.013078 115.591895,70.2861663 C119.225772,68.7895096 123.926452,67.9260538 129.896681,68.6456003 C142.730611,70.142257 145.268557,78.1436142 144.77856,81.48231 C144.288275,84.8212936 141.606128,86.6630449 140.711791,87.2386821 C139.817742,87.7855374 139.529339,87.9872982 139.615859,88.3899565 C139.731221,88.9946634 140.134985,88.9655937 140.913673,88.8507541 C141.980764,88.6777751 147.662301,86.1164773 147.893024,79.957447 C148.239107,72.0412842 140.711791,63.4067261 127.358735,63.4927838 L127.358735,63.4927838 Z M28.5318886,97.452253 C23.0670341,103.235124 14.4615508,106.696414 10.3751891,105.966053 C5.97001672,105.209701 6.26607702,98.2031799 13.1449306,91.8522501 C17.324762,87.9904348 22.9738229,84.0775947 26.7097351,81.6214938 C27.545347,81.0779 28.823161,80.2727206 30.3380423,79.3035914 C30.5752744,79.1404891 30.7369988,79.0501188 30.7369988,79.0501188 C31.0173667,78.8783385 31.3354335,78.6699098 31.6535004,78.461481 C35.8872891,84.7927329 34.2983343,91.3761946 28.5318886,97.452253 L28.5318886,97.452253 Z M60.532695,75.0854172 C58.9015335,79.3703533 56.0664675,89.7137978 52.0373282,91.1764717 C48.5710642,92.4483578 43.8949931,87.9457036 45.9110703,80.2628155 C46.9377654,76.3840779 50.3640563,70.6934944 52.6950722,67.9930671 C56.4800047,63.6346891 61.3362629,60.4286859 63.0405033,60.6303245 C65.1010131,60.9655422 61.5609133,72.4065576 60.532695,75.0854172 Z M84.736708,88.6071934 C83.6370959,89.360581 82.6161003,89.9797753 82.0553024,89.94649 C81.6260929,89.9420424 82.3513221,89.1667526 82.3513221,89.1667526 C82.3513221,89.1667526 87.2284969,83.3008513 89.0790153,80.7208703 C90.1226219,79.2308916 91.3896256,77.4880843 92.7142049,75.5463269 L92.8410839,75.9368202 C94.3640785,80.6222348 87.7513266,86.2245984 84.736708,88.6071934 Z M103.398421,85.374531 C102.403181,85.3319009 102.183034,84.2749211 104.138579,80.1014955 C104.891871,78.4537238 106.864127,75.464379 110.81458,71.9542798 C111.63829,72.6016479 112.231584,73.2930778 112.417662,74.0564296 C113.976221,79.0400702 107.475401,83.1958323 103.398421,85.374531 Z" id="Shape"></path>
                </g>
                <g id="react" transform="translate(158.000000, 77.000000)" stroke="#5B0030" stroke-width="4.96047049">
                    <path d="M73.5,51.0405505 C81.2312476,51.0405505 87.499865,57.2903648 87.499865,65 C87.499865,72.7096352 81.2312476,78.9594495 73.5,78.9594495 C65.7687524,78.9594495 59.500135,72.7089286 59.500135,65 C59.500135,57.2910714 65.7687524,51.0405505 73.5,51.0405505 Z M73.5,37.0811012 C114.092947,37.0811012 147,49.5807296 147,65 C147,80.4192704 114.092947,92.9188988 73.5,92.9188988 C32.9070526,92.9188988 0,80.4192704 0,65 C0,49.5807296 32.9070526,37.0811012 73.5,37.0811012 Z M97.7496143,78.9594495 C77.4527863,114.01211 50.1432704,136.179343 36.75,128.469001 C23.3567296,120.758659 28.954975,86.0932114 49.2518029,51.0405505 C69.5486309,15.9878898 96.858147,-6.17934282 110.25,1.53099894 C123.641853,9.24134071 118.045025,43.9067886 97.7496143,78.9594495 L97.7496143,78.9594495 Z M97.7496143,51.0405505 C118.045025,86.0932114 123.64327,120.760072 110.25,128.469001 C96.8567296,136.17793 69.5479224,114.01211 49.2503857,78.9594495 C28.952849,43.9067886 23.3567296,9.23992753 36.75,1.53099894 C50.1432704,-6.17792964 77.4520776,15.9878898 97.7496143,51.0405505 L97.7496143,51.0405505 Z" id="Shape"></path>
                </g>
                <g id="npm" transform="translate(433.000000, 122.000000)" fill="#5B0030" fill-rule="nonzero">
                    <polyline id="Shape" fill-opacity="0.1953125" points="0 0 0 34.4197531 28.3333333 34.4197531 28.3333333 40.1563786 51 40.1563786 51 34.4197531 102 34.4197531 102 0"></polyline>
                    <polyline id="Shape" points="5.66666667 5.73662551 5.66666667 28.6831276 17 28.6831276 17 11.473251 22.6666667 11.473251 22.6666667 28.6831276 28.3333333 28.6831276 28.3333333 5.73662551 34 5.73662551 34 34.4197531 45.3333333 34.4197531 45.3333333 11.473251 51 11.473251 51 22.9465021 45.3333333 22.9465021 45.3333333 28.6831276 56.6666667 28.6831276 56.6666667 5.73662551 62.3333333 5.73662551 62.3333333 28.6831276 73.6666667 28.6831276 73.6666667 11.473251 79.3333333 11.473251 79.3333333 28.6831276 85 28.6831276 85 11.473251 90.6666667 11.473251 90.6666667 28.6831276 96.3333333 28.6831276 96.3333333 5.73662551"></polyline>
                </g>
                <g id="jquery" transform="translate(871.000000, 590.000000)" fill="#5B0030" fill-opacity="0.988903986" fill-rule="nonzero">
                    <path d="M61.449917,43.4582145 C60.5996631,44.8637695 59.831666,46.3269031 58.8851279,47.664946 C54.1618506,54.3419763 47.693584,58.2449946 39.6016524,59.4609511 C35.5301543,60.0728538 31.4493047,59.9427348 27.4138594,59.1801712 C23.1228457,58.369043 19.233457,56.5303302 15.6417803,54.1024641 C8.28665334,49.1312069 3.21490723,42.4705487 0.964872069,33.8377476 C-0.535438476,28.0815452 -0.393073242,22.3801008 2.15135157,16.9016738 C2.81457422,15.4734307 3.71047851,14.1355718 4.62557812,12.8448674 C5.68353516,11.3525459 6.88071973,9.95827353 8.10552834,8.57013307 C7.89788671,9.05412426 7.67861717,9.53370049 7.48426462,10.0230264 C5.19688476,15.7801485 5.1720293,21.6282681 6.92938476,27.4950286 C9.32067773,35.4780932 14.2602715,41.6006768 21.1164434,46.2358444 C27.2667569,50.3936433 34.086876,52.3827103 41.5224141,52.1731831 C47.1710654,52.0140602 52.4760469,50.6597679 57.0736319,47.2443587 C58.6068574,46.1053575 59.951083,44.7137219 61.381749,43.4377952 C61.4043282,43.444663 61.4272149,43.4514081 61.449917,43.4582145 Z" id="Shape"></path>
                    <path d="M63,27.6255156 C62.5377744,28.5345703 62.1362109,29.4573606 61.6223672,30.3133743 C58.3181894,35.817862 53.4244922,38.9587459 47.0926231,39.9499069 C43.8410479,40.4590389 40.5874423,40.3650368 37.3827481,39.7400118 C35.0620224,39.287416 32.8965205,38.2898165 30.8602178,37.0752703 C24.9655342,33.5594204 20.767667,28.6752362 19.0156025,21.9718386 C17.5224287,16.2592342 18.3178037,10.8829647 21.9068965,6.04452444 C22.6084482,5.09873955 23.2741934,4.12658748 23.9578418,3.16761901 C23.9811592,3.13481332 24.0188731,3.11230923 24.1021143,3.03884902 C24.0763974,3.16418514 24.0748594,3.24475836 24.0438516,3.31178007 C21.4422099,8.93780205 21.6530508,14.5950354 24.3315967,20.0509584 C28.5268184,28.5961347 35.5016689,33.5276572 44.9868604,34.7230105 C50.3079609,35.3935956 55.2618282,34.2184775 59.5538877,30.8894667 C60.7826953,29.9364462 61.8272402,28.7479606 63,27.6255156 Z" id="Shape"></path>
                    <path d="M37.2401367,0 C36.9770625,1.06731922 36.6196729,2.10465343 36.4772461,3.17062364 C36.0171123,6.61430097 37.0471992,9.70968614 38.9805117,12.5136219 C41.8834336,16.7239099 45.9494561,19.0382131 51.0279697,19.6294513 C52.6462207,19.8177621 54.2536436,19.8069086 55.8440859,19.4301644 C57.6475224,19.0028934 58.3664238,18.5710233 60.9009434,16.4347293 C60.7465195,16.7310229 60.666293,16.9092774 60.5650254,17.0749 C58.1782236,20.9817814 54.6929824,22.9303779 50.0989043,23.1164812 C42.2344248,23.4352789 35.7446865,17.5116143 34.289165,11.4128838 C33.4284521,7.80634312 34.0004356,4.45495095 36.2014981,1.42155932 C36.5475059,0.945049053 36.8964053,0.47043968 37.2401367,0 Z" id="Shape"></path>
                </g>
                <g id="jekyll" transform="translate(547.000000, 0.000000)" fill-rule="nonzero">
                    <path d="M179.726641,1.12815548 C179.687475,1.28608017 179.687475,1.44400486 179.726641,1.60192956 C179.726641,1.60192956 180.234625,4.95990726 179.648309,6.46078556 L155.569012,69.784234 C153.84923,74.4455852 156.155328,79.6202906 160.767915,81.3982297 C165.380503,83.1753773 170.501466,80.8844797 172.338746,76.2627087 L196.418042,12.9392602 C196.88686,11.7146512 199.584227,9.30501325 199.584227,9.30501325 C199.701725,9.18627288 199.818832,9.06792831 199.896772,8.94958374 L199.896772,8.91000362 C199.896772,8.87042349 199.935938,8.87042349 199.935938,8.83084337 C200.56142,7.2116205 196.535149,4.13030787 190.984534,1.95775487 C185.433528,-0.215193925 180.391289,-0.649783684 179.765807,1.00941511 C179.765807,1.00941511 179.726641,1.04899523 179.726641,1.12815548 Z" id="Shape" fill="#5B0030" opacity="0.1"></path>
                    <path d="M178.72594,1.12778917 C178.686774,1.28610996 178.686774,1.44403495 178.72594,1.60195994 C178.72594,1.60195994 179.234313,4.95954813 178.647608,6.46082504 L154.568801,69.784392 C152.849418,74.445752 155.155506,79.620467 159.768075,81.3980137 C164.380644,83.1755604 169.501194,80.8846585 171.338467,76.2628788 L195.417665,12.9393118 C195.886873,11.7147005 198.583837,9.30505806 198.583837,9.30505806 C198.701335,9.18631746 198.818833,9.06797267 198.896773,8.94962788 L198.896773,8.91004768 C198.896773,8.87046748 198.935939,8.87046748 198.935939,8.83088729 C199.561418,7.21126559 195.535163,4.13034298 189.984179,1.95739012 C184.433196,-0.215166942 179.390585,-0.649757515 178.765106,1.00944438 C178.765106,1.04902458 178.765106,1.08860478 178.72594,1.12818497 L178.72594,1.12778917 Z" id="Shape" fill="url(#linearGradient-2)"></path>
                    <path d="M187,29 L169.590027,74.8677174 C168.299194,78.1610493 164.582317,79.8669508 161.257041,78.5578076 C157.931373,77.2482669 156.170933,73.3995529 157.384151,70.106221 L168.494798,40.7842763 C168.494798,40.7842763 169.86403,38.5225953 172.602884,36.8962046 C175.341347,35.2690187 177.571394,35.6260216 180.58386,34.2771231 C183.635133,32.9282246 187,29 187,29 L187,29 Z" id="Shape" fill="#5B0030"></path>
                    <path d="M178.905253,1 C178.905253,1 179.417096,4.34334493 178.826233,5.83797028 L154.573035,68.886105 C152.840947,73.5268732 155.163898,78.6794183 159.8098,80.4494942 C160.597221,80.7640689 161.423954,80.9604806 162.250686,81 C159.060469,78.5758017 157.830963,74.3649065 159.218937,70.6166614 L183,8.82722099 C183,8.82722099 179.731985,5.79845084 178.905253,1 L178.905253,1 Z" id="Shape" fill="#5B0030" opacity="0.3"></path>
                    <g id="Group" opacity="0.5" transform="translate(164.000000, 40.000000)" fill="#FFFFFF">
                        <circle id="Oval" cx="7.08946875" cy="1.96309677" r="1"></circle>
                        <ellipse id="Oval" cx="11.802375" cy="6.93303226" rx="1.08753125" ry="1.04012903"></ellipse>
                        <ellipse id="Oval" cx="4.59184375" cy="12.8656774" rx="2.05440625" ry="1.96490323"></ellipse>
                        <ellipse id="Oval" cx="1.28903125" cy="16.4873548" rx="1.08753125" ry="1.04012903"></ellipse>
                        <circle id="Oval" cx="5.5989375" cy="24.192129" r="1"></circle>
                    </g>
                    <path d="M46.5901437,37.6963623 C47.6473554,38.552984 49.56674,38.046834 50.8590184,36.6453384 C52.2301756,35.1660036 52.4259991,33.2587491 51.3683951,32.4021274 C50.310791,31.5455057 48.3917987,32.0516557 47.0991279,33.5309905 C45.7283631,35.0103253 45.4932964,36.879247 46.5901437,37.6967535 L46.5901437,37.6963623 Z M43.4177238,40.4602385 C43.1430215,40.4602385 42.6340373,40.9663885 43.0649275,41.1611819 C43.6523982,41.3555842 43.9267081,41.8617342 43.9267081,42.5626776 C43.4177238,45.482232 39.7747781,48.7913733 38.3651626,49.9202364 C38.0123662,50.2703169 38.5217429,51.0490995 38.8741468,50.7768581 C39.657441,50.1537538 41.3025157,48.8692124 42.6340373,47.1563602 C40.4407351,52.0222843 36.1326172,58.3288192 34.4875425,60.5478214 C28.0642164,69.384715 18.3114977,77.5206652 11.6142542,77.5206652 C6.24813975,77.5206652 1.70534755,73.9001674 0.725837419,68.6063236 C0.64735103,68.0219433 -0.135943132,67.9053802 0.0206372141,68.6837716 C1.23482165,75.9634913 6.87485356,78.8052066 13.6898267,78.8052066 C21.1707569,78.8052066 29.9443579,73.4331325 34.8007032,67.9053802 C42.6340373,58.9906474 47.6865985,48.713143 46.355077,42.9127581 C45.8068495,40.7719862 44.279112,40.4211234 43.4177238,40.4602385 L43.4177238,40.4602385 Z M91.5534262,59.8859931 C93.6293912,59.3798431 95.3133167,58.25098 95.3133167,56.4602887 C95.3133167,56.2654953 94.9609128,56.2654953 94.9609128,56.4602887 C94.9609128,57.5113126 93.7467284,58.4066583 92.3759636,58.6014517 C89.1643005,59.1072106 82.8190684,55.3701496 79.8424721,51.5161343 C83.0541352,52.7228366 89.5951908,50.9712603 92.6891243,48.7522582 C95.5483834,46.6889342 96.6840815,44.4312081 96.8802974,42.6014016 C97.2327013,39.5648928 93.9033087,37.7745926 89.2423945,39.5648928 C86.2657982,40.7719862 82.7017313,43.3801841 78.981084,48.2852233 C82.8975548,41.8617342 90.6135517,31.3511035 98.1725758,24.6553729 C107.376675,16.5194227 112.703546,18.0762055 104.439322,26.7186968 C101.031835,30.2609644 94.6085089,34.854647 90.182269,36.8401318 C88.8118966,37.4241209 89.4774612,38.2025123 90.4569714,37.7742015 C95.1567363,35.7112687 101.423482,31.4676666 105.222616,27.9250079 C116.424193,17.2199749 107.063122,9.1614727 94.6866029,20.4900011 C86.2657982,28.1976405 80.7827391,36.2561427 76.0040953,46.7280494 C74.359413,48.713143 73.1452285,50.3481561 71.6567342,51.5939735 C71.4605182,51.7496517 71.3435735,51.90533 71.2258439,52.0613994 C67.1131571,55.564943 60.6509803,60.3143039 56.6167799,60.3530279 C53.7575207,60.4312582 52.5433363,58.289704 53.052713,55.526219 C53.8360071,51.2047778 58.3399486,46.1049451 62.1783254,44.3533689 C67.1524003,42.0952516 70.0897534,46.494532 63.5490902,49.9976844 C61.0426274,51.2826169 58.0660311,51.9831692 56.8518466,51.9831692 C55.4418386,51.9831692 55.5591758,52.5671583 56.7733602,52.6062734 C58.7708388,52.6841126 61.9825019,51.827882 64.0977101,50.8543061 C70.7949536,47.6625102 71.2258439,41.7060559 63.9407373,41.5116536 C56.0293093,41.239021 46.5509005,47.9347516 46.6289027,56.3824495 C46.7078733,60.1973497 49.7625635,62.2606736 53.9533443,62.2606736 C60.964141,62.1824433 67.1916435,56.8882084 72.3226912,52.2170777 C73.0667422,51.5939735 73.7715499,50.9321452 74.4767501,50.2315929 C72.6750951,54.7474365 71.7740713,58.9515323 72.2049616,62.0658802 C72.4792715,64.3239975 73.7715499,65.3750214 74.7899108,66.2316431 C74.9861268,66.3869303 75.4166246,66.2316431 75.1427071,65.8029411 C73.6542128,64.0513649 74.085103,58.795854 76.1218248,53.6964125 C77.8449935,57.1221169 84.5426295,61.443167 91.5534262,59.8859931 Z M83.1326215,45.1317603 C91.3187519,37.8524318 94.5300225,44.3533689 89.3208809,48.3239473 C86.6182021,50.3872712 81.2524801,51.9444452 79.5685546,50.9321452 L79.2157583,50.7377429 C79.0199348,50.3872712 78.784868,50.0367995 78.6282877,49.686719 C79.9990525,48.0125908 81.5660332,46.533256 83.1326215,45.1317603 Z M128.644131,36.8401318 C131.934281,37.1902124 130.563124,33.219634 127.234124,34.2319339 C125.746022,34.6598536 124.29677,37.5019601 123.239166,39.9544797 C119.949409,44.8204037 114.465958,51.4774103 110.627581,54.9809539 C107.220094,57.9005083 104.086918,58.6792909 107.924902,53.2289865 C109.491883,51.0490995 111.489361,48.713143 112.62506,46.3775777 C115.327738,40.4993536 109.569977,37.8911558 104.909063,41.4334233 C102.206776,43.4967472 98.5642229,47.7399582 95.7049638,50.0759147 C94.9216696,50.6986278 95.1174931,51.6326975 95.9011797,51.0099843 C98.1725758,49.180569 102.167533,44.976082 105.614263,42.5235624 C108.473522,40.3436754 109.60922,41.745171 107.964145,43.5745864 C105.692749,46.1827843 101.6974,50.7377429 100.679431,53.6181822 C99.2694231,57.9396235 100.953349,59.846878 103.812608,59.846878 C107.729079,59.846878 113.564934,53.7742517 117.481797,48.9470516 C118.774076,47.3120385 120.184084,45.4043929 121.398268,43.5745864 C117.990781,50.1537538 114.426715,56.8103692 110.000867,62.8446627 C103.734121,71.3310846 95.9007873,77.7154586 88.4591003,77.7154586 C83.0933783,77.7154586 78.4717073,74.0949608 77.4925896,68.8007259 C77.4141032,68.2167367 76.7092955,68.0997825 76.7873894,68.878565 C78.0015739,76.1578935 83.6416058,79 90.4565789,79 C97.9375091,79 105.144129,74.6789499 110.196691,69.384715 C120.3803,58.6788997 121.594092,46.6502102 124.727661,39.9153645 C126.215763,36.8401318 127.547677,36.7235687 128.644131,36.8401318 L128.644131,36.8401318 Z M170.08259,26.5622362 C171.571085,24.0318775 171.492598,22.0467839 168.006625,22.0467839 C165.382433,22.124623 160.604182,23.9540383 158.371636,25.6668906 C157.862652,26.1730405 158.097719,26.4452819 158.724433,26.1730405 C159.15493,26.0173623 159.664307,25.7447297 160.13444,25.5503274 C162.640903,24.1875558 161.622542,27.0296622 161.074315,28.0806862 C158.097719,33.258358 152.810091,40.5376865 150.029318,44.1581843 C148.70929,45.9288635 147.283628,47.6188195 145.760051,49.2189018 C143.096615,51.7496517 137.80938,56.2263801 133.775179,57.7053238 C120.810797,62.5325238 137.339246,40.5768016 138.710011,38.7861103 C141.765094,34.9712102 148.618917,28.3142036 150.694882,24.9663383 C152.183377,22.4355884 152.105283,20.4504948 148.618917,20.4504948 C145.995118,20.5287251 141.216866,22.3581404 138.984321,24.0709926 C138.474944,24.5771426 138.710011,24.849384 139.336725,24.5771426 C139.767615,24.4214643 140.276599,24.1488318 140.746733,23.9540383 C143.253588,22.5916578 142.235227,25.4333731 141.686607,26.4847882 C138.710011,31.6620689 133.422775,38.9417886 130.64161,42.5622864 C128.370214,45.5987951 125.589441,48.6349127 123.43499,50.3477649 C122.573602,51.0487083 123.082586,51.7105366 123.944367,51.1265475 C124.727661,50.6203975 125.863359,49.4915344 127.15603,48.1678779 C124.805755,52.8393997 122.886762,59.4185671 129.075022,60.1969585 C134.36265,60.8975108 140.629396,55.5645519 144.702447,51.5935823 L146.151698,50.1533627 L146.504102,49.802891 C144.154219,54.4744128 142.235227,61.0535802 148.423094,61.8319716 C155.199216,62.7664324 163.620021,53.6960214 166.87132,50.3477649 C167.497641,49.7250518 167.301818,48.6349127 166.244213,49.7250518 C164.325221,51.7105366 157.823409,57.5887606 153.123644,59.3403368 C140.159262,64.1675369 156.687711,42.2118147 158.058475,40.4211234 C161.152801,36.5283841 168.006625,29.8713775 170.08259,26.5626274 L170.08259,26.5622362 Z" id="Shape" fill="#5B0030" opacity="0.1"></path>
                    <path d="M46.5612467,36.6962236 C47.6190946,37.5528401 49.5385291,37.0466932 50.8314979,35.6452061 C52.2025786,34.1658803 52.3984473,32.2586375 51.3405994,31.4020211 C50.2831441,30.5454046 48.3633171,31.0515515 47.0707408,32.5308773 C45.6996601,34.010203 45.5033989,35.8399983 46.5612467,36.6966148 L46.5612467,36.6962236 Z M43.4273479,39.460474 C43.1529747,39.460474 42.6438732,39.9662298 43.0748628,40.161022 C43.6624688,40.3558143 43.9364494,40.86157 43.9364494,41.5625091 C43.4273479,44.4820457 39.7835625,47.7911668 38.373622,48.920023 C38.0211369,49.2704925 38.530631,50.0488792 38.8827236,49.7766394 C39.6665908,49.153539 41.3116522,47.8690054 42.6438732,46.1561637 C40.449673,51.022058 36.1405621,57.3285544 34.4951082,59.547543 C28.0703016,68.3843826 18.315335,76.5202831 11.6165477,76.5202831 C6.24958896,76.5202831 1.70535716,72.8998074 0.725621256,67.605996 C0.647116777,67.0216193 -0.135965408,66.9050568 0.0206510293,67.6834435 C1.23511533,74.9631187 6.87644723,77.8048166 13.6929912,77.8048166 C21.1756457,77.8048166 29.9508764,72.4327754 34.8087336,66.9050568 C42.6434807,57.9903786 47.6975991,47.7133281 46.365378,41.9129787 C45.777772,39.7327138 44.2889346,39.3822442 43.4273479,39.460474 L43.4273479,39.460474 Z M91.534893,58.8857188 C93.6113365,58.3795719 95.2960426,57.2507157 95.2960426,55.4600353 C95.2960426,55.2652431 94.943165,55.2652431 94.943165,55.4600353 C94.943165,56.5110528 93.7290932,57.406393 92.3576199,57.6011853 C89.1452166,58.106941 82.7989145,54.370294 79.8216321,50.5159111 C83.0340354,51.7229971 89.5762062,49.9710405 92.6712453,47.7520519 C95.5311635,45.6887406 96.6671234,43.4310282 96.862992,41.6012329 C97.2154771,38.5647427 93.8857096,36.7744534 89.2237211,38.5647427 C86.2464387,39.7718287 82.6811578,42.3800106 78.9596529,47.2850199 C82.8770265,40.86157 90.5948019,30.3510035 98.1559608,23.6553139 C107.362181,15.5194134 112.689888,17.0761867 104.423758,25.7186252 C101.015486,29.2608711 94.5910724,33.8545257 90.1638123,35.8399983 C88.7927315,36.4239839 89.458842,37.2023705 90.4381854,36.7740623 C95.1394262,34.7111421 101.407224,30.4679571 105.207233,26.9249289 C116.411785,16.2199614 107.048556,8.16150839 94.6691844,19.4899675 C86.2464387,27.158836 80.7621158,35.2560128 75.9823705,45.7278555 C74.3369167,47.7133281 73.1224524,49.3483312 71.6336149,50.5937498 C71.4377462,50.7494271 71.320382,50.9054956 71.2030178,51.0611729 C67.0893831,54.5646951 60.6253242,59.314027 56.590194,59.3527508 C53.7306683,59.4309806 52.5158115,57.2894395 53.0253056,54.5259713 C53.8087803,50.2045565 58.3141524,45.104755 62.1534139,43.3531895 C67.1286353,41.0954771 70.0666655,45.4943395 63.5244947,48.9974705 C61.0170616,50.2823952 58.0397792,50.9833343 56.8253149,50.9833343 C55.4149819,50.9833343 55.5327387,51.5669287 56.7468104,51.6060436 C58.7447494,51.6838822 61.9575453,50.8276569 64.0728485,49.8540869 C70.7720282,46.6623106 71.2030178,40.7058927 63.9158395,40.5114916 C56.002588,40.2388607 46.5219945,46.9345503 46.6000147,55.3821966 C46.6790034,59.1970734 49.7343978,61.2603847 53.926537,61.2603847 C60.9389496,61.1821549 67.1678876,55.8883435 72.2997254,51.2168503 C73.0439479,50.5937498 73.7493106,49.9319256 74.4546734,49.2313776 C72.6522105,53.7471935 71.7513716,57.9512637 72.1819687,61.0655925 C72.4567344,63.323696 73.7493106,64.3747136 74.7679062,65.23133 C74.9637749,65.3866162 75.3947645,65.23133 75.1203914,64.8030218 C73.6319464,63.0510651 74.0625435,57.7955863 76.0997347,52.696176 C77.8625528,56.1218595 84.5617326,60.4428832 91.534893,58.8857188 Z M83.1121474,44.0924612 C91.3001646,36.8131772 94.5125679,43.3140746 89.3022256,47.2850199 C86.5989238,49.3483312 81.2319651,50.9054956 79.547259,49.8932018 L79.1947739,49.6984096 C78.9985127,49.3483312 78.7637843,48.9978616 78.6071678,48.6473921 C79.9782486,47.012389 81.545198,45.4943395 83.1121474,44.0928524 L83.1121474,44.0924612 Z M128.63454,35.8403895 C131.925055,36.190859 130.553975,32.2199138 127.224207,33.2322075 C125.73537,33.6601246 124.285784,36.5022137 123.228329,38.9547183 C119.937421,43.8206126 114.452706,50.4775785 110.613837,53.9811007 C107.205172,56.9006373 104.071273,57.6794151 107.910535,52.229144 C109.477484,50.0492703 111.475423,47.7137193 112.611776,45.3777771 C115.314685,39.499589 109.555989,36.891407 104.894,40.4336529 C102.190699,42.4969642 98.5476982,46.7401492 95.68778,49.0760914 C94.9043053,49.6988008 95.1001739,50.6328647 95.8836486,50.0101554 C98.1559608,48.1807512 102.151839,43.97629 105.598971,41.5237854 C108.458889,39.3439116 109.594849,40.7453987 107.949787,42.5748029 C105.677475,45.183376 101.681597,49.7379157 100.663001,52.6187285 C99.2526684,56.9397522 100.937375,58.846995 103.7969,58.846995 C107.714274,58.846995 113.551867,52.7744058 117.46924,47.9472353 C118.762209,46.3122322 120.172542,44.4045982 121.386614,42.5748029 C117.978734,49.1539301 114.413846,55.810896 109.986978,61.8447614 C103.718396,70.3311315 95.8836486,76.7154665 88.4402464,76.7154665 C83.0732877,76.7154665 78.4505514,73.0949908 77.4708155,67.8007882 C77.392311,67.2168027 76.6873408,67.0998491 76.7658453,67.8786269 C77.9803096,75.1579109 83.6216415,78 90.4381854,78 C97.9208399,78 105.129121,73.6789763 110.182847,68.3847738 C120.368411,57.6790239 121.582875,45.650408 124.716774,38.9156034 C126.205611,35.8403895 127.576692,35.6847122 128.634147,35.8403895 L128.63454,35.8403895 Z M170.08255,25.523833 C171.570995,22.9934897 171.492883,21.008017 168.006107,21.008017 C165.381309,21.0862468 160.601957,22.915651 158.368897,24.6284928 C157.859403,25.1346396 158.094524,25.4068794 158.721382,25.1346396 C159.152371,24.9789623 159.661473,24.7063314 160.131715,24.5115392 C162.639148,23.149167 161.620552,25.9908649 161.071806,27.0422736 C158.094524,32.2195226 152.806069,39.4991978 150.024263,43.1196735 C148.704057,44.8903309 147.278198,46.5802763 145.754404,48.1803601 C143.090355,50.7107034 137.801901,55.1874044 133.76677,56.6667301 C120.7994,61.4939007 137.331659,39.5383127 138.702739,37.7472412 C141.758526,33.9323644 148.61393,27.2757896 150.690374,23.9279448 C152.179211,21.3972104 152.100706,19.4121289 148.61393,19.4121289 C145.989133,19.4899675 141.20978,21.3193717 138.97672,23.0322134 C138.467619,23.5383603 138.702739,23.8109912 139.329598,23.5383603 C139.760195,23.382683 140.269689,23.1104432 140.739931,22.915651 C143.246971,21.5532788 142.228376,24.3949768 141.680022,25.4459943 C138.702739,30.6236344 133.413893,37.9033096 130.632479,41.5233942 C128.360167,44.5598844 125.578753,47.5963745 123.424198,49.3092163 C122.562218,50.0097643 123.071713,50.6715885 123.933299,50.0876029 C124.716774,49.5818472 125.852734,48.4525998 127.145703,47.1293426 C124.795278,51.8008358 122.875451,58.3795719 129.065137,59.1583497 C134.353984,59.8588976 140.622174,54.5255802 144.696557,50.555026 L146.146142,49.1144241 L146.498627,48.7643456 C144.148203,53.4358389 142.228376,60.014575 148.418061,60.7933528 C155.195746,61.7274167 163.618491,52.6574523 166.870147,49.3092163 C167.496613,48.686507 167.300744,47.5963745 166.243289,48.686507 C164.323854,50.6715885 157.820543,56.5497766 153.119302,58.3017332 C140.152325,63.1289038 156.684191,41.1733158 158.055271,39.3822442 C161.189563,35.4895288 168.005714,28.832954 170.082158,25.523833 L170.08255,25.523833 Z" id="Shape" fill="#5B0030"></path>
                </g>
                <g id="html" transform="translate(782.000000, 176.000000)" fill="#5B0030" fill-rule="nonzero">
                    <path d="M0,0 L7.27804334,78.3025489 L39.9502062,87 L72.7079577,78.2894649 L80,0 L0,0 Z M66.4706221,73.3063359 L40.1360912,80.3050778 L40.1360912,80.34467 L40.0673368,80.3247893 L39.9980508,80.34467 L39.9980508,80.3050778 L13.6638742,73.3063359 L7.44036043,6.40078711 L72.6948447,6.40078711 L66.4706221,73.3063359 Z M52.2937478,45.0466289 L51.1357323,57.4978242 L39.9776726,60.3858164 L39.9533958,60.3924434 L28.8018925,57.5109082 L28.0886542,49.844543 L18.0333229,49.844543 L19.4358772,64.9261289 L39.9533958,70.385209 L39.964028,70.385209 L39.9776726,70.385209 L39.9980508,70.378582 L60.4951912,64.9261289 L63.2455445,35.4436641 L26.7447537,35.4436641 L25.8319858,25.6096055 L64.1202139,25.6096055 L64.1547683,25.6096055 L65.0508791,16.0068106 L14.8833789,16.0068106 L17.5855332,45.046459 L52.2937478,45.046459 L52.2937478,45.0466289 Z" id="Shape"></path>
                </g>
                <g id="JS" transform="translate(26.000000, 626.000000)" fill="#5B0030" font-family="AvenirNext-Bold, Avenir Next" font-size="97.5" font-weight="bold">
                    <text>
                        <tspan x="0" y="98">JS</tspan>
                    </text>
                </g>
            </g>
            <g id="sketch" stroke-linecap="round" transform="translate(849.000000, 879.000000)" stroke="#5B0030" stroke-width="7">
                <path d="M65.0955647,119.530244 C63.5553995,119.530244 -1.85585478,41.989602 0.592673321,41.989602 C3.04120142,41.989602 126.118174,43.5041932 129.537706,43.5041932 C132.957238,43.5041932 66.6357299,119.530244 65.0955647,119.530244 Z" id="Triangle"></path>
                <path d="M0.711327627,41.8658937 C-0.914082381,41.033273 21.2816585,6.35315318 21.2816585,6.35315318 L63.5034728,0.441993657 L107.45164,5.29895483 C107.45164,5.29895483 129.762778,40.2169444 129.762778,41.8658937 C129.762778,43.514843 31.8379074,40.9373425 31.8379074,40.9373425 C31.8379074,40.9373425 2.33673763,42.6985145 0.711327627,41.8658937 Z" id="Path-8"></path>
                <polyline id="Path-9" points="63.5384786 0.403543772 31.1227179 41.9494804 21.3372222 6.16851893"></polyline>
                <polyline id="Path-10" points="63.8928862 0.778012218 95.0375143 43.6705502 107.776743 5.53743929"></polyline>
                <path d="M29.9474888,43.5953027 L65.0064335,113.862742 C65.0064335,113.862742 96.0996802,43.8870203 96.0996802,43.8870203" id="Path-11"></path>
            </g>
            <path d="M158.144718,432.659535 L158.09035,432.605167 L161.915409,428.780108 L161.969777,428.834475 L170.900621,419.903631 C173.440788,417.363465 177.563196,417.367448 180.099379,419.903631 L219.096369,458.900621 C221.636535,461.440788 221.632552,465.563196 219.096369,468.099379 L180.099379,507.096369 C177.559212,509.636535 173.436804,509.632552 170.900621,507.096369 L131.903632,468.099379 C129.363465,465.559212 129.367448,461.436804 131.903632,458.900621 L158.144718,432.659535 Z M158.144718,432.659535 L169.954398,444.469215 C169.692643,445.173421 169.549604,445.935358 169.549604,446.730702 C169.549604,449.350494 171.101544,451.60781 173.33622,452.633449 L173.33622,476.530331 C171.101544,477.55597 169.549604,479.813286 169.549604,482.433078 C169.549604,486.018146 172.455876,488.924418 176.040945,488.924418 C179.626013,488.924418 182.532286,486.018146 182.532286,482.433078 C182.532286,479.813286 180.980347,477.55597 178.74567,476.530331 L178.74567,453.260487 L187.421604,461.936422 C187.060577,462.744406 186.859846,463.639707 186.859846,464.58189 C186.859846,468.166959 189.766119,471.073231 193.351187,471.073231 C196.936256,471.073231 199.842529,468.166959 199.842529,464.58189 C199.842529,460.996822 196.936256,458.09055 193.351187,458.09055 C192.706194,458.09055 192.083171,458.18462 191.495091,458.359789 L182.127493,448.992191 C182.389248,448.287984 182.532286,447.526047 182.532286,446.730702 C182.532286,443.145634 179.626013,440.239362 176.040945,440.239362 C175.2456,440.239362 174.483664,440.3824 173.779457,440.644155 L161.969777,428.834475 L158.144718,432.659535 Z" id="Combined-Shape" fill="#5B0030" fill-rule="nonzero"></path>
            <path d="M744.562993,693.532053 C757.380069,697.870828 906.720268,719.296327 906.720268,729.646177 C906.720268,739.996027 731.745917,689.193277 744.562993,693.532053 Z M184.925081,308.872582 C162.116473,283.646869 227.736803,342.731634 266.580279,390.990493 C305.423756,439.249353 339.524425,500.868693 338.26513,502.748056 C337.005836,504.627419 289.756941,434.472276 261.569135,398.469094 C233.381329,362.465912 201.722056,327.449589 184.925081,308.872582 Z M405.409617,217.864428 C419.932003,244.081731 458.792524,423.955355 456.054454,428.09223 C453.316384,432.229104 390.88723,191.647124 405.409617,217.864428 Z M850.927526,416.870424 C869.042487,416.870424 783.012885,434.872663 755.463492,452.617564 C727.9141,470.362465 700.539421,499.000526 699.712353,497.656214 C698.885285,496.311902 714.619972,470.438404 752.036183,447.046833 C789.452394,423.655263 832.239043,416.870424 850.927526,416.870424 Z M549.83472,322.891815 C540.629669,374.784199 547.246769,398.681113 549.83472,405.730693 C552.422671,412.780273 559.03977,270.999431 549.83472,322.891815 Z M859.879096,838.226672 C821.37191,802.24405 797.726341,794.778424 790.404567,793.109385 C783.082792,791.440347 898.386281,874.209295 859.879096,838.226672 Z M185,603.001419 C153.703849,624.016448 191.087791,599.082635 227.408875,592.414212 C263.72996,585.745789 329.007463,592.621785 320.588697,594.723496 C312.16993,596.825208 240.436329,565.77652 185,603.001419 Z M731.136071,551.974655 C744.413099,553.22911 777.32755,545.435663 805.104033,546.238374 C832.880517,547.041086 867.757508,557.154939 867.757508,563.527356 C867.757508,568.366786 848.216947,559.789089 816.492362,556.346243 C784.767778,552.903398 713.930013,550.348972 731.136071,551.974655 Z M160.333716,750.857225 C160.333716,733.91314 183.58221,692.962036 240.444462,709.01003 C297.306713,725.058025 324.935765,770.979284 320.555207,763.325266 C316.17465,755.671249 252.14732,712.72781 210.150995,712.261945 C172.246694,711.841472 160.333716,762.227963 160.333716,750.857225 Z M353.736037,338.638725 C399.438745,378.522681 396.230034,418.460954 399.430099,424.571229 C402.630164,430.681503 386.440507,394.556746 370.184239,370.045287 C353.927972,345.533829 328.71167,316.800396 353.736037,338.638725 Z M655.054411,387.384858 C657.220178,382.504997 678.325185,329.683211 691.610728,286.71063 C704.896271,243.73805 703.352864,230.671529 705.584961,232.627102 C707.159687,234.006743 706.802343,271.422913 691.610728,305.896631 C676.419113,340.370348 625.913539,453.044444 655.054411,387.384858 Z M230.716822,484.186536 C234.983772,481.51093 328.454738,550.582354 328.454738,553.5202 C328.454738,555.016758 304.904728,536.547047 279.527913,518.855706 C254.151098,501.164364 224.219062,488.26098 230.716822,484.186536 Z" id="Path-18" stroke-opacity="0.1" stroke="#1D3D68" stroke-width="10"></path>
        </g>
    </g>
</svg>